{
.appVersion = "1111";
DisplayStrings = (
a
);
copyright = "Copyright (c) 2004-2018 SIL International";
customParameters = (
{
name = glyphOrder;
value = (
.notdef,
.null,
nonmarkingreturn,
Space,
ExclamationMrk,
QuotMrk,
NumSgn,
DollarSgn,
PercentSgn,
Ampersand,
Apos,
LftParen,
RtParen,
Asterisk,
PlusSgn,
Comma,
HyphenMinus,
FullStop,
Solidus,
DigitZero,
DigitOne,
DigitTwo,
DigitThree,
DigitFour,
DigitFive,
DigitSix,
DigitSeven,
DigitEight,
DigitNine,
Colon,
Semicolon,
LTSgn,
EqSgn,
GTSgn,
QstnMrk,
AtSgn,
LtnCapA,
LtnCapB,
LtnCapC,
LtnCapD,
LtnCapE,
LtnCapF,
LtnCapG,
LtnCapH,
LtnCapI,
LtnCapJ,
LtnCapK,
LtnCapL,
LtnCapM,
LtnCapN,
LtnCapO,
LtnCapP,
LtnCapQ,
LtnCapR,
LtnCapS,
LtnCapT,
LtnCapU,
LtnCapV,
LtnCapW,
LtnCapX,
LtnCapY,
LtnCapZ,
LftSqrBrac,
ReverseSolidus,
RtSqrBrac,
CircumAccent,
LowLine,
GraveAccent,
LtnSmA,
LtnSmB,
LtnSmC,
LtnSmD,
LtnSmE,
LtnSmF,
LtnSmG,
LtnSmH,
LtnSmI,
LtnSmJ,
LtnSmK,
LtnSmL,
LtnSmM,
LtnSmN,
LtnSmO,
LtnSmP,
LtnSmQ,
LtnSmR,
LtnSmS,
LtnSmT,
LtnSmU,
LtnSmV,
LtnSmW,
LtnSmX,
LtnSmY,
LtnSmZ,
LftCurlyBrac,
VertLine,
RtCurlyBrac,
Tilde,
LtnCapADiaer,
LtnCapARingAbv,
LtnCapCCedilla,
LtnCapEAcute,
LtnCapNTilde,
LtnCapODiaer,
LtnCapUDiaer,
LtnSmAAcute,
LtnSmAGrave,
LtnSmACircum,
LtnSmADiaer,
LtnSmATilde,
LtnSmARingAbv,
LtnSmCCedilla,
LtnSmEAcute,
LtnSmEGrave,
LtnSmECircum,
LtnSmEDiaer,
LtnSmIAcute,
LtnSmIGrave,
LtnSmICircum,
LtnSmIDiaer,
LtnSmNTilde,
LtnSmOAcute,
LtnSmOGrave,
LtnSmOCircum,
LtnSmODiaer,
LtnSmOTilde,
LtnSmUAcute,
LtnSmUGrave,
LtnSmUCircum,
LtnSmUDiaer,
Dagger,
DegreeSgn,
CentSgn,
PoundSgn,
SectionSgn,
Bullet,
PilcrowSgn,
LtnSmSharpS,
RegisteredSgn,
CopyrightSgn,
TradeMrkSgn,
AcuteAccent,
Diaer,
NotEqTo,
LtnCapAe,
LtnCapOStrk,
Infinity,
PlusMinusSgn,
LTOrEqTo,
GTOrEqTo,
YenSgn,
MicroSgn,
PartialDiff,
NArySummation,
NAryProduct,
GrSmPi,
Integral,
FemOrdIndicator,
MascOrdIndicator,
OhmSgn,
LtnSmAe,
LtnSmOStrk,
InvQstnMrk,
InvExclamationMrk,
NotSgn,
SqrRoot,
LtnSmFHook,
AlmostEqTo,
Increment,
LftPtngDblAngQuotMrk,
RtPtngDblAngQuotMrk,

glyphs = (
{
glyphname = .notdef;
layers = (
{
layerId = "227CFDA3-9046-4C35-BCA7-2E12199138C9";
paths = (
{
closed = 1;
nodes = (
"1300 0 LINE",
"1300 1800 LINE",
"100 1800 LINE",
"100 0 LINE"
);
},
{
closed = 1;
nodes = (
"1250 1750 LINE",
"1250 50 LINE",
"150 50 LINE",
"150 1750 LINE"
);
}
);
width = 1400;
},
{
layerId = "B46047BD-989B-43B8-9078-123A6A2C0348";
paths = (
{
closed = 1;
nodes = (
"1300 0 LINE",
"1300 1800 LINE",
"100 1800 LINE",
"100 0 LINE"
);
},
{
closed = 1;
nodes = (
"1250 1750 LINE",
"1250 50 LINE",
"150 50 LINE",
"150 1750 LINE"
);
}
);
width = 1400;
}
);
},
{
glyphname = ExclamationMrk;
layers = (
{
layerId = "227CFDA3-9046-4C35-BCA7-2E12199138C9";
paths = (
{
closed = 1;
nodes = (
"456 730 OFFCURVE",
"451 1076 OFFCURVE",
"490 1510 CURVE",
"235 1510 LINE",
"273 1076 OFFCURVE",
"268 730 OFFCURVE",
"275 440 CURVE",
"450 440 LINE"
);
},
{
closed = 1;
nodes = (
"225 36 OFFCURVE",
"286 -25 OFFCURVE",
"360 -25 CURVE SMOOTH",
"434 -25 OFFCURVE",
"495 36 OFFCURVE",
"495 110 CURVE SMOOTH",
"495 184 OFFCURVE",
"434 245 OFFCURVE",
"360 245 CURVE SMOOTH",
"286 245 OFFCURVE",
"225 184 OFFCURVE",
"225 110 CURVE SMOOTH"
);
}
);
width = 764;
},
{
layerId = "B46047BD-989B-43B8-9078-123A6A2C0348";
paths = (
{
closed = 1;
nodes = (
"536 790 OFFCURVE",
"531 1076 OFFCURVE",
"570 1510 CURVE",
"235 1510 LINE",
"273 1076 OFFCURVE",
"268 790 OFFCURVE",
"275 500 CURVE",
"530 500 LINE"
);
},
{
closed = 1;
nodes = (
"230 46 OFFCURVE",
"304 -25 OFFCURVE",
"405 -25 CURVE SMOOTH",
"507 -25 OFFCURVE",
"580 46 OFFCURVE",
"580 150 CURVE SMOOTH",
"580 252 OFFCURVE",
"507 325 OFFCURVE",
"405 325 CURVE SMOOTH",
"304 325 OFFCURVE",
"230 252 OFFCURVE",
"230 150 CURVE SMOOTH"
);
}
);
width = 780;
}
);
unicode = 0021;
},
{
glyphname = QuotMrk;
layers = (
{
layerId = "227CFDA3-9046-4C35-BCA7-2E12199138C9";
paths = (
{
closed = 1;
nodes = (
"410 1186 OFFCURVE",
"416 1339 OFFCURVE",
"445 1585 CURVE",
"240 1585 LINE",
"271 1339 OFFCURVE",
"276 1186 OFFCURVE",
"280 1045 CURVE",
"405 1045 LINE"
);
},
{
closed = 1;
nodes = (
"750 1186 OFFCURVE",
"756 1339 OFFCURVE",
"785 1585 CURVE",
"580 1585 LINE",
"611 1339 OFFCURVE",
"616 1186 OFFCURVE",
"620 1045 CURVE",
"745 1045 LINE"
);
}
);
width = 1025;
},
{
layerId = "B46047BD-989B-43B8-9078-123A6A2C0348";
paths = (
{
closed = 1;
nodes = (
"455 1186 OFFCURVE",
"456 1339 OFFCURVE",
"485 1585 CURVE",
"240 1585 LINE",
"271 1339 OFFCURVE",
"271 1186 OFFCURVE",
"275 1045 CURVE",
"450 1045 LINE"
);
},
{
closed = 1;
nodes = (
"815 1186 OFFCURVE",
"816 1339 OFFCURVE",
"845 1585 CURVE",
"600 1585 LINE",
"631 1339 OFFCURVE",
"631 1186 OFFCURVE",
"635 1045 CURVE",
"810 1045 LINE"
);
}
);
width = 1085;
}
);
unicode = 0022;
},
{
glyphname = NumSgn;
layers = (
{
layerId = "227CFDA3-9046-4C35-BCA7-2E12199138C9";
paths = (
{
closed = 1;
nodes = (
"127 200 LINE",
"277 200 LINE",
"637 1460 LINE",
"487 1460 LINE"
);
},
{
closed = 1;
nodes = (
"1116 575 LINE",
"1116 725 LINE",
"25 725 LINE",
"25 575 LINE"
);
},
{
closed = 1;
nodes = (
"1175 960 LINE",
"1175 1110 LINE",
"84 1110 LINE",
"84 960 LINE"
);
},
{
closed = 1;
nodes = (
"552 200 LINE",
"702 200 LINE",
"1062 1460 LINE",
"912 1460 LINE"
);
}
);
width = 1200;
},
{
layerId = "B46047BD-989B-43B8-9078-123A6A2C0348";
paths = (
{
closed = 1;
nodes = (
"52 100 LINE",
"272 100 LINE",
"632 1360 LINE",
"412 1360 LINE"
);
},
{
closed = 1;
nodes = (
"1101 425 LINE",
"1101 635 LINE",
"10 635 LINE",
"10 425 LINE"
);
},
{
closed = 1;
nodes = (
"1160 850 LINE",
"1160 1060 LINE",
"69 1060 LINE",
"69 850 LINE"
);
},
{
closed = 1;
nodes = (
"527 100 LINE",
"747 100 LINE",
"1107 1360 LINE",
"887 1360 LINE"
);
}
);
width = 1200;
}
);
unicode = 0023;
},
{
glyphname = DollarSgn;
layers = (
{
layerId = "227CFDA3-9046-4C35-BCA7-2E12199138C9";
paths = (
{
closed = 1;
nodes = (
"553 -220 LINE",
"683 -220 LINE",
"683 1600 LINE",
"553 1600 LINE"
);
},
{
closed = 1;
nodes = (
"866 1364 OFFCURVE",
"764 1389 OFFCURVE",
"623 1389 CURVE SMOOTH",
"317 1389 OFFCURVE",
"190 1173 OFFCURVE",
"190 1017 CURVE SMOOTH",
"190 860 OFFCURVE",
"253 739 OFFCURVE",
"540 653 CURVE SMOOTH",
"827 567 OFFCURVE",
"871 492 OFFCURVE",
"871 396 CURVE SMOOTH",
"871 247 OFFCURVE",
"734 161 OFFCURVE",
"586 161 CURVE SMOOTH",
"450 161 OFFCURVE",
"316 207 OFFCURVE",
"195 313 CURVE",
"153 124 LINE",
"247 52 OFFCURVE",
"408 0 OFFCURVE",
"586 0 CURVE SMOOTH",
"837 0 OFFCURVE",
"1046 167 OFFCURVE",
"1046 414 CURVE SMOOTH",
"1046 613 OFFCURVE",
"912 725 OFFCURVE",
"669 796 CURVE SMOOTH",
"406 873 OFFCURVE",
"365 929 OFFCURVE",
"365 1030 CURVE SMOOTH",
"365 1132 OFFCURVE",
"466 1228 OFFCURVE",
"613 1228 CURVE SMOOTH",
"731 1228 OFFCURVE",
"818 1200 OFFCURVE",
"949 1127 CURVE",
"986 1306 LINE"
);
}
);
width = 1200;
},
{
layerId = "B46047BD-989B-43B8-9078-123A6A2C0348";
paths = (
{
closed = 1;
nodes = (
"886 1374 OFFCURVE",
"764 1389 OFFCURVE",
"623 1389 CURVE SMOOTH",
"317 1389 OFFCURVE",
"150 1203 OFFCURVE",
"150 1017 CURVE SMOOTH",
"150 830 OFFCURVE",
"275 730 OFFCURVE",
"540 623 CURVE SMOOTH",
"802 517 OFFCURVE",
"851 472 OFFCURVE",
"851 386 CURVE SMOOTH",
"851 267 OFFCURVE",
"744 211 OFFCURVE",
"586 211 CURVE SMOOTH",
"440 211 OFFCURVE",
"297 281 OFFCURVE",
"195 383 CURVE",
"123 124 LINE",
"216 49 OFFCURVE",
"388 0 OFFCURVE",
"586 0 CURVE SMOOTH",
"847 0 OFFCURVE",
"1086 147 OFFCURVE",
"1086 414 CURVE SMOOTH",
"1086 633 OFFCURVE",
"927 723 OFFCURVE",
"679 826 CURVE SMOOTH",
"431 929 OFFCURVE",
"385 969 OFFCURVE",
"385 1040 CURVE SMOOTH",
"385 1132 OFFCURVE",
"466 1188 OFFCURVE",
"613 1188 CURVE SMOOTH",
"741 1188 OFFCURVE",
"876 1154 OFFCURVE",
"949 1077 CURVE",
"1006 1316 LINE"
);
},
{
closed = 1;
nodes = (
"548 788 LINE",
"518 726 LINE",
"518 -220 LINE",
"688 -220 LINE",
"688 668 LINE",
"718 734 LINE",
"718 1600 LINE",
"548 1600 LINE"
);
}
);
width = 1200;
}
);
unicode = 0024;
},
{
glyphname = PercentSgn;
layers = (
{
layerId = "227CFDA3-9046-4C35-BCA7-2E12199138C9";
paths = (
{
closed = 1;
nodes = (
"1261 182 OFFCURVE",
"1216 115 OFFCURVE",
"1130 115 CURVE SMOOTH",
"1041 115 OFFCURVE",
"1001 181 OFFCURVE",
"1001 381 CURVE SMOOTH",
"1001 565 OFFCURVE",
"1043 630 OFFCURVE",
"1130 630 CURVE SMOOTH",
"1221 630 OFFCURVE",
"1261 566 OFFCURVE",
"1261 366 CURVE SMOOTH"
);
},
{
closed = 1;
nodes = (
"1426 652 OFFCURVE",
"1310 770 OFFCURVE",
"1135 770 CURVE SMOOTH",
"961 770 OFFCURVE",
"836 650 OFFCURVE",
"836 368 CURVE SMOOTH",
"836 86 OFFCURVE",
"951 -25 OFFCURVE",
"1126 -25 CURVE SMOOTH",
"1301 -25 OFFCURVE",
"1426 84 OFFCURVE",
"1426 379 CURVE SMOOTH"
);
},
{
closed = 1;
nodes = (
"291 -25 LINE",
"459 -25 LINE",
"1239 1480 LINE",
"1073 1480 LINE"
);
},
{
closed = 1;
nodes = (
"525 892 OFFCURVE",
"480 825 OFFCURVE",
"394 825 CURVE SMOOTH",
"305 825 OFFCURVE",
"265 891 OFFCURVE",
"265 1091 CURVE SMOOTH",
"265 1275 OFFCURVE",
"307 1340 OFFCURVE",
"394 1340 CURVE SMOOTH",
"485 1340 OFFCURVE",
"525 1276 OFFCURVE",
"525 1076 CURVE SMOOTH"
);
},
{
closed = 1;
nodes = (
"690 1362 OFFCURVE",
"574 1480 OFFCURVE",
"399 1480 CURVE SMOOTH",
"225 1480 OFFCURVE",
"100 1360 OFFCURVE",
"100 1078 CURVE SMOOTH",
"100 796 OFFCURVE",
"215 685 OFFCURVE",
"390 685 CURVE SMOOTH",
"565 685 OFFCURVE",
"690 794 OFFCURVE",
"690 1089 CURVE SMOOTH"
);
}
);
width = 1526;
},
{
layerId = "B46047BD-989B-43B8-9078-123A6A2C0348";
paths = (
{
closed = 1;
nodes = (
"291 -25 LINE",
"499 -25 LINE",
"1279 1480 LINE",
"1073 1480 LINE"
);
},
{
closed = 1;
nodes = (
"511 892 OFFCURVE",
"470 815 OFFCURVE",
"394 815 CURVE SMOOTH",
"315 815 OFFCURVE",
"279 891 OFFCURVE",
"279 1091 CURVE SMOOTH",
"279 1275 OFFCURVE",
"317 1350 OFFCURVE",
"394 1350 CURVE SMOOTH",
"475 1350 OFFCURVE",
"511 1276 OFFCURVE",
"511 1076 CURVE SMOOTH"
);
},
{
closed = 1;
nodes = (
"721 1362 OFFCURVE",
"584 1480 OFFCURVE",
"399 1480 CURVE SMOOTH",
"215 1480 OFFCURVE",
"69 1360 OFFCURVE",
"69 1078 CURVE SMOOTH",
"69 796 OFFCURVE",
"205 685 OFFCURVE",
"390 685 CURVE SMOOTH",
"575 685 OFFCURVE",
"721 794 OFFCURVE",
"721 1089 CURVE SMOOTH"
);
},
{
closed = 1;
nodes = (
"1286 182 OFFCURVE",
"1245 105 OFFCURVE",
"1169 105 CURVE SMOOTH",
"1090 105 OFFCURVE",
"1054 181 OFFCURVE",
"1054 381 CURVE SMOOTH",
"1054 565 OFFCURVE",
"1092 640 OFFCURVE",
"1169 640 CURVE SMOOTH",
"1250 640 OFFCURVE",
"1286 566 OFFCURVE",
"1286 366 CURVE SMOOTH"
);
},
{
closed = 1;
nodes = (
"1496 652 OFFCURVE",
"1359 770 OFFCURVE",
"1174 770 CURVE SMOOTH",
"990 770 OFFCURVE",
"844 650 OFFCURVE",
"844 368 CURVE SMOOTH",
"844 86 OFFCURVE",
"980 -25 OFFCURVE",
"1165 -25 CURVE SMOOTH",
"1350 -25 OFFCURVE",
"1496 84 OFFCURVE",
"1496 379 CURVE SMOOTH"
);
}
);
width = 1565;
}
);
unicode = 0025;
},
{
glyphname = Ampersand;
layers = (
{
layerId = "227CFDA3-9046-4C35-BCA7-2E12199138C9";
paths = (
{
closed = 1;
nodes = (
"331 1485 OFFCURVE",
"155 1412 OFFCURVE",
"155 1190 CURVE SMOOTH",
"155 1010 OFFCURVE",
"362 815 OFFCURVE",
"535 570 CURVE SMOOTH",
"794 202 OFFCURVE",
"973 -25 OFFCURVE",
"1025 -25 CURVE SMOOTH",
"1060 -25 OFFCURVE",
"1138 38 OFFCURVE",
"1175 70 CURVE",
"1080 110 OFFCURVE",
"914 297 OFFCURVE",
"650 680 CURVE SMOOTH",
"494 906 OFFCURVE",
"315 1075 OFFCURVE",
"315 1200 CURVE SMOOTH",
"315 1291 OFFCURVE",
"398 1350 OFFCURVE",
"475 1350 CURVE SMOOTH",
"555 1350 OFFCURVE",
"630 1294 OFFCURVE",
"630 1205 CURVE SMOOTH",
"630 1116 OFFCURVE",
"523 1001 OFFCURVE",
"350 840 CURVE SMOOTH",
"146 651 OFFCURVE",
"55 527 OFFCURVE",
"55 375 CURVE SMOOTH",
"55 151 OFFCURVE",
"217 -25 OFFCURVE",
"440 -25 CURVE SMOOTH",
"713 -25 OFFCURVE",
"1002 274 OFFCURVE",
"1080 435 CURVE",
"975 570 LINE",
"911 403 OFFCURVE",
"630 150 OFFCURVE",
"455 150 CURVE SMOOTH",
"310 150 OFFCURVE",
"230 267 OFFCURVE",
"230 380 CURVE SMOOTH",
"230 490 OFFCURVE",
"296 587 OFFCURVE",
"470 740 CURVE SMOOTH",
"651 899 OFFCURVE",
"790 1068 OFFCURVE",
"790 1200 CURVE SMOOTH",
"790 1382 OFFCURVE",
"642 1485 OFFCURVE",
"490 1485 CURVE SMOOTH"
);
}
);
width = 1222;
},
{
layerId = "B46047BD-989B-43B8-9078-123A6A2C0348";
paths = (
{
closed = 1;
nodes = (
"996 433 OFFCURVE",
"715 190 OFFCURVE",
"540 190 CURVE SMOOTH",
"425 190 OFFCURVE",
"335 257 OFFCURVE",
"335 370 CURVE SMOOTH",
"335 480 OFFCURVE",
"411 547 OFFCURVE",
"585 700 CURVE SMOOTH",
"766 859 OFFCURVE",
"925 1048 OFFCURVE",
"925 1190 CURVE SMOOTH",
"925 1372 OFFCURVE",
"777 1485 OFFCURVE",
"575 1485 CURVE SMOOTH",
"366 1485 OFFCURVE",
"190 1372 OFFCURVE",
"190 1160 CURVE SMOOTH",
"190 1000 OFFCURVE",
"407 785 OFFCURVE",
"590 540 CURVE SMOOTH",
"859 179 OFFCURVE",
"1038 -25 OFFCURVE",
"1090 -25 CURVE SMOOTH",
"1125 -25 OFFCURVE",
"1253 58 OFFCURVE",
"1290 90 CURVE",
"1195 130 OFFCURVE",
"1060 305 OFFCURVE",
"785 680 CURVE SMOOTH",
"619 906 OFFCURVE",
"420 1085 OFFCURVE",
"420 1170 CURVE SMOOTH",
"420 1241 OFFCURVE",
"483 1310 OFFCURVE",
"560 1310 CURVE SMOOTH",
"640 1310 OFFCURVE",
"695 1254 OFFCURVE",
"695 1175 CURVE SMOOTH",
"695 1106 OFFCURVE",
"628 1001 OFFCURVE",
"455 840 CURVE SMOOTH",
"251 651 OFFCURVE",
"90 527 OFFCURVE",
"90 344 CURVE SMOOTH",
"90 121 OFFCURVE",
"242 -25 OFFCURVE",
"525 -25 CURVE SMOOTH",
"808 -25 OFFCURVE",
"1117 264 OFFCURVE",
"1195 425 CURVE",
"1060 600 LINE"
);
}
);
width = 1355;
}
);
unicode = 0026;
},
{
glyphname = Apos;
layers = (
{
layerId = "227CFDA3-9046-4C35-BCA7-2E12199138C9";
paths = (
{
closed = 1;
nodes = (
"370 1186 OFFCURVE",
"376 1339 OFFCURVE",
"405 1585 CURVE",
"200 1585 LINE",
"231 1339 OFFCURVE",
"236 1186 OFFCURVE",
"240 1045 CURVE",
"365 1045 LINE"
);
}
);
width = 605;
},
{
layerId = "B46047BD-989B-43B8-9078-123A6A2C0348";
paths = (
{
closed = 1;
nodes = (
"405 1186 OFFCURVE",
"406 1339 OFFCURVE",
"435 1585 CURVE",
"190 1585 LINE",
"221 1339 OFFCURVE",
"221 1186 OFFCURVE",
"225 1045 CURVE",
"400 1045 LINE"
);
}
);
width = 625;
}
);
unicode = 0027;
},
{
glyphname = LftParen;
layers = (
{
layerId = "227CFDA3-9046-4C35-BCA7-2E12199138C9";
paths = (
{
closed = 1;
nodes = (
"115 218 OFFCURVE",
"260 -125 OFFCURVE",
"535 -410 CURVE",
"630 -265 LINE",
"395 -8 OFFCURVE",
"305 278 OFFCURVE",
"305 625 CURVE SMOOTH",
"305 982 OFFCURVE",
"395 1280 OFFCURVE",
"630 1485 CURVE",
"555 1640 LINE",
"290 1444 OFFCURVE",
"115 1062 OFFCURVE",
"115 625 CURVE SMOOTH"
);
}
);
width = 795;
},
{
layerId = "B46047BD-989B-43B8-9078-123A6A2C0348";
paths = (
{
closed = 1;
nodes = (
"290 1444 OFFCURVE",
"115 1062 OFFCURVE",
"115 625 CURVE SMOOTH",
"115 218 OFFCURVE",
"260 -125 OFFCURVE",
"535 -410 CURVE",
"686 -240 LINE",
"462 11 OFFCURVE",
"376 335 OFFCURVE",
"376 635 CURVE SMOOTH",
"376 938 OFFCURVE",
"466 1261 OFFCURVE",
"676 1455 CURVE",
"555 1640 LINE"
);
}
);
width = 860;
}
);
unicode = 0028;
},
{
glyphname = RtParen;
layers = (
{
layerId = "227CFDA3-9046-4C35-BCA7-2E12199138C9";
paths = (
{
closed = 1;
nodes = (
"680 1062 OFFCURVE",
"505 1444 OFFCURVE",
"240 1640 CURVE",
"165 1485 LINE",
"390 1280 OFFCURVE",
"490 962 OFFCURVE",
"490 625 CURVE SMOOTH",
"490 278 OFFCURVE",
"390 -8 OFFCURVE",
"165 -265 CURVE",
"260 -410 LINE",
"535 -125 OFFCURVE",
"680 218 OFFCURVE",
"680 625 CURVE SMOOTH"
);
}
);
width = 795;
},
{
layerId = "B46047BD-989B-43B8-9078-123A6A2C0348";
paths = (
{
closed = 1;
nodes = (
"395 1261 OFFCURVE",
"485 938 OFFCURVE",
"485 635 CURVE SMOOTH",
"485 335 OFFCURVE",
"399 11 OFFCURVE",
"175 -240 CURVE",
"326 -410 LINE",
"601 -125 OFFCURVE",
"746 218 OFFCURVE",
"746 625 CURVE SMOOTH",
"746 1062 OFFCURVE",
"571 1444 OFFCURVE",
"306 1640 CURVE",
"185 1455 LINE"
);
}
);
width = 860;
}
);
unicode = 0029;
},
{
glyphname = Asterisk;
layers = (
{
layerId = "227CFDA3-9046-4C35-BCA7-2E12199138C9";
paths = (
{
closed = 1;
nodes = (
"415 1600 LINE",
"434 1467 OFFCURVE",
"447 1387 OFFCURVE",
"450 1300 CURVE",
"376 1344 OFFCURVE",
"309 1387 OFFCURVE",
"200 1465 CURVE",
"125 1340 LINE",
"250 1290 OFFCURVE",
"327 1261 OFFCURVE",
"405 1220 CURVE",
"329 1177 OFFCURVE",
"256 1140 OFFCURVE",
"135 1085 CURVE",
"205 960 LINE",
"310 1042 OFFCURVE",
"377 1094 OFFCURVE",
"450 1140 CURVE",
"448 1055 OFFCURVE",
"442 973 OFFCURVE",
"430 840 CURVE",
"570 840 LINE",
"550 973 OFFCURVE",
"544 1052 OFFCURVE",
"540 1140 CURVE",
"614 1095 OFFCURVE",
"681 1053 OFFCURVE",
"790 975 CURVE",
"865 1100 LINE",
"739 1149 OFFCURVE",
"663 1179 OFFCURVE",
"585 1220 CURVE",
"661 1261 OFFCURVE",
"733 1299 OFFCURVE",
"855 1355 CURVE",
"785 1480 LINE",
"680 1396 OFFCURVE",
"614 1348 OFFCURVE",
"540 1300 CURVE",
"541 1387 OFFCURVE",
"547 1467 OFFCURVE",
"560 1600 CURVE"
);
}
);
width = 1028;
},
{
layerId = "B46047BD-989B-43B8-9078-123A6A2C0348";
paths = (
{
closed = 1;
nodes = (
"747 1426 OFFCURVE",
"679 1367 OFFCURVE",
"594 1308 CURVE",
"599 1405 OFFCURVE",
"609 1486 OFFCURVE",
"624 1600 CURVE",
"425 1600 LINE",
"444 1497 OFFCURVE",
"460 1412 OFFCURVE",
"468 1308 CURVE",
"383 1360 OFFCURVE",
"312 1408 OFFCURVE",
"228 1476 CURVE",
"126 1306 LINE",
"231 1271 OFFCURVE",
"331 1234 OFFCURVE",
"412 1196 CURVE",
"328 1153 OFFCURVE",
"243 1120 OFFCURVE",
"136 1077 CURVE",
"237 897 LINE",
"316 968 OFFCURVE",
"382 1026 OFFCURVE",
"466 1087 CURVE",
"459 983 OFFCURVE",
"449 896 OFFCURVE",
"431 793 CURVE",
"632 793 LINE",
"610 906 OFFCURVE",
"602 987 OFFCURVE",
"593 1084 CURVE",
"682 1027 OFFCURVE",
"747 981 OFFCURVE",
"830 914 CURVE",
"936 1089 LINE",
"827 1127 OFFCURVE",
"743 1155 OFFCURVE",
"651 1196 CURVE",
"738 1241 OFFCURVE",
"820 1277 OFFCURVE",
"924 1321 CURVE",
"827 1493 LINE"
);
}
);
width = 1040;
}
);
unicode = 002A;
},
{
glyphname = PlusSgn;
layers = (
{
layerId = "227CFDA3-9046-4C35-BCA7-2E12199138C9";
paths = (
{
closed = 1;
nodes = (
"525 285 LINE",
"675 285 LINE",
"675 1180 LINE",
"525 1180 LINE"
);
},
{
closed = 1;
nodes = (
"1045 660 LINE",
"1045 810 LINE",
"155 810 LINE",
"155 660 LINE"
);
}
);
width = 1200;
},
{
layerId = "B46047BD-989B-43B8-9078-123A6A2C0348";
paths = (
{
closed = 1;
nodes = (
"495 285 LINE",
"705 285 LINE",
"705 1180 LINE",
"495 1180 LINE"
);
},
{
closed = 1;
nodes = (
"1045 630 LINE",
"1045 840 LINE",
"155 840 LINE",
"155 630 LINE"
);
}
);
width = 1200;
}
);
unicode = 002B;
},
{
glyphname = Comma;
layers = (
{
layerId = "227CFDA3-9046-4C35-BCA7-2E12199138C9";
paths = (
{
closed = 1;
nodes = (
"325 50 LINE",
"325 -51 OFFCURVE",
"248 -172 OFFCURVE",
"190 -230 CURVE",
"290 -270 LINE",
"407 -160 OFFCURVE",
"465 -37 OFFCURVE",
"465 85 CURVE SMOOTH",
"465 186 OFFCURVE",
"400 250 OFFCURVE",
"320 250 CURVE SMOOTH",
"263 250 OFFCURVE",
"198 213 OFFCURVE",
"185 150 CURVE",
"185 50 LINE"
);
}
);
width = 650;
},
{
layerId = "B46047BD-989B-43B8-9078-123A6A2C0348";
paths = (
{
closed = 1;
nodes = (
"345 50 LINE",
"345 -34 OFFCURVE",
"290 -153 OFFCURVE",
"185 -265 CURVE",
"330 -335 LINE",
"454 -228 OFFCURVE",
"560 -49 OFFCURVE",
"560 130 CURVE SMOOTH",
"560 254 OFFCURVE",
"489 340 OFFCURVE",
"375 340 CURVE SMOOTH",
"262 340 OFFCURVE",
"185 255 OFFCURVE",
"185 180 CURVE SMOOTH",
"185 50 LINE"
);
}
);
width = 665;
}
);
unicode = 002C;
},
{
glyphname = HyphenMinus;
layers = (
{
anchors = (
{
name = U;
position = "{430, 1100}";
}
);
layerId = "227CFDA3-9046-4C35-BCA7-2E12199138C9";
paths = (
{
closed = 1;
nodes = (
"780 555 LINE",
"780 705 LINE",
"80 705 LINE",
"80 555 LINE"
);
}
);
width = 860;
},
{
anchors = (
{
name = U;
position = "{450, 1100}";
}
);
layerId = "B46047BD-989B-43B8-9078-123A6A2C0348";
paths = (
{
closed = 1;
nodes = (
"815 525 LINE",
"815 735 LINE",
"80 735 LINE",
"80 525 LINE"
);
}
);
width = 895;
}
);
unicode = 002D;
},
{
glyphname = FullStop;
layers = (
{
layerId = "227CFDA3-9046-4C35-BCA7-2E12199138C9";
paths = (
{
closed = 1;
nodes = (
"185 36 OFFCURVE",
"246 -25 OFFCURVE",
"320 -25 CURVE SMOOTH",
"394 -25 OFFCURVE",
"455 36 OFFCURVE",
"455 110 CURVE SMOOTH",
"455 184 OFFCURVE",
"394 245 OFFCURVE",
"320 245 CURVE SMOOTH",
"246 245 OFFCURVE",
"185 184 OFFCURVE",
"185 110 CURVE SMOOTH"
);
}
);
width = 640;
},
{
layerId = "B46047BD-989B-43B8-9078-123A6A2C0348";
paths = (
{
closed = 1;
nodes = (
"200 46 OFFCURVE",
"274 -25 OFFCURVE",
"375 -25 CURVE SMOOTH",
"477 -25 OFFCURVE",
"550 46 OFFCURVE",
"550 150 CURVE SMOOTH",
"550 252 OFFCURVE",
"477 325 OFFCURVE",
"375 325 CURVE SMOOTH",
"274 325 OFFCURVE",
"200 252 OFFCURVE",
"200 150 CURVE SMOOTH"
);
}
);
width = 710;
}
);
unicode = 002E;
},
{
glyphname = Solidus;
layers = (
{
layerId = "227CFDA3-9046-4C35-BCA7-2E12199138C9";
paths = (
{
closed = 1;
nodes = (
"10 -245 LINE",
"160 -245 LINE",
"990 1600 LINE",
"840 1600 LINE"
);
}
);
width = 1000;
},
{
layerId = "B46047BD-989B-43B8-9078-123A6A2C0348";
paths = (
{
closed = 1;
nodes = (
"10 -245 LINE",
"240 -245 LINE",
"1070 1600 LINE",
"840 1600 LINE"
);
}
);
width = 1080;
}
);
unicode = 002F;
},
{
glyphname = DigitZero;
layers = (
{
anchors = (
{
name = L;
position = "{605, -100}";
},
{
name = U;
position = "{605, 1530}";
}
);
layerId = "227CFDA3-9046-4C35-BCA7-2E12199138C9";
paths = (
{
closed = 1;
nodes = (
"910 308 OFFCURVE",
"792 145 OFFCURVE",
"600 145 CURVE SMOOTH",
"402 145 OFFCURVE",
"290 305 OFFCURVE",
"290 745 CURVE SMOOTH",
"290 1153 OFFCURVE",
"407 1315 OFFCURVE",
"600 1315 CURVE SMOOTH",
"802 1315 OFFCURVE",
"910 1156 OFFCURVE",
"910 715 CURVE SMOOTH"
);
},
{
closed = 1;
nodes = (
"1110 1286 OFFCURVE",
"900 1485 OFFCURVE",
"610 1485 CURVE SMOOTH",
"321 1485 OFFCURVE",
"90 1283 OFFCURVE",
"90 720 CURVE SMOOTH",
"90 155 OFFCURVE",
"301 -25 OFFCURVE",
"590 -25 CURVE SMOOTH",
"881 -25 OFFCURVE",
"1110 151 OFFCURVE",
"1110 740 CURVE SMOOTH"
);
}
);
width = 1200;
},
{
anchors = (
{
name = L;
position = "{605, -100}";
},
{
name = U;
position = "{605, 1530}";
}
);
layerId = "B46047BD-989B-43B8-9078-123A6A2C0348";
paths = (
{
closed = 1;
nodes = (
"850 368 OFFCURVE",
"762 205 OFFCURVE",
"600 205 CURVE SMOOTH",
"432 205 OFFCURVE",
"350 375 OFFCURVE",
"350 745 CURVE SMOOTH",
"350 1093 OFFCURVE",
"437 1255 OFFCURVE",
"600 1255 CURVE SMOOTH",
"772 1255 OFFCURVE",
"850 1086 OFFCURVE",
"850 715 CURVE SMOOTH"
);
},
{
closed = 1;
nodes = (
"1135 1286 OFFCURVE",
"950 1485 OFFCURVE",
"610 1485 CURVE SMOOTH",
"291 1485 OFFCURVE",
"65 1283 OFFCURVE",
"65 720 CURVE SMOOTH",
"65 165 OFFCURVE",
"271 -25 OFFCURVE",
"590 -25 CURVE SMOOTH",
"911 -25 OFFCURVE",
"1135 161 OFFCURVE",
"1135 740 CURVE SMOOTH"
);
}
);
width = 1200;
}
);
unicode = 0030;
},
{
glyphname = DigitOne;
layers = (
{
anchors = (
{
name = L;
position = "{600, -100}";
},
{
name = U;
position = "{600, 1530}";
}
);
layerId = "227CFDA3-9046-4C35-BCA7-2E12199138C9";
paths = (
{
closed = 1;
nodes = (
"220 170 LINE",
"220 0 LINE",
"1040 0 LINE",
"1040 170 LINE",
"725 170 LINE",
"725 1480 LINE",
"555 1480 LINE",
"210 1268 LINE",
"235 1088 LINE",
"535 1260 LINE",
"535 170 LINE"
);
}
);
width = 1200;
},
{
anchors = (
{
name = L;
position = "{600, -100}";
},
{
name = U;
position = "{600, 1530}";
}
);
layerId = "B46047BD-989B-43B8-9078-123A6A2C0348";
paths = (
{
closed = 1;
nodes = (
"1075 235 LINE",
"767 235 LINE",
"767 1460 LINE",
"492 1460 LINE",
"177 1278 LINE",
"212 1018 LINE",
"492 1170 LINE",
"492 235 LINE",
"185 235 LINE",
"185 0 LINE",
"1075 0 LINE"
);
}
);
width = 1200;
}
);
unicode = 0031;
},
{
glyphname = DigitTwo;
layers = (
{
anchors = (
{
name = L;
position = "{600, -100}";
},
{
name = U;
position = "{560, 1530}";
}
);
layerId = "227CFDA3-9046-4C35-BCA7-2E12199138C9";
paths = (
{
closed = 1;
nodes = (
"1000 166 OFFCURVE",
"842 165 OFFCURVE",
"645 165 CURVE SMOOTH",
"390 165 LINE",
"609 352 OFFCURVE",
"1010 729 OFFCURVE",
"1010 1065 CURVE SMOOTH",
"1010 1323 OFFCURVE",
"800 1485 OFFCURVE",
"560 1485 CURVE SMOOTH",
"391 1485 OFFCURVE",
"206 1402 OFFCURVE",
"125 1290 CURVE",
"170 1120 LINE",
"259 1228 OFFCURVE",
"402 1305 OFFCURVE",
"525 1305 CURVE SMOOTH",
"668 1305 OFFCURVE",
"810 1233 OFFCURVE",
"810 1045 CURVE SMOOTH",
"810 768 OFFCURVE",
"391 365 OFFCURVE",
"120 170 CURVE",
"120 0 LINE",
"1080 0 LINE",
"1080 180 LINE"
);
}
);
width = 1200;
},
{
anchors = (
{
name = L;
position = "{600, -100}";
},
{
name = U;
position = "{560, 1530}";
}
);
layerId = "B46047BD-989B-43B8-9078-123A6A2C0348";
paths = (
{
closed = 1;
nodes = (
"1010 246 OFFCURVE",
"942 245 OFFCURVE",
"745 245 CURVE SMOOTH",
"480 245 LINE",
"699 422 OFFCURVE",
"1046 739 OFFCURVE",
"1046 1065 CURVE SMOOTH",
"1046 1323 OFFCURVE",
"850 1485 OFFCURVE",
"560 1485 CURVE SMOOTH",
"391 1485 OFFCURVE",
"196 1402 OFFCURVE",
"105 1290 CURVE",
"170 1050 LINE",
"259 1158 OFFCURVE",
"412 1235 OFFCURVE",
"535 1235 CURVE SMOOTH",
"688 1235 OFFCURVE",
"758 1133 OFFCURVE",
"758 1015 CURVE SMOOTH",
"758 758 OFFCURVE",
"381 415 OFFCURVE",
"110 220 CURVE",
"110 0 LINE",
"1090 0 LINE",
"1090 260 LINE"
);
}
);
width = 1200;
}
);
unicode = 0032;
},
{
glyphname = DigitThree;
layers = (
{
anchors = (
{
name = L;
position = "{600, -100}";
},
{
name = U;
position = "{600, 1530}";
}
);
layerId = "227CFDA3-9046-4C35-BCA7-2E12199138C9";
paths = (
{
closed = 1;
nodes = (
"410 700 LINE",
"480 700 LINE",
"716 700 OFFCURVE",
"895 588 OFFCURVE",
"895 425 CURVE SMOOTH",
"895 241 OFFCURVE",
"718 150 OFFCURVE",
"565 150 CURVE SMOOTH",
"385 150 OFFCURVE",
"244 232 OFFCURVE",
"135 355 CURVE",
"110 140 LINE",
"215 42 OFFCURVE",
"368 -25 OFFCURVE",
"545 -25 CURVE SMOOTH",
"834 -25 OFFCURVE",
"1090 170 OFFCURVE",
"1090 405 CURVE SMOOTH",
"1090 672 OFFCURVE",
"862 776 OFFCURVE",
"720 800 CURVE",
"862 829 OFFCURVE",
"1040 957 OFFCURVE",
"1040 1140 CURVE SMOOTH",
"1040 1354 OFFCURVE",
"828 1485 OFFCURVE",
"580 1485 CURVE",
"413 1485 OFFCURVE",
"260 1416 OFFCURVE",
"180 1325 CURVE",
"215 1155 LINE",
"328 1271 OFFCURVE",
"436 1310 OFFCURVE",
"590 1310 CURVE SMOOTH",
"711 1310 OFFCURVE",
"850 1250 OFFCURVE",
"850 1115 CURVE SMOOTH",
"850 991 OFFCURVE",
"679 870 OFFCURVE",
"480 870 CURVE",
"410 870 LINE"
);
}
);
width = 1200;
},
{
anchors = (
{
name = L;
position = "{600, -100}";
},
{
name = U;
position = "{600, 1530}";
}
);
layerId = "B46047BD-989B-43B8-9078-123A6A2C0348";
paths = (
{
closed = 1;
nodes = (
"390 645 LINE",
"480 645 LINE SMOOTH",
"706 645 OFFCURVE",
"835 548 OFFCURVE",
"835 425 CURVE SMOOTH",
"835 291 OFFCURVE",
"708 210 OFFCURVE",
"565 210 CURVE SMOOTH",
"405 210 OFFCURVE",
"244 282 OFFCURVE",
"135 405 CURVE",
"100 130 LINE",
"205 32 OFFCURVE",
"368 -25 OFFCURVE",
"545 -25 CURVE SMOOTH",
"874 -25 OFFCURVE",
"1120 170 OFFCURVE",
"1120 405 CURVE SMOOTH",
"1120 672 OFFCURVE",
"892 756 OFFCURVE",
"750 780 CURVE",
"892 809 OFFCURVE",
"1070 957 OFFCURVE",
"1070 1140 CURVE SMOOTH",
"1070 1354 OFFCURVE",
"868 1485 OFFCURVE",
"580 1485 CURVE SMOOTH",
"413 1485 OFFCURVE",
"240 1416 OFFCURVE",
"160 1325 CURVE",
"195 1095 LINE",
"308 1211 OFFCURVE",
"436 1250 OFFCURVE",
"590 1250 CURVE SMOOTH",
"689 1250 OFFCURVE",
"791 1193 OFFCURVE",
"791 1102 CURVE SMOOTH",
"791 994 OFFCURVE",
"662 885 OFFCURVE",
"480 885 CURVE SMOOTH",
"390 885 LINE"
);
}
);
width = 1200;
}
);
unicode = 0033;
},
{
glyphname = DigitFour;
layers = (
{
anchors = (
{
name = L;
position = "{607, -100}";
},
{
name = U;
position = "{607, 1530}";
}
);
layerId = "227CFDA3-9046-4C35-BCA7-2E12199138C9";
paths = (
{
closed = 1;
nodes = (
"1125 550 LINE",
"935 550 LINE",
"935 1480 LINE",
"745 1480 LINE",
"90 550 LINE",
"90 395 LINE",
"745 395 LINE",
"745 0 LINE",
"935 0 LINE",
"935 395 LINE",
"1125 395 LINE"
);
},
{
closed = 1;
nodes = (
"745 550 LINE",
"263 550 LINE",
"745 1230 LINE"
);
}
);
width = 1200;
},
{
anchors = (
{
name = L;
position = "{607, -100}";
},
{
name = U;
position = "{607, 1530}";
}
);
layerId = "B46047BD-989B-43B8-9078-123A6A2C0348";
paths = (
{
closed = 1;
nodes = (
"1155 570 LINE",
"995 570 LINE",
"995 1460 LINE",
"695 1460 LINE",
"60 570 LINE",
"60 345 LINE",
"730 345 LINE",
"730 0 LINE",
"995 0 LINE",
"995 345 LINE",
"1155 345 LINE"
);
},
{
closed = 1;
nodes = (
"730 570 LINE",
"305 570 LINE",
"730 1145 LINE"
);
}
);
width = 1200;
}
);
unicode = 0034;
},
{
glyphname = DigitFive;
layers = (
{
anchors = (
{
name = L;
position = "{600, -100}";
},
{
name = U;
position = "{600, 1530}";
}
);
layerId = "227CFDA3-9046-4C35-BCA7-2E12199138C9";
paths = (
{
closed = 1;
nodes = (
"319 733 OFFCURVE",
"404 750 OFFCURVE",
"510 750 CURVE SMOOTH",
"670 750 OFFCURVE",
"870 672 OFFCURVE",
"870 470 CURVE SMOOTH",
"870 268 OFFCURVE",
"730 155 OFFCURVE",
"530 155 CURVE SMOOTH",
"390 155 OFFCURVE",
"294 182 OFFCURVE",
"160 290 CURVE",
"130 80 LINE",
"255 2 OFFCURVE",
"363 -25 OFFCURVE",
"518 -25 CURVE SMOOTH",
"831 -25 OFFCURVE",
"1060 163 OFFCURVE",
"1060 475 CURVE SMOOTH",
"1060 742 OFFCURVE",
"832 930 OFFCURVE",
"545 930 CURVE SMOOTH",
"472 930 OFFCURVE",
"411 924 OFFCURVE",
"380 920 CURVE",
"380 1290 LINE",
"765 1290 LINE",
"849 1290 OFFCURVE",
"925 1286 OFFCURVE",
"1000 1270 CURVE",
"1000 1460 LINE",
"195 1460 LINE",
"195 685 LINE"
);
}
);
width = 1200;
},
{
anchors = (
{
name = L;
position = "{600, -100}";
},
{
name = U;
position = "{600, 1530}";
}
);
layerId = "B46047BD-989B-43B8-9078-123A6A2C0348";
paths = (
{
closed = 1;
nodes = (
"299 693 OFFCURVE",
"404 710 OFFCURVE",
"510 710 CURVE SMOOTH",
"670 710 OFFCURVE",
"810 632 OFFCURVE",
"810 470 CURVE SMOOTH",
"810 318 OFFCURVE",
"690 215 OFFCURVE",
"530 215 CURVE SMOOTH",
"390 215 OFFCURVE",
"274 252 OFFCURVE",
"140 360 CURVE",
"100 80 LINE",
"225 2 OFFCURVE",
"365 -25 OFFCURVE",
"520 -25 CURVE SMOOTH",
"833 -25 OFFCURVE",
"1090 163 OFFCURVE",
"1090 475 CURVE SMOOTH",
"1090 752 OFFCURVE",
"882 930 OFFCURVE",
"605 930 CURVE SMOOTH",
"543 930 OFFCURVE",
"468 911 OFFCURVE",
"435 895 CURVE",
"435 1215 LINE",
"765 1215 LINE SMOOTH",
"849 1215 OFFCURVE",
"955 1211 OFFCURVE",
"1030 1195 CURVE",
"1030 1460 LINE",
"175 1460 LINE",
"175 645 LINE"
);
}
);
width = 1200;
}
);
unicode = 0035;
},
{
glyphname = DigitSix;
layers = (
{
anchors = (
{
name = L;
position = "{600, -100}";
},
{
name = U;
position = "{600, 1530}";
}
);
layerId = "227CFDA3-9046-4C35-BCA7-2E12199138C9";
paths = (
{
closed = 1;
nodes = (
"929 1465 OFFCURVE",
"843 1485 OFFCURVE",
"725 1485 CURVE SMOOTH",
"250 1485 OFFCURVE",
"110 1049 OFFCURVE",
"110 680 CURVE SMOOTH",
"110 242 OFFCURVE",
"290 -25 OFFCURVE",
"600 -25 CURVE SMOOTH",
"907 -25 OFFCURVE",
"1115 166 OFFCURVE",
"1115 470 CURVE SMOOTH",
"1115 719 OFFCURVE",
"943 895 OFFCURVE",
"665 895 CURVE SMOOTH",
"474 895 OFFCURVE",
"328 780 OFFCURVE",
"215 625 CURVE",
"280 550 LINE",
"362 653 OFFCURVE",
"490 720 OFFCURVE",
"645 720 CURVE SMOOTH",
"824 720 OFFCURVE",
"920 611 OFFCURVE",
"920 435 CURVE SMOOTH",
"920 275 OFFCURVE",
"806 150 OFFCURVE",
"630 150 CURVE SMOOTH",
"409 150 OFFCURVE",
"305 393 OFFCURVE",
"305 645 CURVE SMOOTH",
"305 1132 OFFCURVE",
"478 1310 OFFCURVE",
"715 1310 CURVE SMOOTH",
"811 1310 OFFCURVE",
"903 1286 OFFCURVE",
"989 1200 CURVE",
"1033 1395 LINE"
);
}
);
width = 1200;
},
{
anchors = (
{
name = L;
position = "{610, -100}";
},
{
name = U;
position = "{610, 1530}";
}
);
layerId = "B46047BD-989B-43B8-9078-123A6A2C0348";
paths = (
{
closed = 1;
nodes = (
"969 1465 OFFCURVE",
"873 1485 OFFCURVE",
"735 1485 CURVE SMOOTH",
"260 1485 OFFCURVE",
"90 1069 OFFCURVE",
"90 680 CURVE SMOOTH",
"90 223 OFFCURVE",
"297 -25 OFFCURVE",
"652 -25 CURVE SMOOTH",
"955 -25 OFFCURVE",
"1155 179 OFFCURVE",
"1155 470 CURVE SMOOTH",
"1155 729 OFFCURVE",
"963 925 OFFCURVE",
"675 925 CURVE SMOOTH",
"484 925 OFFCURVE",
"338 810 OFFCURVE",
"225 655 CURVE",
"290 540 LINE",
"372 643 OFFCURVE",
"500 710 OFFCURVE",
"655 710 CURVE SMOOTH",
"814 710 OFFCURVE",
"900 601 OFFCURVE",
"900 455 CURVE SMOOTH",
"900 329 OFFCURVE",
"803 210 OFFCURVE",
"656 210 CURVE SMOOTH",
"474 210 OFFCURVE",
"355 386 OFFCURVE",
"355 645 CURVE SMOOTH",
"355 1132 OFFCURVE",
"528 1250 OFFCURVE",
"725 1250 CURVE SMOOTH",
"821 1250 OFFCURVE",
"923 1226 OFFCURVE",
"1009 1140 CURVE",
"1073 1395 LINE"
);
}
);
width = 1200;
}
);
unicode = 0036;
},
{
glyphname = DigitSeven;
layers = (
{
anchors = (
{
name = L;
position = "{600, -100}";
},
{
name = U;
position = "{600, 1530}";
}
);
layerId = "227CFDA3-9046-4C35-BCA7-2E12199138C9";
paths = (
{
closed = 1;
nodes = (
"589 459 OFFCURVE",
"794 895 OFFCURVE",
"1090 1300 CURVE",
"1090 1460 LINE",
"100 1460 LINE",
"100 1275 LINE",
"176 1291 OFFCURVE",
"292 1295 OFFCURVE",
"480 1295 CURVE SMOOTH",
"870 1295 LINE",
"612 912 OFFCURVE",
"439 566 OFFCURVE",
"275 0 CURVE",
"460 0 LINE"
);
}
);
width = 1200;
},
{
anchors = (
{
name = L;
position = "{600, -100}";
},
{
name = U;
position = "{600, 1530}";
}
);
layerId = "B46047BD-989B-43B8-9078-123A6A2C0348";
paths = (
{
closed = 1;
nodes = (
"649 459 OFFCURVE",
"834 855 OFFCURVE",
"1130 1260 CURVE",
"1130 1460 LINE",
"100 1460 LINE",
"100 1195 LINE",
"176 1211 OFFCURVE",
"292 1215 OFFCURVE",
"480 1215 CURVE SMOOTH",
"800 1215 LINE",
"542 842 OFFCURVE",
"409 566 OFFCURVE",
"235 0 CURVE",
"520 0 LINE"
);
}
);
width = 1200;
}
);
unicode = 0037;
},
{
glyphname = DigitEight;
layers = (
{
anchors = (
{
name = L;
position = "{600, -100}";
},
{
name = U;
position = "{600, 1530}";
}
);
layerId = "227CFDA3-9046-4C35-BCA7-2E12199138C9";
paths = (
{
closed = 1;
nodes = (
"857 -25 OFFCURVE",
"1110 134 OFFCURVE",
"1110 405 CURVE SMOOTH",
"1110 611 OFFCURVE",
"965 739 OFFCURVE",
"855 795 CURVE",
"933 844 OFFCURVE",
"1050 923 OFFCURVE",
"1050 1105 CURVE SMOOTH",
"1050 1350 OFFCURVE",
"840 1485 OFFCURVE",
"610 1485 CURVE SMOOTH",
"381 1485 OFFCURVE",
"150 1350 OFFCURVE",
"150 1105 CURVE SMOOTH",
"150 923 OFFCURVE",
"272 838 OFFCURVE",
"350 795 CURVE",
"221 725 OFFCURVE",
"90 611 OFFCURVE",
"90 405 CURVE SMOOTH",
"90 134 OFFCURVE",
"344 -25 OFFCURVE",
"600 -25 CURVE SMOOTH"
);
},
{
closed = 1;
nodes = (
"860 949 OFFCURVE",
"743 865 OFFCURVE",
"600 865 CURVE SMOOTH",
"457 865 OFFCURVE",
"340 949 OFFCURVE",
"340 1105 CURVE SMOOTH",
"340 1252 OFFCURVE",
"457 1325 OFFCURVE",
"600 1325 CURVE SMOOTH",
"743 1325 OFFCURVE",
"860 1252 OFFCURVE",
"860 1105 CURVE SMOOTH"
);
},
{
closed = 1;
nodes = (
"910 250 OFFCURVE",
"778 145 OFFCURVE",
"600 145 CURVE SMOOTH",
"420 145 OFFCURVE",
"290 250 OFFCURVE",
"290 425 CURVE SMOOTH",
"290 592 OFFCURVE",
"420 710 OFFCURVE",
"600 710 CURVE SMOOTH",
"778 710 OFFCURVE",
"910 592 OFFCURVE",
"910 425 CURVE SMOOTH"
);
}
);
width = 1200;
},
{
anchors = (
{
name = L;
position = "{600, -100}";
},
{
name = U;
position = "{600, 1530}";
}
);
layerId = "B46047BD-989B-43B8-9078-123A6A2C0348";
paths = (
{
closed = 1;
nodes = (
"877 -25 OFFCURVE",
"1130 144 OFFCURVE",
"1130 415 CURVE SMOOTH",
"1130 641 OFFCURVE",
"985 739 OFFCURVE",
"875 795 CURVE",
"953 841 OFFCURVE",
"1060 923 OFFCURVE",
"1060 1105 CURVE SMOOTH",
"1060 1350 OFFCURVE",
"860 1485 OFFCURVE",
"610 1485 CURVE SMOOTH",
"361 1485 OFFCURVE",
"140 1350 OFFCURVE",
"140 1105 CURVE SMOOTH",
"140 923 OFFCURVE",
"252 838 OFFCURVE",
"330 795 CURVE",
"201 725 OFFCURVE",
"70 631 OFFCURVE",
"70 405 CURVE SMOOTH",
"70 134 OFFCURVE",
"324 -25 OFFCURVE",
"600 -25 CURVE SMOOTH"
);
},
{
closed = 1;
nodes = (
"810 974 OFFCURVE",
"733 895 OFFCURVE",
"600 895 CURVE SMOOTH",
"467 895 OFFCURVE",
"390 974 OFFCURVE",
"390 1100 CURVE SMOOTH",
"390 1217 OFFCURVE",
"477 1290 OFFCURVE",
"600 1290 CURVE SMOOTH",
"743 1290 OFFCURVE",
"810 1207 OFFCURVE",
"810 1100 CURVE SMOOTH"
);
},
{
closed = 1;
nodes = (
"865 300 OFFCURVE",
"768 185 OFFCURVE",
"600 185 CURVE SMOOTH",
"440 185 OFFCURVE",
"335 300 OFFCURVE",
"335 435 CURVE SMOOTH",
"335 582 OFFCURVE",
"450 680 OFFCURVE",
"600 680 CURVE SMOOTH",
"748 680 OFFCURVE",
"865 582 OFFCURVE",
"865 435 CURVE SMOOTH"
);
}
);
width = 1200;
}
);
unicode = 0038;
},
{
glyphname = DigitNine;
layers = (
{
anchors = (
{
name = L;
position = "{600, -100}";
},
{
name = U;
position = "{600, 1530}";
}
);
layerId = "227CFDA3-9046-4C35-BCA7-2E12199138C9";
paths = (
{
closed = 1;
nodes = (
"297 -5 OFFCURVE",
"383 -25 OFFCURVE",
"501 -25 CURVE SMOOTH",
"976 -25 OFFCURVE",
"1114 411 OFFCURVE",
"1114 780 CURVE SMOOTH",
"1114 1198 OFFCURVE",
"926 1485 OFFCURVE",
"616 1485 CURVE SMOOTH",
"349 1485 OFFCURVE",
"112 1306 OFFCURVE",
"112 1002 CURVE SMOOTH",
"112 773 OFFCURVE",
"281 586 OFFCURVE",
"559 586 CURVE SMOOTH",
"750 586 OFFCURVE",
"922 717 OFFCURVE",
"1019 878 CURVE",
"948 961 LINE",
"874 847 OFFCURVE",
"738 760 OFFCURVE",
"583 760 CURVE SMOOTH",
"424 760 OFFCURVE",
"306 860 OFFCURVE",
"306 1036 CURVE SMOOTH",
"306 1196 OFFCURVE",
"420 1310 OFFCURVE",
"596 1310 CURVE SMOOTH",
"837 1310 OFFCURVE",
"919 1065 OFFCURVE",
"919 813 CURVE SMOOTH",
"919 326 OFFCURVE",
"748 150 OFFCURVE",
"511 150 CURVE SMOOTH",
"415 150 OFFCURVE",
"323 174 OFFCURVE",
"237 260 CURVE",
"193 65 LINE"
);
}
);
width = 1200;
},
{
anchors = (
{
name = L;
position = "{600, -100}";
},
{
name = U;
position = "{600, 1530}";
}
);
layerId = "B46047BD-989B-43B8-9078-123A6A2C0348";
paths = (
{
closed = 1;
nodes = (
"248 5 OFFCURVE",
"364 -25 OFFCURVE",
"492 -25 CURVE SMOOTH",
"967 -25 OFFCURVE",
"1135 411 OFFCURVE",
"1135 780 CURVE SMOOTH",
"1135 1150 OFFCURVE",
"977 1485 OFFCURVE",
"589 1485 CURVE SMOOTH",
"310 1485 OFFCURVE",
"70 1300 OFFCURVE",
"70 1002 CURVE SMOOTH",
"70 763 OFFCURVE",
"272 576 OFFCURVE",
"550 576 CURVE SMOOTH",
"741 576 OFFCURVE",
"913 707 OFFCURVE",
"1010 868 CURVE",
"939 991 LINE",
"865 877 OFFCURVE",
"729 790 OFFCURVE",
"574 790 CURVE SMOOTH",
"425 790 OFFCURVE",
"326 890 OFFCURVE",
"326 1036 CURVE SMOOTH",
"326 1153 OFFCURVE",
"425 1250 OFFCURVE",
"573 1250 CURVE SMOOTH",
"773 1250 OFFCURVE",
"870 1102 OFFCURVE",
"870 813 CURVE SMOOTH",
"870 326 OFFCURVE",
"699 210 OFFCURVE",
"502 210 CURVE SMOOTH",
"406 210 OFFCURVE",
"294 234 OFFCURVE",
"208 320 CURVE",
"154 65 LINE"
);
}
);
width = 1200;
}
);
unicode = 0039;
},
{
glyphname = Colon;
layers = (
{
layerId = "227CFDA3-9046-4C35-BCA7-2E12199138C9";
paths = (
{
closed = 1;
nodes = (
"185 716 OFFCURVE",
"246 655 OFFCURVE",
"320 655 CURVE SMOOTH",
"394 655 OFFCURVE",
"455 716 OFFCURVE",
"455 790 CURVE SMOOTH",
"455 864 OFFCURVE",
"394 925 OFFCURVE",
"320 925 CURVE SMOOTH",
"246 925 OFFCURVE",
"185 864 OFFCURVE",
"185 790 CURVE SMOOTH"
);
},
{
closed = 1;
nodes = (
"185 36 OFFCURVE",
"246 -25 OFFCURVE",
"320 -25 CURVE SMOOTH",
"394 -25 OFFCURVE",
"455 36 OFFCURVE",
"455 110 CURVE SMOOTH",
"455 184 OFFCURVE",
"394 245 OFFCURVE",
"320 245 CURVE SMOOTH",
"246 245 OFFCURVE",
"185 184 OFFCURVE",
"185 110 CURVE SMOOTH"
);
}
);
width = 640;
},
{
layerId = "B46047BD-989B-43B8-9078-123A6A2C0348";
paths = (
{
closed = 1;
nodes = (
"200 46 OFFCURVE",
"274 -25 OFFCURVE",
"375 -25 CURVE SMOOTH",
"477 -25 OFFCURVE",
"550 46 OFFCURVE",
"550 150 CURVE SMOOTH",
"550 252 OFFCURVE",
"477 325 OFFCURVE",
"375 325 CURVE SMOOTH",
"274 325 OFFCURVE",
"200 252 OFFCURVE",
"200 150 CURVE SMOOTH"
);
},
{
closed = 1;
nodes = (
"200 646 OFFCURVE",
"274 575 OFFCURVE",
"375 575 CURVE SMOOTH",
"477 575 OFFCURVE",
"550 646 OFFCURVE",
"550 750 CURVE SMOOTH",
"550 852 OFFCURVE",
"477 925 OFFCURVE",
"375 925 CURVE SMOOTH",
"274 925 OFFCURVE",
"200 852 OFFCURVE",
"200 750 CURVE SMOOTH"
);
}
);
width = 710;
}
);
unicode = 003A;
},
{
glyphname = Semicolon;
layers = (
{
layerId = "227CFDA3-9046-4C35-BCA7-2E12199138C9";
paths = (
{
closed = 1;
nodes = (
"185 716 OFFCURVE",
"246 655 OFFCURVE",
"320 655 CURVE SMOOTH",
"394 655 OFFCURVE",
"455 716 OFFCURVE",
"455 790 CURVE SMOOTH",
"455 864 OFFCURVE",
"394 925 OFFCURVE",
"320 925 CURVE SMOOTH",
"246 925 OFFCURVE",
"185 864 OFFCURVE",
"185 790 CURVE SMOOTH"
);
},
{
closed = 1;
nodes = (
"325 50 LINE",
"325 -51 OFFCURVE",
"248 -172 OFFCURVE",
"190 -230 CURVE",
"290 -270 LINE",
"407 -160 OFFCURVE",
"465 -37 OFFCURVE",
"465 85 CURVE SMOOTH",
"465 186 OFFCURVE",
"400 250 OFFCURVE",
"320 250 CURVE SMOOTH",
"263 250 OFFCURVE",
"198 213 OFFCURVE",
"185 150 CURVE",
"185 50 LINE"
);
}
);
width = 650;
},
{
layerId = "B46047BD-989B-43B8-9078-123A6A2C0348";
paths = (
{
closed = 1;
nodes = (
"200 646 OFFCURVE",
"274 575 OFFCURVE",
"375 575 CURVE SMOOTH",
"477 575 OFFCURVE",
"550 646 OFFCURVE",
"550 750 CURVE SMOOTH",
"550 852 OFFCURVE",
"477 925 OFFCURVE",
"375 925 CURVE SMOOTH",
"274 925 OFFCURVE",
"200 852 OFFCURVE",
"200 750 CURVE SMOOTH"
);
},
{
closed = 1;
nodes = (
"345 50 LINE",
"345 -34 OFFCURVE",
"290 -153 OFFCURVE",
"185 -265 CURVE",
"330 -335 LINE",
"454 -228 OFFCURVE",
"560 -49 OFFCURVE",
"560 130 CURVE SMOOTH",
"560 254 OFFCURVE",
"489 340 OFFCURVE",
"375 340 CURVE SMOOTH",
"262 340 OFFCURVE",
"185 255 OFFCURVE",
"185 180 CURVE SMOOTH",
"185 50 LINE"
);
}
);
width = 710;
}
);
unicode = 003B;
},
{
glyphname = LTSgn;
layers = (
{
layerId = "227CFDA3-9046-4C35-BCA7-2E12199138C9";
paths = (
{
closed = 1;
nodes = (
"290 730 LINE",
"1080 1035 LINE",
"1080 1215 LINE",
"100 815 LINE",
"100 645 LINE",
"1080 245 LINE",
"1080 425 LINE"
);
}
);
width = 1200;
},
{
layerId = "B46047BD-989B-43B8-9078-123A6A2C0348";
paths = (
{
closed = 1;
nodes = (
"390 730 LINE",
"1070 985 LINE",
"1070 1215 LINE",
"110 825 LINE",
"110 635 LINE",
"1070 245 LINE",
"1070 475 LINE"
);
}
);
width = 1200;
}
);
unicode = 003C;
},
{
glyphname = EqSgn;
layers = (
{
layerId = "227CFDA3-9046-4C35-BCA7-2E12199138C9";
paths = (
{
closed = 1;
nodes = (
"1080 480 LINE",
"1080 630 LINE",
"120 630 LINE",
"120 480 LINE"
);
},
{
closed = 1;
nodes = (
"1080 830 LINE",
"1080 980 LINE",
"120 980 LINE",
"120 830 LINE"
);
}
);
width = 1200;
},
{
layerId = "B46047BD-989B-43B8-9078-123A6A2C0348";
paths = (
{
closed = 1;
nodes = (
"1080 440 LINE",
"1080 650 LINE",
"120 650 LINE",
"120 440 LINE"
);
},
{
closed = 1;
nodes = (
"1080 810 LINE",
"1080 1020 LINE",
"120 1020 LINE",
"120 810 LINE"
);
}
);
width = 1200;
}
);
unicode = 003D;
},
{
glyphname = GTSgn;
layers = (
{
layerId = "227CFDA3-9046-4C35-BCA7-2E12199138C9";
paths = (
{
closed = 1;
nodes = (
"910 730 LINE",
"120 425 LINE",
"120 245 LINE",
"1100 645 LINE",
"1100 815 LINE",
"120 1215 LINE",
"120 1035 LINE"
);
}
);
width = 1200;
},
{
layerId = "B46047BD-989B-43B8-9078-123A6A2C0348";
paths = (
{
closed = 1;
nodes = (
"1090 635 LINE",
"1090 825 LINE",
"130 1215 LINE",
"130 985 LINE",
"810 730 LINE",
"130 475 LINE",
"130 245 LINE"
);
}
);
width = 1200;
}
);
unicode = 003E;
},
{
glyphname = QstnMrk;
layers = (
{
layerId = "227CFDA3-9046-4C35-BCA7-2E12199138C9";
paths = (
{
closed = 1;
nodes = (
"335 1540 OFFCURVE",
"206 1493 OFFCURVE",
"140 1430 CURVE",
"185 1251 LINE",
"261 1330 OFFCURVE",
"352 1365 OFFCURVE",
"432 1365 CURVE SMOOTH",
"579 1365 OFFCURVE",
"625 1289 OFFCURVE",
"625 1230 CURVE SMOOTH",
"625 1159 OFFCURVE",
"572 1092 OFFCURVE",
"485 980 CURVE SMOOTH",
"397 867 OFFCURVE",
"355 730 OFFCURVE",
"355 440 CURVE",
"540 440 LINE",
"540 721 OFFCURVE",
"561 806 OFFCURVE",
"665 927 CURVE SMOOTH",
"753 1028 OFFCURVE",
"830 1117 OFFCURVE",
"830 1240 CURVE SMOOTH",
"830 1422 OFFCURVE",
"697 1540 OFFCURVE",
"460 1540 CURVE SMOOTH"
);
},
{
closed = 1;
nodes = (
"315 36 OFFCURVE",
"376 -25 OFFCURVE",
"450 -25 CURVE SMOOTH",
"524 -25 OFFCURVE",
"585 36 OFFCURVE",
"585 110 CURVE SMOOTH",
"585 184 OFFCURVE",
"524 245 OFFCURVE",
"450 245 CURVE SMOOTH",
"376 245 OFFCURVE",
"315 184 OFFCURVE",
"315 110 CURVE SMOOTH"
);
}
);
width = 1050;
},
{
layerId = "B46047BD-989B-43B8-9078-123A6A2C0348";
paths = (
{
closed = 1;
nodes = (
"640 671 OFFCURVE",
"668 805 OFFCURVE",
"767 956 CURVE SMOOTH",
"837 1063 OFFCURVE",
"900 1117 OFFCURVE",
"900 1220 CURVE SMOOTH",
"900 1402 OFFCURVE",
"757 1540 OFFCURVE",
"500 1540 CURVE SMOOTH",
"355 1540 OFFCURVE",
"206 1470 OFFCURVE",
"140 1407 CURVE",
"185 1168 LINE",
"261 1247 OFFCURVE",
"372 1295 OFFCURVE",
"472 1295 CURVE SMOOTH",
"569 1295 OFFCURVE",
"615 1249 OFFCURVE",
"615 1190 CURVE SMOOTH",
"615 1139 OFFCURVE",
"565 1096 OFFCURVE",
"495 980 CURVE SMOOTH",
"434 879 OFFCURVE",
"375 710 OFFCURVE",
"375 500 CURVE",
"640 500 LINE"
);
},
{
closed = 1;
nodes = (
"335 46 OFFCURVE",
"409 -25 OFFCURVE",
"510 -25 CURVE SMOOTH",
"612 -25 OFFCURVE",
"685 46 OFFCURVE",
"685 150 CURVE SMOOTH",
"685 252 OFFCURVE",
"612 325 OFFCURVE",
"510 325 CURVE SMOOTH",
"409 325 OFFCURVE",
"335 252 OFFCURVE",
"335 150 CURVE SMOOTH"
);
}
);
width = 1090;
}
);
unicode = 003F;
},
{
glyphname = AtSgn;
layers = (
{
layerId = "227CFDA3-9046-4C35-BCA7-2E12199138C9";
paths = (
{
closed = 1;
nodes = (
"1605 1127 OFFCURVE",
"1307 1405 OFFCURVE",
"880 1405 CURVE SMOOTH",
"465 1405 OFFCURVE",
"95 1126 OFFCURVE",
"95 575 CURVE SMOOTH",
"95 48 OFFCURVE",
"464 -235 OFFCURVE",
"855 -235 CURVE SMOOTH",
"990 -235 OFFCURVE",
"1150 -188 OFFCURVE",
"1250 -118 CURVE",
"1145 -10 LINE",
"1058 -70 OFFCURVE",
"963 -95 OFFCURVE",
"870 -95 CURVE SMOOTH",
"523 -95 OFFCURVE",
"240 174 OFFCURVE",
"240 605 CURVE SMOOTH",
"240 1003 OFFCURVE",
"542 1270 OFFCURVE",
"870 1270 CURVE SMOOTH",
"1263 1270 OFFCURVE",
"1465 1002 OFFCURVE",
"1465 670 CURVE SMOOTH",
"1465 432 OFFCURVE",
"1348 315 OFFCURVE",
"1280 315 CURVE SMOOTH",
"1221 315 OFFCURVE",
"1175 410 OFFCURVE",
"1175 630 CURVE SMOOTH",
"1175 980 LINE",
"1088 1015 OFFCURVE",
"961 1040 OFFCURVE",
"880 1040 CURVE SMOOTH",
"716 1040 OFFCURVE",
"613 971 OFFCURVE",
"530 835 CURVE SMOOTH",
"483 756 OFFCURVE",
"455 653 OFFCURVE",
"455 530 CURVE SMOOTH",
"455 294 OFFCURVE",
"601 183 OFFCURVE",
"735 183 CURVE SMOOTH",
"852 183 OFFCURVE",
"988 366 OFFCURVE",
"1040 490 CURVE",
"1050 322 OFFCURVE",
"1128 180 OFFCURVE",
"1250 180 CURVE SMOOTH",
"1425 180 OFFCURVE",
"1605 368 OFFCURVE",
"1605 700 CURVE SMOOTH"
);
},
{
closed = 1;
nodes = (
"924 905 OFFCURVE",
"992 886 OFFCURVE",
"1025 870 CURVE",
"1025 720 LINE",
"993 582 OFFCURVE",
"838 320 OFFCURVE",
"748 320 CURVE SMOOTH",
"676 320 OFFCURVE",
"605 398 OFFCURVE",
"605 575 CURVE SMOOTH",
"605 652 OFFCURVE",
"621 731 OFFCURVE",
"650 780 CURVE SMOOTH",
"706 876 OFFCURVE",
"782 905 OFFCURVE",
"850 905 CURVE SMOOTH"
);
}
);
width = 1702;
},
{
layerId = "B46047BD-989B-43B8-9078-123A6A2C0348";
paths = (
{
closed = 1;
nodes = (
"1077 -34 OFFCURVE",
"988 -60 OFFCURVE",
"895 -60 CURVE SMOOTH",
"558 -60 OFFCURVE",
"290 204 OFFCURVE",
"290 605 CURVE SMOOTH",
"290 973 OFFCURVE",
"557 1240 OFFCURVE",
"895 1240 CURVE SMOOTH",
"1278 1240 OFFCURVE",
"1460 992 OFFCURVE",
"1460 670 CURVE SMOOTH",
"1460 452 OFFCURVE",
"1363 335 OFFCURVE",
"1305 335 CURVE SMOOTH",
"1256 335 OFFCURVE",
"1220 430 OFFCURVE",
"1220 650 CURVE SMOOTH",
"1220 980 LINE",
"1133 1015 OFFCURVE",
"986 1040 OFFCURVE",
"905 1040 CURVE SMOOTH",
"741 1040 OFFCURVE",
"618 961 OFFCURVE",
"535 825 CURVE SMOOTH",
"488 746 OFFCURVE",
"460 653 OFFCURVE",
"460 530 CURVE SMOOTH",
"460 304 OFFCURVE",
"606 163 OFFCURVE",
"740 163 CURVE SMOOTH",
"867 163 OFFCURVE",
"1013 331 OFFCURVE",
"1065 455 CURVE",
"1075 287 OFFCURVE",
"1153 160 OFFCURVE",
"1275 160 CURVE SMOOTH",
"1450 160 OFFCURVE",
"1650 358 OFFCURVE",
"1650 700 CURVE SMOOTH",
"1650 1137 OFFCURVE",
"1342 1425 OFFCURVE",
"905 1425 CURVE SMOOTH",
"480 1425 OFFCURVE",
"90 1136 OFFCURVE",
"90 575 CURVE SMOOTH",
"90 38 OFFCURVE",
"479 -245 OFFCURVE",
"880 -245 CURVE SMOOTH",
"1015 -245 OFFCURVE",
"1175 -198 OFFCURVE",
"1275 -128 CURVE",
"1140 10 LINE"
);
},
{
closed = 1;
nodes = (
"988 572 OFFCURVE",
"863 350 OFFCURVE",
"773 350 CURVE SMOOTH",
"701 350 OFFCURVE",
"660 428 OFFCURVE",
"660 575 CURVE SMOOTH",
"660 652 OFFCURVE",
"682 737 OFFCURVE",
"720 786 CURVE SMOOTH",
"756 831 OFFCURVE",
"807 855 OFFCURVE",
"875 855 CURVE SMOOTH",
"949 855 OFFCURVE",
"987 836 OFFCURVE",
"1020 820 CURVE",
"1020 710 LINE"
);
}
);
width = 1742;
}
);
unicode = 0040;
},
{
glyphname = LtnCapA;
layers = (
{
anchors = (
{
name = H;
position = "{707, 0}";
},
{
name = L;
position = "{687, -100}";
},
{
name = O;
position = "{1450, 0}";
},
{
name = U;
position = "{687, 1530}";
}
);
layerId = "227CFDA3-9046-4C35-BCA7-2E12199138C9";
paths = (
{
closed = 1;
nodes = (
"379 385 LINE",
"994 385 LINE",
"1130 0 LINE",
"1335 0 LINE",
"1300 80 OFFCURVE",
"1262 169 OFFCURVE",
"1195 355 CURVE SMOOTH",
"795 1460 LINE",
"580 1460 LINE",
"180 355 LINE SMOOTH",
"112 168 OFFCURVE",
"76 81 OFFCURVE",
"40 0 CURVE",
"245 0 LINE"
);
},
{
closed = 1;
nodes = (
"433 540 LINE",
"685 1265 LINE",
"940 540 LINE"
);
}
);
width = 1395;
},
{
anchors = (
{
name = H;
position = "{1275, 0}";
},
{
name = L;
position = "{732, -100}";
},
{
name = O;
position = "{1495, 0}";
},
{
name = U;
position = "{732, 1530}";
}
);
layerId = "B46047BD-989B-43B8-9078-123A6A2C0348";
paths = (
{
closed = 1;
nodes = (
"1408 0 LINE",
"1373 80 OFFCURVE",
"1341 168 OFFCURVE",
"1278 355 CURVE SMOOTH",
"908 1460 LINE",
"552 1460 LINE",
"182 355 LINE SMOOTH",
"119 166 OFFCURVE",
"88 81 OFFCURVE",
"52 0 CURVE",
"350 0 LINE",
"460 355 LINE",
"1004 355 LINE",
"1115 0 LINE"
);
},
{
closed = 1;
nodes = (
"936 570 LINE",
"526 570 LINE",
"730 1228 LINE"
);
}
);
width = 1485;
}
);
unicode = 0041;
},
{
glyphname = LtnCapB;
layers = (
{
anchors = (
{
name = L;
position = "{615, -100}";
},
{
name = U;
position = "{615, 1530}";
}
);
layerId = "227CFDA3-9046-4C35-BCA7-2E12199138C9";
paths = (
{
closed = 1;
nodes = (
"407 1312 OFFCURVE",
"512 1315 OFFCURVE",
"590 1315 CURVE SMOOTH",
"791 1315 OFFCURVE",
"870 1239 OFFCURVE",
"870 1090 CURVE SMOOTH",
"870 951 OFFCURVE",
"774 855 OFFCURVE",
"560 855 CURVE SMOOTH",
"365 855 LINE",
"365 1310 LINE"
);
},
{
closed = 1;
nodes = (
"175 257 OFFCURVE",
"175 80 OFFCURVE",
"160 0 CURVE",
"213 -5 OFFCURVE",
"402 -10 OFFCURVE",
"605 -10 CURVE SMOOTH",
"988 -10 OFFCURVE",
"1140 177 OFFCURVE",
"1140 420 CURVE SMOOTH",
"1140 669 OFFCURVE",
"974 759 OFFCURVE",
"820 800 CURVE",
"956 852 OFFCURVE",
"1065 952 OFFCURVE",
"1065 1120 CURVE SMOOTH",
"1065 1381 OFFCURVE",
"897 1470 OFFCURVE",
"600 1470 CURVE SMOOTH",
"431 1470 OFFCURVE",
"248 1466 OFFCURVE",
"160 1460 CURVE",
"175 1380 OFFCURVE",
"175 1196 OFFCURVE",
"175 1000 CURVE SMOOTH",
"175 455 LINE"
);
},
{
closed = 1;
nodes = (
"600 700 LINE SMOOTH",
"833 700 OFFCURVE",
"945 604 OFFCURVE",
"945 420 CURVE SMOOTH",
"945 212 OFFCURVE",
"781 150 OFFCURVE",
"610 150 CURVE SMOOTH",
"498 150 OFFCURVE",
"402 153 OFFCURVE",
"365 155 CURVE",
"365 700 LINE"
);
}
);
width = 1285;
},
{
anchors = (
{
name = L;
position = "{670, -100}";
},
{
name = U;
position = "{670, 1530}";
}
);
layerId = "B46047BD-989B-43B8-9078-123A6A2C0348";
paths = (
{
closed = 1;
nodes = (
"487 1250 OFFCURVE",
"562 1253 OFFCURVE",
"631 1253 CURVE SMOOTH",
"818 1253 OFFCURVE",
"897 1196 OFFCURVE",
"897 1077 CURVE SMOOTH",
"897 951 OFFCURVE",
"794 875 OFFCURVE",
"605 875 CURVE SMOOTH",
"450 875 LINE",
"450 1248 LINE"
);
},
{
closed = 1;
nodes = (
"1245 672 OFFCURVE",
"1084 760 OFFCURVE",
"935 800 CURVE",
"1065 850 OFFCURVE",
"1170 947 OFFCURVE",
"1170 1110 CURVE SMOOTH",
"1170 1378 OFFCURVE",
"937 1470 OFFCURVE",
"615 1470 CURVE SMOOTH",
"422 1470 OFFCURVE",
"248 1466 OFFCURVE",
"150 1460 CURVE",
"165 1380 OFFCURVE",
"165 1196 OFFCURVE",
"165 1000 CURVE SMOOTH",
"165 455 LINE SMOOTH",
"165 257 OFFCURVE",
"165 80 OFFCURVE",
"150 0 CURVE",
"150 0 OFFCURVE",
"401 -10 OFFCURVE",
"631 -10 CURVE SMOOTH",
"1055 -10 OFFCURVE",
"1245 181 OFFCURVE",
"1245 430 CURVE SMOOTH"
);
},
{
closed = 1;
nodes = (
"643 658 LINE SMOOTH",
"853 658 OFFCURVE",
"972 587 OFFCURVE",
"972 450 CURVE SMOOTH",
"972 269 OFFCURVE",
"826 215 OFFCURVE",
"652 215 CURVE SMOOTH",
"552 215 OFFCURVE",
"483 218 OFFCURVE",
"450 220 CURVE",
"450 658 LINE"
);
}
);
width = 1385;
}
);
unicode = 0042;
},
{
glyphname = LtnCapC;
layers = (
{
anchors = (
{
name = H;
position = "{750, 0}";
},
{
name = L;
position = "{750, -100}";
},
{
name = U;
position = "{750, 1530}";
}
);
layerId = "227CFDA3-9046-4C35-BCA7-2E12199138C9";
paths = (
{
closed = 1;
nodes = (
"1078 223 OFFCURVE",
"912 150 OFFCURVE",
"760 150 CURVE SMOOTH",
"489 150 OFFCURVE",
"290 376 OFFCURVE",
"290 735 CURVE SMOOTH",
"290 1119 OFFCURVE",
"491 1315 OFFCURVE",
"770 1315 CURVE SMOOTH",
"891 1315 OFFCURVE",
"1030 1278 OFFCURVE",
"1155 1165 CURVE",
"1215 1345 LINE",
"1072 1452 OFFCURVE",
"913 1485 OFFCURVE",
"770 1485 CURVE SMOOTH",
"418 1485 OFFCURVE",
"95 1225 OFFCURVE",
"95 710 CURVE SMOOTH",
"95 260 OFFCURVE",
"346 -25 OFFCURVE",
"750 -25 CURVE SMOOTH",
"902 -25 OFFCURVE",
"1114 32 OFFCURVE",
"1230 140 CURVE",
"1190 335 LINE"
);
}
);
width = 1355;
},
{
anchors = (
{
name = H;
position = "{745, 0}";
},
{
name = L;
position = "{745, -100}";
},
{
name = U;
position = "{745, 1530}";
}
);
layerId = "B46047BD-989B-43B8-9078-123A6A2C0348";
paths = (
{
closed = 1;
nodes = (
"1105 293 OFFCURVE",
"940 220 OFFCURVE",
"790 220 CURVE SMOOTH",
"531 220 OFFCURVE",
"375 413 OFFCURVE",
"375 735 CURVE SMOOTH",
"375 1074 OFFCURVE",
"557 1245 OFFCURVE",
"800 1245 CURVE SMOOTH",
"931 1245 OFFCURVE",
"1053 1205 OFFCURVE",
"1180 1105 CURVE",
"1250 1345 LINE",
"1106 1449 OFFCURVE",
"969 1485 OFFCURVE",
"785 1485 CURVE SMOOTH",
"413 1485 OFFCURVE",
"90 1225 OFFCURVE",
"90 710 CURVE SMOOTH",
"90 260 OFFCURVE",
"341 -25 OFFCURVE",
"755 -25 CURVE SMOOTH",
"926 -25 OFFCURVE",
"1142 42 OFFCURVE",
"1265 140 CURVE",
"1215 405 LINE"
);
}
);
width = 1385;
}
);
unicode = 0043;
},
{
glyphname = LtnCapD;
layers = (
{
anchors = (
{
name = L;
position = "{715, -100}";
},
{
name = U;
position = "{715, 1530}";
}
);
layerId = "227CFDA3-9046-4C35-BCA7-2E12199138C9";
paths = (
{
closed = 1;
nodes = (
"174 257 OFFCURVE",
"175 80 OFFCURVE",
"160 0 CURVE",
"160 0 OFFCURVE",
"467 -10 OFFCURVE",
"595 -10 CURVE SMOOTH",
"888 -10 OFFCURVE",
"1315 145 OFFCURVE",
"1315 740 CURVE SMOOTH",
"1315 1394 OFFCURVE",
"829 1470 OFFCURVE",
"615 1470 CURVE SMOOTH",
"480 1470 OFFCURVE",
"245 1466 OFFCURVE",
"160 1460 CURVE",
"175 1380 OFFCURVE",
"175 1196 OFFCURVE",
"175 1000 CURVE SMOOTH",
"175 455 LINE"
);
},
{
closed = 1;
nodes = (
"415 1307 OFFCURVE",
"524 1310 OFFCURVE",
"590 1310 CURVE SMOOTH",
"878 1310 OFFCURVE",
"1120 1167 OFFCURVE",
"1120 720 CURVE SMOOTH",
"1120 308 OFFCURVE",
"853 155 OFFCURVE",
"585 155 CURVE SMOOTH",
"490 155 OFFCURVE",
"412 161 OFFCURVE",
"365 165 CURVE",
"365 1305 LINE"
);
}
);
width = 1435;
},
{
anchors = (
{
name = L;
position = "{800, -100}";
},
{
name = U;
position = "{800, 1530}";
}
);
layerId = "B46047BD-989B-43B8-9078-123A6A2C0348";
paths = (
{
closed = 1;
nodes = (
"164 257 OFFCURVE",
"165 80 OFFCURVE",
"150 0 CURVE",
"150 0 OFFCURVE",
"474 -10 OFFCURVE",
"609 -10 CURVE SMOOTH",
"919 -10 OFFCURVE",
"1370 145 OFFCURVE",
"1370 740 CURVE SMOOTH",
"1370 1374 OFFCURVE",
"906 1470 OFFCURVE",
"630 1470 CURVE SMOOTH",
"487 1470 OFFCURVE",
"239 1466 OFFCURVE",
"150 1460 CURVE",
"165 1380 OFFCURVE",
"165 1196 OFFCURVE",
"165 1000 CURVE SMOOTH",
"165 455 LINE"
);
},
{
closed = 1;
nodes = (
"492 1243 OFFCURVE",
"582 1246 OFFCURVE",
"637 1246 CURVE SMOOTH",
"897 1246 OFFCURVE",
"1078 1118 OFFCURVE",
"1078 720 CURVE SMOOTH",
"1078 357 OFFCURVE",
"856 221 OFFCURVE",
"633 221 CURVE SMOOTH",
"554 221 OFFCURVE",
"489 227 OFFCURVE",
"450 231 CURVE",
"450 1241 LINE"
);
}
);
width = 1485;
}
);
unicode = 0044;
},
{
glyphname = LtnCapE;
layers = (
{
anchors = (
{
name = H;
position = "{600, 0}";
},
{
name = L;
position = "{600, -100}";
},
{
name = O;
position = "{917, 0}";
},
{
name = R;
position = "{1160, 1200}";
},
{
name = U;
position = "{600, 1530}";
}
);
layerId = "227CFDA3-9046-4C35-BCA7-2E12199138C9";
paths = (
{
closed = 1;
nodes = (
"365 1295 LINE",
"1010 1295 LINE",
"1010 1460 LINE",
"160 1460 LINE",
"175 1380 OFFCURVE",
"175 1222 OFFCURVE",
"175 1025 CURVE SMOOTH",
"175 435 LINE SMOOTH",
"175 238 OFFCURVE",
"175 80 OFFCURVE",
"160 0 CURVE",
"1040 0 LINE",
"1040 180 LINE",
"960 166 OFFCURVE",
"826 165 OFFCURVE",
"629 165 CURVE SMOOTH",
"365 165 LINE",
"365 685 LINE",
"935 685 LINE",
"935 845 LINE",
"365 845 LINE"
);
}
);
width = 1160;
},
{
anchors = (
{
name = H;
position = "{610, 0}";
},
{
name = L;
position = "{610, -100}";
},
{
name = O;
position = "{1004, 0}";
},
{
name = R;
position = "{1247, 1200}";
},
{
name = U;
position = "{610, 1530}";
}
);
layerId = "B46047BD-989B-43B8-9078-123A6A2C0348";
paths = (
{
closed = 1;
nodes = (
"450 1230 LINE",
"1072 1230 LINE",
"1072 1460 LINE",
"150 1460 LINE",
"165 1380 OFFCURVE",
"165 1222 OFFCURVE",
"165 1025 CURVE SMOOTH",
"165 435 LINE SMOOTH",
"165 238 OFFCURVE",
"165 80 OFFCURVE",
"150 0 CURVE",
"1102 0 LINE",
"1102 245 LINE",
"1024 231 OFFCURVE",
"899 230 OFFCURVE",
"708 230 CURVE SMOOTH",
"450 230 LINE",
"450 650 LINE",
"997 650 LINE",
"997 875 LINE",
"450 875 LINE"
);
}
);
width = 1212;
}
);
unicode = 0045;
},
{
glyphname = LtnCapF;
layers = (
{
anchors = (
{
name = L;
position = "{595, -100}";
},
{
name = U;
position = "{595, 1530}";
}
);
layerId = "227CFDA3-9046-4C35-BCA7-2E12199138C9";
paths = (
{
closed = 1;
nodes = (
"365 1295 LINE",
"1030 1295 LINE",
"1030 1460 LINE",
"160 1460 LINE",
"175 1380 OFFCURVE",
"175 1217 OFFCURVE",
"175 1020 CURVE SMOOTH",
"175 435 LINE SMOOTH",
"175 238 OFFCURVE",
"175 80 OFFCURVE",
"160 0 CURVE",
"380 0 LINE",
"365 78 OFFCURVE",
"365 237 OFFCURVE",
"365 435 CURVE SMOOTH",
"365 675 LINE",
"945 675 LINE",
"945 835 LINE",
"365 835 LINE"
);
}
);
width = 1150;
},
{
anchors = (
{
name = L;
position = "{630, -100}";
},
{
name = U;
position = "{630, 1530}";
}
);
layerId = "B46047BD-989B-43B8-9078-123A6A2C0348";
paths = (
{
closed = 1;
nodes = (
"450 1230 LINE",
"1090 1230 LINE",
"1090 1460 LINE",
"150 1460 LINE",
"165 1380 OFFCURVE",
"165 1217 OFFCURVE",
"165 1020 CURVE SMOOTH",
"165 435 LINE SMOOTH",
"165 238 OFFCURVE",
"165 80 OFFCURVE",
"150 0 CURVE",
"465 0 LINE",
"450 73 OFFCURVE",
"450 222 OFFCURVE",
"450 408 CURVE SMOOTH",
"450 635 LINE",
"1005 635 LINE",
"1005 860 LINE",
"450 860 LINE"
);
}
);
width = 1200;
}
);
unicode = 0046;
},
{
glyphname = LtnCapG;
layers = (
{
anchors = (
{
name = H;
position = "{745, 0}";
},
{
name = L;
position = "{745, -100}";
},
{
name = U;
position = "{745, 1530}";
}
);
layerId = "227CFDA3-9046-4C35-BCA7-2E12199138C9";
paths = (
{
closed = 1;
nodes = (
"735 745 LINE",
"735 580 LINE",
"1085 580 LINE",
"1085 245 LINE",
"963 171 OFFCURVE",
"876 150 OFFCURVE",
"757 150 CURVE SMOOTH",
"471 150 OFFCURVE",
"290 377 OFFCURVE",
"290 745 CURVE SMOOTH",
"290 1094 OFFCURVE",
"480 1315 OFFCURVE",
"785 1315 CURVE SMOOTH",
"918 1315 OFFCURVE",
"1046 1286 OFFCURVE",
"1195 1165 CURVE",
"1260 1345 LINE",
"1085 1462 OFFCURVE",
"947 1485 OFFCURVE",
"785 1485 CURVE SMOOTH",
"402 1485 OFFCURVE",
"95 1199 OFFCURVE",
"95 720 CURVE SMOOTH",
"95 241 OFFCURVE",
"367 -25 OFFCURVE",
"745 -25 CURVE SMOOTH",
"918 -25 OFFCURVE",
"1070 11 OFFCURVE",
"1275 155 CURVE",
"1275 745 LINE"
);
}
);
width = 1420;
},
{
anchors = (
{
name = H;
position = "{807, 0}";
},
{
name = L;
position = "{807, -100}";
},
{
name = U;
position = "{807, 1530}";
}
);
layerId = "B46047BD-989B-43B8-9078-123A6A2C0348";
paths = (
{
closed = 1;
nodes = (
"767 785 LINE",
"767 560 LINE",
"1082 560 LINE",
"1082 294 LINE",
"966 236 OFFCURVE",
"883 220 OFFCURVE",
"769 220 CURVE SMOOTH",
"532 220 OFFCURVE",
"375 420 OFFCURVE",
"375 745 CURVE SMOOTH",
"375 1048 OFFCURVE",
"545 1245 OFFCURVE",
"810 1245 CURVE SMOOTH",
"953 1245 OFFCURVE",
"1097 1205 OFFCURVE",
"1236 1107 CURVE",
"1322 1345 LINE",
"1137 1462 OFFCURVE",
"989 1485 OFFCURVE",
"818 1485 CURVE SMOOTH",
"403 1485 OFFCURVE",
"90 1199 OFFCURVE",
"90 720 CURVE SMOOTH",
"90 241 OFFCURVE",
"377 -25 OFFCURVE",
"777 -25 CURVE SMOOTH",
"960 -25 OFFCURVE",
"1120 11 OFFCURVE",
"1337 155 CURVE",
"1337 785 LINE"
);
}
);
width = 1472;
}
);
unicode = 0047;
},
{
glyphname = LtnCapH;
layers = (
{
anchors = (
{
name = H;
position = "{285, 0}";
},
{
name = L;
position = "{725, -100}";
},
{
name = U;
position = "{725, 1530}";
}
);
layerId = "227CFDA3-9046-4C35-BCA7-2E12199138C9";
paths = (
{
closed = 1;
nodes = (
"1275 80 OFFCURVE",
"1275 238 OFFCURVE",
"1275 435 CURVE SMOOTH",
"1275 1025 LINE SMOOTH",
"1275 1222 OFFCURVE",
"1275 1380 OFFCURVE",
"1290 1460 CURVE",
"1085 1460 LINE",
"1085 835 LINE",
"365 835 LINE",
"365 1460 LINE",
"160 1460 LINE",
"175 1380 OFFCURVE",
"175 1222 OFFCURVE",
"175 1025 CURVE SMOOTH",
"175 435 LINE SMOOTH",
"175 238 OFFCURVE",
"175 80 OFFCURVE",
"160 0 CURVE",
"365 0 LINE",
"365 675 LINE",
"1085 675 LINE",
"1085 0 LINE",
"1290 0 LINE"
);
}
);
width = 1475;
},
{
anchors = (
{
name = H;
position = "{305, 0}";
},
{
name = L;
position = "{745, -100}";
},
{
name = U;
position = "{745, 1530}";
}
);
layerId = "B46047BD-989B-43B8-9078-123A6A2C0348";
paths = (
{
closed = 1;
nodes = (
"1040 860 LINE",
"450 860 LINE",
"450 1460 LINE",
"150 1460 LINE",
"165 1380 OFFCURVE",
"165 1227 OFFCURVE",
"165 1030 CURVE SMOOTH",
"165 430 LINE SMOOTH",
"165 233 OFFCURVE",
"165 80 OFFCURVE",
"150 0 CURVE",
"150 0 OFFCURVE",
"450 0 OFFCURVE",
"450 0 CURVE",
"450 635 LINE",
"1040 635 LINE",
"1040 0 LINE",
"1040 0 OFFCURVE",
"1340 0 OFFCURVE",
"1340 0 CURVE",
"1325 80 OFFCURVE",
"1325 233 OFFCURVE",
"1325 430 CURVE SMOOTH",
"1325 1030 LINE SMOOTH",
"1325 1227 OFFCURVE",
"1325 1380 OFFCURVE",
"1340 1460 CURVE",
"1040 1460 LINE"
);
}
);
width = 1515;
}
);
unicode = 0048;
},
{
glyphname = LtnCapI;
layers = (
{
anchors = (
{
name = H;
position = "{477, 0}";
},
{
name = L;
position = "{477, -100}";
},
{
name = O;
position = "{673, 0}";
},
{
name = R;
position = "{975, 1200}";
},
{
name = U;
position = "{477, 1530}";
}
);
layerId = "227CFDA3-9046-4C35-BCA7-2E12199138C9";
paths = (
{
closed = 1;
nodes = (
"140 1315 LINE",
"380 1315 LINE",
"380 145 LINE",
"140 145 LINE",
"140 0 LINE",
"815 0 LINE",
"815 145 LINE",
"570 145 LINE",
"570 1315 LINE",
"815 1315 LINE",
"815 1460 LINE",
"140 1460 LINE"
);
}
);
width = 975;
},
{
anchors = (
{
name = H;
position = "{520, 0}";
},
{
name = L;
position = "{516, -100}";
},
{
name = O;
position = "{712, 0}";
},
{
name = R;
position = "{1014, 1200}";
},
{
name = U;
position = "{520, 1530}";
}
);
layerId = "B46047BD-989B-43B8-9078-123A6A2C0348";
paths = (
{
closed = 1;
nodes = (
"130 1255 LINE",
"370 1255 LINE",
"370 205 LINE",
"130 205 LINE",
"130 0 LINE",
"895 0 LINE",
"895 205 LINE",
"655 205 LINE",
"655 1255 LINE",
"895 1255 LINE",
"895 1460 LINE",
"130 1460 LINE"
);
}
);
width = 1045;
}
);
unicode = 0049;
},
{
glyphname = LtnCapJ;
layers = (
{
anchors = (
{
name = L;
position = "{410, -100}";
},
{
name = U;
position = "{675, 1530}";
}
);
layerId = "227CFDA3-9046-4C35-BCA7-2E12199138C9";
paths = (
{
closed = 1;
nodes = (
"588 1354 OFFCURVE",
"590 1175 OFFCURVE",
"590 980 CURVE",
"590 485 LINE SMOOTH",
"590 256 OFFCURVE",
"487 155 OFFCURVE",
"340 155 CURVE SMOOTH",
"248 155 OFFCURVE",
"147 198 OFFCURVE",
"80 275 CURVE",
"35 90 LINE",
"106 9 OFFCURVE",
"250 -25 OFFCURVE",
"345 -25 CURVE SMOOTH",
"602 -25 OFFCURVE",
"780 119 OFFCURVE",
"780 535 CURVE SMOOTH",
"780 1460 LINE",
"575 1460 LINE"
);
}
);
width = 965;
},
{
anchors = (
{
name = L;
position = "{415, -100}";
},
{
name = U;
position = "{705, 1530}";
}
);
layerId = "B46047BD-989B-43B8-9078-123A6A2C0348";
paths = (
{
closed = 1;
nodes = (
"568 1354 OFFCURVE",
"570 1175 OFFCURVE",
"570 980 CURVE SMOOTH",
"570 558 LINE SMOOTH",
"570 383 OFFCURVE",
"540 227 OFFCURVE",
"365 227 CURVE SMOOTH",
"264 227 OFFCURVE",
"153 270 OFFCURVE",
"79 347 CURVE",
"30 90 LINE",
"109 9 OFFCURVE",
"258 -25 OFFCURVE",
"363 -25 CURVE SMOOTH",
"658 -25 OFFCURVE",
"855 129 OFFCURVE",
"855 535 CURVE SMOOTH",
"855 618 OFFCURVE",
"855 1460 OFFCURVE",
"855 1460 CURVE",
"555 1460 LINE"
);
}
);
width = 1030;
}
);
unicode = 004A;
},
{
glyphname = LtnCapK;
layers = (
{
anchors = (
{
name = H;
position = "{270, 0}";
},
{
name = L;
position = "{695, -100}";
},
{
name = U;
position = "{650, 1530}";
}
);
layerId = "227CFDA3-9046-4C35-BCA7-2E12199138C9";
paths = (
{
closed = 1;
nodes = (
"295 703 LINE",
"425 745 LINE",
"530 740 LINE",
"1165 1460 LINE",
"925 1460 LINE"
);
},
{
closed = 1;
nodes = (
"985 0 LINE",
"1230 0 LINE",
"485 860 LINE",
"350 735 LINE"
);
},
{
closed = 1;
nodes = (
"160 1460 LINE",
"175 1380 OFFCURVE",
"175 1222 OFFCURVE",
"175 1025 CURVE SMOOTH",
"175 435 LINE SMOOTH",
"175 238 OFFCURVE",
"175 80 OFFCURVE",
"160 0 CURVE",
"365 0 LINE",
"365 1460 LINE"
);
}
);
width = 1310;
},
{
anchors = (
{
name = H;
position = "{320, 0}";
},
{
name = L;
position = "{740, -100}";
},
{
name = U;
position = "{725, 1530}";
}
);
layerId = "B46047BD-989B-43B8-9078-123A6A2C0348";
paths = (
{
closed = 1;
nodes = (
"371 732 LINE",
"579 676 LINE",
"1280 1460 LINE",
"944 1460 LINE"
);
},
{
closed = 1;
nodes = (
"990 0 LINE",
"1360 0 LINE",
"614 829 LINE",
"389 731 LINE"
);
},
{
closed = 1;
nodes = (
"150 1460 LINE",
"165 1380 OFFCURVE",
"165 1222 OFFCURVE",
"165 1025 CURVE SMOOTH",
"165 435 LINE SMOOTH",
"165 238 OFFCURVE",
"165 80 OFFCURVE",
"150 0 CURVE",
"450 0 LINE",
"450 1460 LINE"
);
}
);
width = 1430;
}
);
unicode = 004B;
},
{
glyphname = LtnCapL;
layers = (
{
anchors = (
{
name = H;
position = "{592, 0}";
},
{
name = L;
position = "{592, -100}";
},
{
name = R;
position = "{540, 1200}";
},
{
name = U;
position = "{592, 1530}";
}
);
layerId = "227CFDA3-9046-4C35-BCA7-2E12199138C9";
paths = (
{
closed = 1;
nodes = (
"365 1460 LINE",
"160 1460 LINE",
"175 1380 OFFCURVE",
"175 1222 OFFCURVE",
"175 1025 CURVE SMOOTH",
"175 435 LINE SMOOTH",
"175 238 OFFCURVE",
"175 80 OFFCURVE",
"160 0 CURVE",
"1025 0 LINE",
"1025 180 LINE",
"945 166 OFFCURVE",
"786 165 OFFCURVE",
"589 165 CURVE SMOOTH",
"365 165 LINE"
);
}
);
width = 1080;
},
{
anchors = (
{
name = H;
position = "{620, 0}";
},
{
name = L;
position = "{620, -100}";
},
{
name = R;
position = "{650, 1200}";
},
{
name = U;
position = "{620, 1530}";
}
);
layerId = "B46047BD-989B-43B8-9078-123A6A2C0348";
paths = (
{
closed = 1;
nodes = (
"450 1460 LINE",
"150 1460 LINE",
"165 1380 OFFCURVE",
"165 1222 OFFCURVE",
"165 1025 CURVE SMOOTH",
"165 435 LINE SMOOTH",
"165 238 OFFCURVE",
"165 80 OFFCURVE",
"150 0 CURVE",
"1085 0 LINE",
"1085 245 LINE",
"1008 231 OFFCURVE",
"855 230 OFFCURVE",
"666 230 CURVE SMOOTH",
"450 230 LINE"
);
}
);
width = 1130;
}
);
unicode = 004C;
},
{
glyphname = LtnCapM;
layers = (
{
anchors = (
{
name = H;
position = "{1521, 0}";
},
{
name = L;
position = "{885, -100}";
},
{
name = U;
position = "{885, 1530}";
}
);
layerId = "227CFDA3-9046-4C35-BCA7-2E12199138C9";
paths = (
{
closed = 1;
nodes = (
"455 1460 LINE",
"285 1460 LINE",
"790 0 LINE",
"985 0 LINE",
"1487 1460 LINE",
"1320 1460 LINE",
"885 205 LINE"
);
},
{
closed = 1;
nodes = (
"230 1460 OFFCURVE",
"186 198 OFFCURVE",
"160 0 CURVE",
"345 0 LINE",
"377 1205 LINE",
"405 1460 LINE",
"230 1460 LINE"
);
},
{
closed = 1;
nodes = (
"1581 198 OFFCURVE",
"1540 1460 OFFCURVE",
"1540 1460 CURVE",
"1365 1460 LINE",
"1397 1205 LINE",
"1425 0 LINE",
"1610 0 LINE"
);
}
);
width = 1795;
},
{
anchors = (
{
name = L;
position = "{915, -100}";
},
{
name = U;
position = "{915, 1530}";
}
);
layerId = "B46047BD-989B-43B8-9078-123A6A2C0348";
paths = (
{
closed = 1;
nodes = (
"575 1460 LINE",
"315 1460 LINE",
"436 1170 LINE",
"770 0 LINE",
"1065 0 LINE",
"1397 1170 LINE",
"1517 1460 LINE",
"1260 1460 LINE",
"917 275 LINE"
);
},
{
closed = 1;
nodes = (
"220 1460 OFFCURVE",
"176 198 OFFCURVE",
"150 0 CURVE",
"420 0 LINE",
"449 1205 LINE",
"485 1460 LINE",
"220 1460 LINE"
);
},
{
closed = 1;
nodes = (
"1651 198 OFFCURVE",
"1610 1460 OFFCURVE",
"1610 1460 CURVE",
"1340 1460 LINE",
"1385 1205 LINE",
"1410 0 LINE",
"1680 0 LINE"
);
}
);
width = 1855;
}
);
unicode = 004D;
},
{
glyphname = LtnCapN;
layers = (
{
anchors = (
{
name = H;
position = "{1230, 0}";
},
{
name = L;
position = "{737, -100}";
},
{
name = U;
position = "{737, 1530}";
}
);
layerId = "227CFDA3-9046-4C35-BCA7-2E12199138C9";
paths = (
{
closed = 1;
nodes = (
"1135 0 LINE",
"1275 100 LINE",
"340 1460 LINE",
"200 1355 LINE"
);
},
{
closed = 1;
nodes = (
"1300 0 LINE",
"1300 1025 LINE SMOOTH",
"1300 1222 OFFCURVE",
"1301 1380 OFFCURVE",
"1315 1460 CURVE",
"1135 1460 LINE",
"1135 0 LINE"
);
},
{
closed = 1;
nodes = (
"160 1460 LINE",
"175 1380 OFFCURVE",
"175 1222 OFFCURVE",
"175 1025 CURVE SMOOTH",
"175 435 LINE SMOOTH",
"175 238 OFFCURVE",
"175 80 OFFCURVE",
"160 0 CURVE",
"340 0 LINE",
"340 1460 LINE"
);
}
);
width = 1500;
},
{
anchors = (
{
name = H;
position = "{1240, 0}";
},
{
name = L;
position = "{765, -100}";
},
{
name = U;
position = "{765, 1530}";
}
);
layerId = "B46047BD-989B-43B8-9078-123A6A2C0348";
paths = (
{
closed = 1;
nodes = (
"1095 0 LINE",
"1297 150 LINE",
"425 1460 LINE",
"223 1310 LINE"
);
},
{
closed = 1;
nodes = (
"1355 0 LINE",
"1355 1025 LINE SMOOTH",
"1355 1222 OFFCURVE",
"1356 1380 OFFCURVE",
"1370 1460 CURVE",
"1095 1460 LINE",
"1095 0 LINE"
);
},
{
closed = 1;
nodes = (
"150 1460 LINE",
"165 1380 OFFCURVE",
"165 1222 OFFCURVE",
"165 1025 CURVE SMOOTH",
"165 435 LINE SMOOTH",
"165 238 OFFCURVE",
"165 80 OFFCURVE",
"150 0 CURVE",
"425 0 LINE",
"425 1460 LINE"
);
}
);
width = 1545;
}
);
unicode = 004E;
},
{
glyphname = LtnCapO;
layers = (
{
anchors = (
{
name = H;
position = "{717, 0}";
},
{
name = L;
position = "{717, -100}";
},
{
name = O;
position = "{994, 0}";
},
{
name = R;
position = "{1460, 1200}";
},
{
name = U;
position = "{717, 1530}";
}
);
layerId = "227CFDA3-9046-4C35-BCA7-2E12199138C9";
paths = (
{
closed = 1;
nodes = (
"1145 360 OFFCURVE",
"965 150 OFFCURVE",
"720 150 CURVE SMOOTH",
"460 150 OFFCURVE",
"290 380 OFFCURVE",
"290 745 CURVE SMOOTH",
"290 1091 OFFCURVE",
"467 1310 OFFCURVE",
"720 1310 CURVE SMOOTH",
"974 1310 OFFCURVE",
"1145 1084 OFFCURVE",
"1145 715 CURVE SMOOTH"
);
},
{
closed = 1;
nodes = (
"1340 1219 OFFCURVE",
"1048 1485 OFFCURVE",
"730 1485 CURVE SMOOTH",
"407 1485 OFFCURVE",
"95 1199 OFFCURVE",
"95 720 CURVE SMOOTH",
"95 241 OFFCURVE",
"388 -25 OFFCURVE",
"710 -25 CURVE SMOOTH",
"1029 -25 OFFCURVE",
"1340 260 OFFCURVE",
"1340 740 CURVE SMOOTH"
);
}
);
width = 1460;
},
{
anchors = (
{
name = H;
position = "{740, 0}";
},
{
name = L;
position = "{740, -100}";
},
{
name = O;
position = "{976, 0}";
},
{
name = R;
position = "{1480, 1200}";
},
{
name = U;
position = "{740, 1530}";
}
);
layerId = "B46047BD-989B-43B8-9078-123A6A2C0348";
paths = (
{
closed = 1;
nodes = (
"1100 404 OFFCURVE",
"940 220 OFFCURVE",
"740 220 CURVE SMOOTH",
"524 220 OFFCURVE",
"375 423 OFFCURVE",
"375 745 CURVE SMOOTH",
"375 1048 OFFCURVE",
"529 1240 OFFCURVE",
"740 1240 CURVE SMOOTH",
"951 1240 OFFCURVE",
"1100 1041 OFFCURVE",
"1100 715 CURVE SMOOTH"
);
},
{
closed = 1;
nodes = (
"1385 1219 OFFCURVE",
"1091 1485 OFFCURVE",
"750 1485 CURVE SMOOTH",
"404 1485 OFFCURVE",
"90 1199 OFFCURVE",
"90 720 CURVE SMOOTH",
"90 241 OFFCURVE",
"385 -25 OFFCURVE",
"730 -25 CURVE SMOOTH",
"1072 -25 OFFCURVE",
"1385 260 OFFCURVE",
"1385 740 CURVE SMOOTH"
);
}
);
width = 1500;
}
);
unicode = 004F;
},
{
glyphname = LtnCapP;
layers = (
{
anchors = (
{
name = L;
position = "{637, -100}";
},
{
name = U;
position = "{637, 1530}";
}
);
layerId = "227CFDA3-9046-4C35-BCA7-2E12199138C9";
paths = (
{
closed = 1;
nodes = (
"430 558 OFFCURVE",
"512 555 OFFCURVE",
"585 555 CURVE SMOOTH",
"914 555 OFFCURVE",
"1115 736 OFFCURVE",
"1115 1030 CURVE SMOOTH",
"1115 1322 OFFCURVE",
"908 1470 OFFCURVE",
"585 1470 CURVE SMOOTH",
"372 1470 OFFCURVE",
"160 1460 OFFCURVE",
"160 1460 CURVE",
"175 1380 OFFCURVE",
"175 1196 OFFCURVE",
"175 1000 CURVE",
"175 435 LINE SMOOTH",
"175 238 OFFCURVE",
"175 80 OFFCURVE",
"160 0 CURVE",
"380 0 LINE",
"366 78 OFFCURVE",
"365 237 OFFCURVE",
"365 435 CURVE SMOOTH",
"365 565 LINE"
);
},
{
closed = 1;
nodes = (
"433 1308 OFFCURVE",
"481 1310 OFFCURVE",
"575 1310 CURVE SMOOTH",
"841 1310 OFFCURVE",
"925 1170 OFFCURVE",
"925 1010 CURVE SMOOTH",
"925 849 OFFCURVE",
"850 710 OFFCURVE",
"570 710 CURVE SMOOTH",
"495 710 OFFCURVE",
"428 712 OFFCURVE",
"365 720 CURVE",
"365 1305 LINE"
);
}
);
width = 1195;
},
{
anchors = (
{
name = L;
position = "{685, -100}";
},
{
name = U;
position = "{685, 1530}";
}
);
layerId = "B46047BD-989B-43B8-9078-123A6A2C0348";
paths = (
{
closed = 1;
nodes = (
"515 516 OFFCURVE",
"575 513 OFFCURVE",
"648 513 CURVE SMOOTH",
"977 513 OFFCURVE",
"1200 702 OFFCURVE",
"1200 1010 CURVE SMOOTH",
"1200 1316 OFFCURVE",
"981 1470 OFFCURVE",
"658 1470 CURVE SMOOTH",
"445 1470 OFFCURVE",
"150 1460 OFFCURVE",
"150 1460 CURVE",
"165 1380 OFFCURVE",
"165 1196 OFFCURVE",
"165 1000 CURVE SMOOTH",
"165 435 LINE SMOOTH",
"165 238 OFFCURVE",
"165 80 OFFCURVE",
"150 0 CURVE",
"465 0 LINE",
"451 78 OFFCURVE",
"450 237 OFFCURVE",
"450 435 CURVE SMOOTH",
"450 523 LINE"
);
},
{
closed = 1;
nodes = (
"506 1243 OFFCURVE",
"544 1245 OFFCURVE",
"622 1245 CURVE SMOOTH",
"833 1245 OFFCURVE",
"915 1145 OFFCURVE",
"915 1000 CURVE SMOOTH",
"915 820 OFFCURVE",
"811 730 OFFCURVE",
"618 730 CURVE SMOOTH",
"556 730 OFFCURVE",
"493 733 OFFCURVE",
"450 740 CURVE",
"450 1240 LINE"
);
}
);
width = 1275;
}
);
unicode = 0050;
},
{
glyphname = LtnCapQ;
layers = (
{
anchors = (
{
name = L;
position = "{717, -270}";
},
{
name = U;
position = "{717, 1530}";
}
);
layerId = "227CFDA3-9046-4C35-BCA7-2E12199138C9";
paths = (
{
closed = 1;
nodes = (
"1340 1219 OFFCURVE",
"1053 1485 OFFCURVE",
"730 1485 CURVE SMOOTH",
"407 1485 OFFCURVE",
"95 1199 OFFCURVE",
"95 720 CURVE SMOOTH",
"95 241 OFFCURVE",
"383 -25 OFFCURVE",
"705 -25 CURVE SMOOTH",
"767 -25 OFFCURVE",
"818 -18 OFFCURVE",
"875 0 CURVE",
"944 0 OFFCURVE",
"1236 -190 OFFCURVE",
"1320 -190 CURVE SMOOTH",
"1374 -190 OFFCURVE",
"1431 -81 OFFCURVE",
"1455 -45 CURVE",
"1321 -28 OFFCURVE",
"1205 28 OFFCURVE",
"1080 105 CURVE",
"1256 236 OFFCURVE",
"1340 479 OFFCURVE",
"1340 740 CURVE SMOOTH"
);
},
{
closed = 1;
nodes = (
"1145 360 OFFCURVE",
"965 150 OFFCURVE",
"720 150 CURVE SMOOTH",
"460 150 OFFCURVE",
"290 380 OFFCURVE",
"290 745 CURVE SMOOTH",
"290 1091 OFFCURVE",
"467 1310 OFFCURVE",
"720 1310 CURVE SMOOTH",
"974 1310 OFFCURVE",
"1145 1084 OFFCURVE",
"1145 715 CURVE SMOOTH"
);
}
);
width = 1475;
},
{
anchors = (
{
name = L;
position = "{747, -270}";
},
{
name = U;
position = "{747, 1530}";
}
);
layerId = "B46047BD-989B-43B8-9078-123A6A2C0348";
paths = (
{
closed = 1;
nodes = (
"1385 1219 OFFCURVE",
"1091 1485 OFFCURVE",
"750 1485 CURVE SMOOTH",
"404 1485 OFFCURVE",
"90 1199 OFFCURVE",
"90 720 CURVE SMOOTH",
"90 241 OFFCURVE",
"385 -25 OFFCURVE",
"730 -25 CURVE SMOOTH",
"807 -25 OFFCURVE",
"840 -23 OFFCURVE",
"889 -15 CURVE",
"958 -15 OFFCURVE",
"1266 -228 OFFCURVE",
"1350 -228 CURVE SMOOTH",
"1424 -228 OFFCURVE",
"1502 -68 OFFCURVE",
"1535 -15 CURVE",
"1394 1 OFFCURVE",
"1277 68 OFFCURVE",
"1146 142 CURVE",
"1294 283 OFFCURVE",
"1385 471 OFFCURVE",
"1385 740 CURVE SMOOTH"
);
},
{
closed = 1;
nodes = (
"1100 404 OFFCURVE",
"943 220 OFFCURVE",
"740 220 CURVE SMOOTH",
"524 220 OFFCURVE",
"375 423 OFFCURVE",
"375 745 CURVE SMOOTH",
"375 1048 OFFCURVE",
"529 1240 OFFCURVE",
"740 1240 CURVE SMOOTH",
"951 1240 OFFCURVE",
"1100 1041 OFFCURVE",
"1100 715 CURVE SMOOTH"
);
}
);
width = 1545;
}
);
unicode = 0051;
},
{
glyphname = LtnCapR;
layers = (
{
anchors = (
{
name = H;
position = "{285, 0}";
},
{
name = L;
position = "{610, -100}";
},
{
name = U;
position = "{610, 1530}";
}
);
layerId = "227CFDA3-9046-4C35-BCA7-2E12199138C9";
paths = (
{
closed = 1;
nodes = (
"620 625 LINE",
"805 625 OFFCURVE",
"1090 743 OFFCURVE",
"1090 1060 CURVE SMOOTH",
"1090 1349 OFFCURVE",
"876 1470 OFFCURVE",
"565 1470 CURVE SMOOTH",
"331 1470 OFFCURVE",
"160 1460 OFFCURVE",
"160 1460 CURVE",
"175 1380 OFFCURVE",
"175 1196 OFFCURVE",
"175 1000 CURVE SMOOTH",
"175 435 LINE",
"175 238 OFFCURVE",
"175 80 OFFCURVE",
"160 0 CURVE",
"380 0 LINE",
"366 78 OFFCURVE",
"365 238 OFFCURVE",
"365 435 CURVE",
"365 625 LINE"
);
},
{
closed = 1;
nodes = (
"418 1307 OFFCURVE",
"485 1310 OFFCURVE",
"555 1310 CURVE SMOOTH",
"800 1310 OFFCURVE",
"900 1216 OFFCURVE",
"900 1045 CURVE SMOOTH",
"900 879 OFFCURVE",
"780 780 OFFCURVE",
"555 780 CURVE",
"365 780 LINE",
"365 1305 LINE"
);
},
{
closed = 1;
nodes = (
"990 0 LINE",
"1245 0 LINE",
"1178 73 OFFCURVE",
"715 710 OFFCURVE",
"715 710 CURVE",
"561 635 LINE"
);
}
);
width = 1305;
},
{
anchors = (
{
name = H;
position = "{690, 0}";
},
{
name = L;
position = "{690, -100}";
},
{
name = U;
position = "{660, 1530}";
}
);
layerId = "B46047BD-989B-43B8-9078-123A6A2C0348";
paths = (
{
closed = 1;
nodes = (
"625 585 LINE SMOOTH",
"910 585 OFFCURVE",
"1175 723 OFFCURVE",
"1175 1040 CURVE SMOOTH",
"1175 1329 OFFCURVE",
"961 1470 OFFCURVE",
"650 1470 CURVE SMOOTH",
"416 1470 OFFCURVE",
"150 1460 OFFCURVE",
"150 1460 CURVE",
"165 1380 OFFCURVE",
"165 1196 OFFCURVE",
"165 1000 CURVE SMOOTH",
"165 435 LINE SMOOTH",
"165 238 OFFCURVE",
"165 80 OFFCURVE",
"150 0 CURVE",
"465 0 LINE",
"451 78 OFFCURVE",
"450 238 OFFCURVE",
"450 435 CURVE SMOOTH",
"450 585 LINE"
);
},
{
closed = 1;
nodes = (
"503 1243 OFFCURVE",
"537 1245 OFFCURVE",
"615 1245 CURVE SMOOTH",
"792 1245 OFFCURVE",
"890 1186 OFFCURVE",
"890 1035 CURVE SMOOTH",
"890 859 OFFCURVE",
"780 800 OFFCURVE",
"605 800 CURVE SMOOTH",
"450 800 LINE",
"450 1240 LINE"
);
},
{
closed = 1;
nodes = (
"975 0 LINE",
"1330 0 LINE",
"1263 73 OFFCURVE",
"827 687 OFFCURVE",
"827 687 CURVE",
"556 635 LINE"
);
}
);
width = 1380;
}
);
unicode = 0052;
},
{
glyphname = LtnCapS;
layers = (
{
anchors = (
{
name = H;
position = "{580, 0}";
},
{
name = L;
position = "{580, -100}";
},
{
name = U;
position = "{580, 1530}";
}
);
layerId = "227CFDA3-9046-4C35-BCA7-2E12199138C9";
paths = (
{
closed = 1;
nodes = (
"870 1458 OFFCURVE",
"759 1485 OFFCURVE",
"605 1485 CURVE SMOOTH",
"273 1485 OFFCURVE",
"135 1250 OFFCURVE",
"135 1080 CURVE SMOOTH",
"135 910 OFFCURVE",
"203 778 OFFCURVE",
"515 685 CURVE SMOOTH",
"827 591 OFFCURVE",
"875 510 OFFCURVE",
"875 405 CURVE SMOOTH",
"875 243 OFFCURVE",
"726 150 OFFCURVE",
"565 150 CURVE SMOOTH",
"417 150 OFFCURVE",
"272 200 OFFCURVE",
"140 315 CURVE",
"95 110 LINE",
"197 31 OFFCURVE",
"372 -25 OFFCURVE",
"565 -25 CURVE SMOOTH",
"838 -25 OFFCURVE",
"1065 157 OFFCURVE",
"1065 425 CURVE SMOOTH",
"1065 641 OFFCURVE",
"920 762 OFFCURVE",
"655 840 CURVE SMOOTH",
"370 923 OFFCURVE",
"325 985 OFFCURVE",
"325 1095 CURVE SMOOTH",
"325 1205 OFFCURVE",
"435 1310 OFFCURVE",
"595 1310 CURVE SMOOTH",
"723 1310 OFFCURVE",
"817 1279 OFFCURVE",
"960 1200 CURVE",
"1000 1395 LINE"
);
}
);
width = 1175;
},
{
anchors = (
{
name = H;
position = "{616, 0}";
},
{
name = L;
position = "{616, -100}";
},
{
name = U;
position = "{616, 1530}";
}
);
layerId = "B46047BD-989B-43B8-9078-123A6A2C0348";
paths = (
{
closed = 1;
nodes = (
"932 1458 OFFCURVE",
"810 1485 OFFCURVE",
"640 1485 CURVE SMOOTH",
"280 1485 OFFCURVE",
"130 1239 OFFCURVE",
"130 1060 CURVE SMOOTH",
"130 882 OFFCURVE",
"196 754 OFFCURVE",
"510 655 CURVE SMOOTH",
"800 563 OFFCURVE",
"851 504 OFFCURVE",
"851 420 CURVE SMOOTH",
"851 293 OFFCURVE",
"730 220 OFFCURVE",
"600 220 CURVE SMOOTH",
"439 220 OFFCURVE",
"283 270 OFFCURVE",
"140 385 CURVE",
"90 110 LINE",
"201 31 OFFCURVE",
"391 -25 OFFCURVE",
"600 -25 CURVE SMOOTH",
"895 -25 OFFCURVE",
"1138 169 OFFCURVE",
"1138 455 CURVE SMOOTH",
"1138 666 OFFCURVE",
"994 787 OFFCURVE",
"727 870 CURVE SMOOTH",
"464 952 OFFCURVE",
"416 994 OFFCURVE",
"416 1080 CURVE SMOOTH",
"416 1162 OFFCURVE",
"506 1245 OFFCURVE",
"630 1245 CURVE SMOOTH",
"771 1245 OFFCURVE",
"873 1209 OFFCURVE",
"1030 1130 CURVE",
"1075 1395 LINE"
);
}
);
width = 1243;
}
);
unicode = 0053;
},
{
glyphname = LtnCapT;
layers = (
{
anchors = (
{
name = H;
position = "{622, 0}";
},
{
name = L;
position = "{622, -100}";
},
{
name = U;
position = "{622, 1530}";
}
);
layerId = "227CFDA3-9046-4C35-BCA7-2E12199138C9";
paths = (
{
closed = 1;
nodes = (
"45 1275 LINE",
"125 1292 OFFCURVE",
"201 1295 OFFCURVE",
"290 1295 CURVE SMOOTH",
"525 1295 LINE",
"525 435 LINE SMOOTH",
"525 238 OFFCURVE",
"522 80 OFFCURVE",
"505 0 CURVE",
"735 0 LINE",
"718 80 OFFCURVE",
"715 238 OFFCURVE",
"715 435 CURVE SMOOTH",
"715 1295 LINE",
"955 1295 LINE SMOOTH",
"1045 1295 OFFCURVE",
"1120 1292 OFFCURVE",
"1200 1275 CURVE",
"1200 1460 LINE",
"45 1460 LINE"
);
}
);
width = 1265;
},
{
anchors = (
{
name = H;
position = "{632, 0}";
},
{
name = L;
position = "{632, -100}";
},
{
name = U;
position = "{632, 1530}";
}
);
layerId = "B46047BD-989B-43B8-9078-123A6A2C0348";
paths = (
{
closed = 1;
nodes = (
"45 1210 LINE",
"117 1227 OFFCURVE",
"196 1230 OFFCURVE",
"276 1230 CURVE SMOOTH",
"488 1230 LINE",
"488 413 LINE SMOOTH",
"488 226 OFFCURVE",
"485 76 OFFCURVE",
"468 0 CURVE",
"793 0 LINE",
"776 76 OFFCURVE",
"773 226 OFFCURVE",
"773 413 CURVE SMOOTH",
"773 1230 LINE",
"989 1230 LINE SMOOTH",
"1070 1230 OFFCURVE",
"1148 1227 OFFCURVE",
"1220 1210 CURVE",
"1220 1460 LINE",
"45 1460 LINE"
);
}
);
width = 1275;
}
);
unicode = 0054;
},
{
glyphname = LtnCapU;
layers = (
{
anchors = (
{
name = H;
position = "{707, 0}";
},
{
name = L;
position = "{707, -100}";
},
{
name = O;
position = "{1026, 0}";
},
{
name = R;
position = "{1400, 1200}";
},
{
name = U;
position = "{707, 1530}";
}
);
layerId = "227CFDA3-9046-4C35-BCA7-2E12199138C9";
paths = (
{
closed = 1;
nodes = (
"1050 560 LINE SMOOTH",
"1050 299 OFFCURVE",
"968 135 OFFCURVE",
"710 135 CURVE SMOOTH",
"447 135 OFFCURVE",
"365 299 OFFCURVE",
"365 560 CURVE SMOOTH",
"365 1460 LINE",
"160 1460 LINE",
"174 1380 OFFCURVE",
"175 1222 OFFCURVE",
"175 1025 CURVE SMOOTH",
"175 515 LINE",
"175 190 OFFCURVE",
"345 -25 OFFCURVE",
"710 -25 CURVE SMOOTH",
"1071 -25 OFFCURVE",
"1240 190 OFFCURVE",
"1240 515 CURVE",
"1240 1025 LINE SMOOTH",
"1240 1232 OFFCURVE",
"1242 1380 OFFCURVE",
"1255 1460 CURVE",
"1050 1460 LINE"
);
}
);
width = 1440;
},
{
anchors = (
{
name = H;
position = "{732, 0}";
},
{
name = L;
position = "{732, -100}";
},
{
name = O;
position = "{950, 0}";
},
{
name = R;
position = "{1480, 1200}";
},
{
name = U;
position = "{732, 1530}";
}
);
layerId = "B46047BD-989B-43B8-9078-123A6A2C0348";
paths = (
{
closed = 1;
nodes = (
"1015 560 LINE SMOOTH",
"1015 344 OFFCURVE",
"952 204 OFFCURVE",
"735 204 CURVE SMOOTH",
"513 204 OFFCURVE",
"450 344 OFFCURVE",
"450 560 CURVE SMOOTH",
"450 1460 LINE",
"150 1460 LINE",
"164 1380 OFFCURVE",
"165 1222 OFFCURVE",
"165 1025 CURVE SMOOTH",
"165 515 LINE SMOOTH",
"165 190 OFFCURVE",
"356 -25 OFFCURVE",
"735 -25 CURVE SMOOTH",
"1110 -25 OFFCURVE",
"1300 190 OFFCURVE",
"1300 515 CURVE SMOOTH",
"1300 1025 LINE SMOOTH",
"1300 1232 OFFCURVE",
"1302 1380 OFFCURVE",
"1315 1460 CURVE",
"1015 1460 LINE"
);
}
);
width = 1490;
}
);
unicode = 0055;
},
{
glyphname = LtnCapV;
layers = (
{
anchors = (
{
name = H;
position = "{680, 0}";
},
{
name = L;
position = "{672, -100}";
},
{
name = O;
position = "{880, 0}";
},
{
name = U;
position = "{672, 1530}";
}
);
layerId = "227CFDA3-9046-4C35-BCA7-2E12199138C9";
paths = (
{
closed = 1;
nodes = (
"672 195 LINE",
"250 1460 LINE",
"35 1460 LINE",
"68 1378 OFFCURVE",
"101 1288 OFFCURVE",
"170 1095 CURVE SMOOTH",
"560 0 LINE",
"785 0 LINE",
"1170 1095 LINE SMOOTH",
"1238 1289 OFFCURVE",
"1274 1378 OFFCURVE",
"1310 1460 CURVE",
"1095 1460 LINE"
);
}
);
width = 1365;
},
{
anchors = (
{
name = H;
position = "{730, 0}";
},
{
name = L;
position = "{722, -100}";
},
{
name = O;
position = "{930, 0}";
},
{
name = U;
position = "{722, 1530}";
}
);
layerId = "B46047BD-989B-43B8-9078-123A6A2C0348";
paths = (
{
closed = 1;
nodes = (
"722 260 LINE",
"330 1460 LINE",
"25 1460 LINE",
"58 1378 OFFCURVE",
"96 1288 OFFCURVE",
"165 1095 CURVE SMOOTH",
"555 0 LINE",
"890 0 LINE",
"1280 1095 LINE SMOOTH",
"1348 1289 OFFCURVE",
"1384 1378 OFFCURVE",
"1420 1460 CURVE",
"1115 1460 LINE"
);
}
);
width = 1465;
}
);
unicode = 0056;
},
{
glyphname = LtnCapW;
layers = (
{
anchors = (
{
name = L;
position = "{1027, -100}";
},
{
name = U;
position = "{1027, 1530}";
}
);
layerId = "227CFDA3-9046-4C35-BCA7-2E12199138C9";
paths = (
{
closed = 1;
nodes = (
"1595 0 LINE",
"1900 1095 LINE SMOOTH",
"1954 1289 OFFCURVE",
"1983 1378 OFFCURVE",
"2015 1460 CURVE",
"1795 1460 LINE",
"1470 130 LINE",
"1480 0 LINE"
);
},
{
closed = 1;
nodes = (
"935 1460 LINE",
"990 1305 LINE",
"1370 0 LINE",
"1480 0 LINE",
"1500 130 LINE",
"1120 1460 LINE"
);
},
{
closed = 1;
nodes = (
"685 0 LINE",
"1065 1305 LINE",
"1120 1460 LINE",
"935 1460 LINE",
"560 130 LINE",
"580 0 LINE"
);
},
{
closed = 1;
nodes = (
"40 1460 LINE",
"71 1381 OFFCURVE",
"102 1286 OFFCURVE",
"155 1095 CURVE SMOOTH",
"460 0 LINE",
"580 0 LINE",
"590 130 LINE",
"260 1460 LINE"
);
}
);
width = 2080;
},
{
anchors = (
{
name = L;
position = "{1052, -100}";
},
{
name = U;
position = "{1052, 1530}";
}
);
layerId = "B46047BD-989B-43B8-9078-123A6A2C0348";
paths = (
{
closed = 1;
nodes = (
"1655 0 LINE",
"1965 1095 LINE SMOOTH",
"2020 1289 OFFCURVE",
"2048 1378 OFFCURVE",
"2080 1460 CURVE",
"1770 1460 LINE",
"1470 130 LINE",
"1490 0 LINE"
);
},
{
closed = 1;
nodes = (
"920 1460 LINE",
"995 1305 LINE",
"1340 0 LINE",
"1510 0 LINE",
"1530 130 LINE",
"1180 1460 LINE"
);
},
{
closed = 1;
nodes = (
"765 0 LINE",
"1105 1305 LINE",
"1180 1460 LINE",
"920 1460 LINE",
"580 130 LINE",
"600 0 LINE"
);
},
{
closed = 1;
nodes = (
"30 1460 LINE",
"61 1381 OFFCURVE",
"92 1286 OFFCURVE",
"145 1095 CURVE SMOOTH",
"450 0 LINE",
"620 0 LINE",
"640 130 LINE",
"340 1460 LINE"
);
}
);
width = 2135;
}
);
unicode = 0057;
},
{
glyphname = LtnCapX;
layers = (
{
anchors = (
{
name = L;
position = "{650, -100}";
},
{
name = U;
position = "{650, 1530}";
}
);
layerId = "227CFDA3-9046-4C35-BCA7-2E12199138C9";
paths = (
{
closed = 1;
nodes = (
"265 340 LINE SMOOTH",
"136 132 OFFCURVE",
"103 86 OFFCURVE",
"40 0 CURVE",
"270 0 LINE",
"642 614 LINE",
"1030 0 LINE",
"1260 0 LINE",
"1199 82 OFFCURVE",
"1165 127 OFFCURVE",
"1033 336 CURVE SMOOTH",
"761 767 LINE",
"972 1110 LINE SMOOTH",
"1097 1313 OFFCURVE",
"1148 1383 OFFCURVE",
"1210 1460 CURVE",
"975 1460 LINE",
"656 934 LINE",
"325 1460 LINE",
"90 1460 LINE",
"154 1376 OFFCURVE",
"201 1315 OFFCURVE",
"330 1110 CURVE",
"537 781 LINE"
);
}
);
width = 1325;
},
{
anchors = (
{
name = L;
position = "{670, -100}";
},
{
name = U;
position = "{670, 1530}";
}
);
layerId = "B46047BD-989B-43B8-9078-123A6A2C0348";
paths = (
{
closed = 1;
nodes = (
"1310 0 LINE",
"1249 82 OFFCURVE",
"1211 125 OFFCURVE",
"1083 336 CURVE SMOOTH",
"400 1460 LINE",
"75 1460 LINE",
"139 1376 OFFCURVE",
"189 1317 OFFCURVE",
"315 1110 CURVE",
"990 0 LINE"
);
},
{
closed = 1;
nodes = (
"255 340 LINE SMOOTH",
"133 128 OFFCURVE",
"93 86 OFFCURVE",
"30 0 CURVE",
"350 0 LINE",
"700 609 LINE",
"605 947 LINE"
);
},
{
closed = 1;
nodes = (
"1040 1110 LINE SMOOTH",
"1153 1306 OFFCURVE",
"1211 1383 OFFCURVE",
"1275 1460 CURVE",
"950 1460 LINE",
"655 947 LINE",
"750 609 LINE"
);
}
);
width = 1365;
}
);
unicode = 0058;
},
{
glyphname = LtnCapY;
layers = (
{
anchors = (
{
name = L;
position = "{650, -100}";
},
{
name = U;
position = "{650, 1530}";
}
);
layerId = "227CFDA3-9046-4C35-BCA7-2E12199138C9";
paths = (
{
closed = 1;
nodes = (
"147 1311 OFFCURVE",
"213 1197 OFFCURVE",
"290 1065 CURVE SMOOTH",
"555 611 LINE",
"555 435 LINE SMOOTH",
"555 238 OFFCURVE",
"555 80 OFFCURVE",
"540 0 CURVE",
"760 0 LINE",
"745 80 OFFCURVE",
"745 238 OFFCURVE",
"745 435 CURVE SMOOTH",
"745 603 LINE",
"1015 1065 LINE SMOOTH",
"1091 1195 OFFCURVE",
"1147 1291 OFFCURVE",
"1265 1460 CURVE",
"1035 1460 LINE",
"660 799 LINE",
"265 1460 LINE",
"35 1460 LINE"
);
}
);
width = 1320;
},
{
anchors = (
{
name = L;
position = "{672, -100}";
},
{
name = U;
position = "{672, 1530}";
}
);
layerId = "B46047BD-989B-43B8-9078-123A6A2C0348";
paths = (
{
closed = 1;
nodes = (
"782 675 LINE",
"357 1460 LINE",
"25 1460 LINE",
"137 1311 OFFCURVE",
"203 1197 OFFCURVE",
"280 1065 CURVE SMOOTH",
"575 560 LINE"
);
},
{
closed = 1;
nodes = (
"1069 1065 LINE SMOOTH",
"1145 1195 OFFCURVE",
"1201 1291 OFFCURVE",
"1319 1460 CURVE",
"997 1460 LINE",
"577 675 LINE",
"770 560 LINE"
);
},
{
closed = 1;
nodes = (
"530 435 LINE SMOOTH",
"530 238 OFFCURVE",
"530 80 OFFCURVE",
"515 0 CURVE",
"830 0 LINE",
"815 80 OFFCURVE",
"815 238 OFFCURVE",
"815 435 CURVE SMOOTH",
"815 695 LINE",
"530 695 LINE"
);
}
);
width = 1364;
}
);
unicode = 0059;
},
{
glyphname = LtnCapZ;
layers = (
{
anchors = (
{
name = L;
position = "{605, -100}";
},
{
name = U;
position = "{605, 1530}";
}
);
layerId = "227CFDA3-9046-4C35-BCA7-2E12199138C9";
paths = (
{
closed = 1;
nodes = (
"135 1460 LINE",
"135 1275 LINE",
"215 1292 OFFCURVE",
"333 1295 OFFCURVE",
"530 1295 CURVE SMOOTH",
"870 1295 LINE",
"75 125 LINE",
"75 0 LINE",
"1135 0 LINE",
"1135 185 LINE",
"1055 171 OFFCURVE",
"896 165 OFFCURVE",
"700 165 CURVE SMOOTH",
"310 165 LINE",
"1105 1330 LINE",
"1105 1460 LINE"
);
}
);
width = 1230;
},
{
anchors = (
{
name = L;
position = "{635, -100}";
},
{
name = U;
position = "{635, 1530}";
}
);
layerId = "B46047BD-989B-43B8-9078-123A6A2C0348";
paths = (
{
closed = 1;
nodes = (
"125 1460 LINE",
"125 1210 LINE",
"213 1227 OFFCURVE",
"343 1230 OFFCURVE",
"560 1230 CURVE SMOOTH",
"793 1230 LINE",
"65 160 LINE",
"65 0 LINE",
"1165 0 LINE",
"1165 250 LINE",
"1085 236 OFFCURVE",
"926 230 OFFCURVE",
"730 230 CURVE SMOOTH",
"415 230 LINE",
"1135 1285 LINE",
"1135 1460 LINE"
);
}
);
width = 1250;
}
);
unicode = 005A;
},
{
glyphname = LftSqrBrac;
layers = (
{
layerId = "227CFDA3-9046-4C35-BCA7-2E12199138C9";
paths = (
{
closed = 1;
nodes = (
"640 -260 LINE",
"385 -260 LINE",
"385 1450 LINE",
"640 1450 LINE",
"640 1600 LINE",
"200 1600 LINE",
"200 -410 LINE",
"640 -410 LINE"
);
}
);
width = 790;
},
{
layerId = "B46047BD-989B-43B8-9078-123A6A2C0348";
paths = (
{
closed = 1;
nodes = (
"710 -200 LINE",
"470 -200 LINE",
"470 1390 LINE",
"710 1390 LINE",
"710 1600 LINE",
"190 1600 LINE",
"190 -410 LINE",
"710 -410 LINE"
);
}
);
width = 850;
}
);
unicode = 005B;
},
{
glyphname = ReverseSolidus;
layers = (
{
layerId = "227CFDA3-9046-4C35-BCA7-2E12199138C9";
paths = (
{
closed = 1;
nodes = (
"160 1600 LINE",
"10 1600 LINE",
"840 -245 LINE",
"990 -245 LINE"
);
}
);
width = 1000;
},
{
layerId = "B46047BD-989B-43B8-9078-123A6A2C0348";
paths = (
{
closed = 1;
nodes = (
"840 -245 LINE",
"1070 -245 LINE",
"240 1600 LINE",
"10 1600 LINE"
);
}
);
width = 1080;
}
);
unicode = 005C;
},
{
glyphname = RtSqrBrac;
layers = (
{
layerId = "227CFDA3-9046-4C35-BCA7-2E12199138C9";
paths = (
{
closed = 1;
nodes = (
"590 1600 LINE",
"150 1600 LINE",
"150 1450 LINE",
"405 1450 LINE",
"405 -260 LINE",
"150 -260 LINE",
"150 -410 LINE",
"590 -410 LINE"
);
}
);
width = 790;
},
{
layerId = "B46047BD-989B-43B8-9078-123A6A2C0348";
paths = (
{
closed = 1;
nodes = (
"660 1600 LINE",
"140 1600 LINE",
"140 1390 LINE",
"380 1390 LINE",
"380 -200 LINE",
"140 -200 LINE",
"140 -410 LINE",
"660 -410 LINE"
);
}
);
width = 850;
}
);
unicode = 005D;
},
{
glyphname = CircumAccent;
layers = (
{
components = (
{
name = CombCircum;
transform = "{1, 0, 0, 1, 995, 0}";
}
);
layerId = "227CFDA3-9046-4C35-BCA7-2E12199138C9";
width = 850;
},
{
anchors = (
{
name = U;
position = "{440, 1635}";
}
);
layerId = "B46047BD-989B-43B8-9078-123A6A2C0348";
paths = (
{
closed = 1;
nodes = (
"598 1600 LINE",
"298 1600 LINE",
"8 1200 LINE",
"248 1200 LINE",
"448 1430 LINE",
"648 1200 LINE",
"888 1200 LINE"
);
}
);
width = 880;
}
);
unicode = 005E;
},
{
glyphname = LowLine;
layers = (
{
layerId = "227CFDA3-9046-4C35-BCA7-2E12199138C9";
paths = (
{
closed = 1;
nodes = (
"1274 -320 LINE",
"1274 -170 LINE",
"0 -170 LINE",
"0 -320 LINE"
);
}
);
width = 1274;
},
{
layerId = "B46047BD-989B-43B8-9078-123A6A2C0348";
paths = (
{
closed = 1;
nodes = (
"1274 -350 LINE",
"1274 -140 LINE",
"0 -140 LINE",
"0 -350 LINE"
);
}
);
width = 1274;
}
);
unicode = 005F;
},
{
glyphname = GraveAccent;
layers = (
{
components = (
{
name = CombGrave;
transform = "{1, 0, 0, 1, 940, 0}";
}
);
layerId = "227CFDA3-9046-4C35-BCA7-2E12199138C9";
width = 580;
},
{
anchors = (
{
name = U;
position = "{500, 1635}";
}
);
layerId = "B46047BD-989B-43B8-9078-123A6A2C0348";
paths = (
{
closed = 1;
nodes = (
"400 1200 LINE",
"640 1200 LINE",
"350 1600 LINE",
"0 1600 LINE"
);
}
);
width = 640;
}
);
unicode = 0060;
},
{
glyphname = LtnSmA;
layers = (
{
anchors = (
{
name = H;
position = "{540, 0}";
},
{
name = L;
position = "{540, -100}";
},
{
name = O;
position = "{1125, 0}";
},
{
name = R;
position = "{1120, 1000}";
},
{
name = U;
position = "{540, 1100}";
}
);
layerId = "227CFDA3-9046-4C35-BCA7-2E12199138C9";
paths = (
{
closed = 1;
nodes = (
"950 919 OFFCURVE",
"800 1040 OFFCURVE",
"570 1040 CURVE SMOOTH",
"418 1040 OFFCURVE",
"312 994 OFFCURVE",
"209 950 CURVE",
"203 907 OFFCURVE",
"200 799 OFFCURVE",
"199 755 CURVE",
"316 837 OFFCURVE",
"419 880 OFFCURVE",
"525 880 CURVE SMOOTH",
"675 880 OFFCURVE",
"765 831 OFFCURVE",
"765 710 CURVE SMOOTH",
"765 635 LINE",
"724 632 OFFCURVE",
"564 617 OFFCURVE",
"495 610 CURVE SMOOTH",
"186 580 OFFCURVE",
"95 407 OFFCURVE",
"95 255 CURVE SMOOTH",
"95 107 OFFCURVE",
"232 -25 OFFCURVE",
"420 -25 CURVE SMOOTH",
"544 -25 OFFCURVE",
"677 29 OFFCURVE",
"795 155 CURVE",
"809 91 OFFCURVE",
"833 32 OFFCURVE",
"845 0 CURVE",
"1025 0 LINE",
"981 112 OFFCURVE",
"950 226 OFFCURVE",
"950 370 CURVE",
"950 760 LINE"
);
},
{
closed = 1;
nodes = (
"644 164 OFFCURVE",
"552 140 OFFCURVE",
"450 140 CURVE SMOOTH",
"340 140 OFFCURVE",
"275 191 OFFCURVE",
"275 280 CURVE SMOOTH",
"275 372 OFFCURVE",
"335 450 OFFCURVE",
"505 470 CURVE SMOOTH",
"568 478 OFFCURVE",
"715 493 OFFCURVE",
"765 495 CURVE",
"765 325 LINE"
);
}
);
width = 1120;
},
{
anchors = (
{
name = H;
position = "{985, 0}";
},
{
name = L;
position = "{610, -100}";
},
{
name = O;
position = "{1185, 0}";
},
{
name = R;
position = "{1145, 1000}";
},
{
name = U;
position = "{610, 1100}";
}
);
layerId = "B46047BD-989B-43B8-9078-123A6A2C0348";
paths = (
{
closed = 1;
nodes = (
"1078 112 OFFCURVE",
"1050 226 OFFCURVE",
"1050 370 CURVE",
"1050 760 LINE",
"1050 919 OFFCURVE",
"877 1040 OFFCURVE",
"615 1040 CURVE SMOOTH",
"446 1040 OFFCURVE",
"330 994 OFFCURVE",
"216 950 CURVE",
"210 868 OFFCURVE",
"207 735 OFFCURVE",
"206 691 CURVE",
"323 773 OFFCURVE",
"424 816 OFFCURVE",
"530 816 CURVE SMOOTH",
"680 816 OFFCURVE",
"770 785 OFFCURVE",
"770 710 CURVE SMOOTH",
"770 660 LINE",
"729 659 OFFCURVE",
"569 649 OFFCURVE",
"500 642 CURVE SMOOTH",
"191 612 OFFCURVE",
"100 438 OFFCURVE",
"100 285 CURVE SMOOTH",
"100 121 OFFCURVE",
"245 -25 OFFCURVE",
"445 -25 CURVE SMOOTH",
"562 -25 OFFCURVE",
"688 23 OFFCURVE",
"800 135 CURVE",
"814 79 OFFCURVE",
"838 28 OFFCURVE",
"850 0 CURVE",
"1120 0 LINE"
);
},
{
closed = 1;
nodes = (
"674 225 OFFCURVE",
"600 205 OFFCURVE",
"518 205 CURVE SMOOTH",
"436 205 OFFCURVE",
"380 256 OFFCURVE",
"380 320 CURVE SMOOTH",
"380 386 OFFCURVE",
"422 442 OFFCURVE",
"560 457 CURVE SMOOTH",
"611 463 OFFCURVE",
"730 474 OFFCURVE",
"770 475 CURVE",
"770 355 LINE"
);
}
);
width = 1205;
}
);
unicode = 0061;
},
{
glyphname = LtnSmB;
layers = (
{
anchors = (
{
name = H;
position = "{590, 0}";
},
{
name = L;
position = "{590, -100}";
},
{
name = R;
position = "{1155, 1000}";
},
{
name = U;
position = "{590, 1635}";
}
);
layerId = "227CFDA3-9046-4C35-BCA7-2E12199138C9";
paths = (
{
closed = 1;
nodes = (
"145 1488 OFFCURVE",
"145 1273 OFFCURVE",
"145 1130 CURVE SMOOTH",
"145 936 OFFCURVE",
"145 228 OFFCURVE",
"145 65 CURVE",
"272 26 OFFCURVE",
"413 -25 OFFCURVE",
"575 -25 CURVE SMOOTH",
"870 -25 OFFCURVE",
"1060 197 OFFCURVE",
"1060 540 CURVE SMOOTH",
"1060 832 OFFCURVE",
"917 1040 OFFCURVE",
"715 1040 CURVE SMOOTH",
"547 1040 OFFCURVE",
"423 947 OFFCURVE",
"330 825 CURVE",
"330 916 OFFCURVE",
"330 1600 OFFCURVE",
"330 1600 CURVE",
"130 1600 LINE"
);
},
{
closed = 1;
nodes = (
"398 751 OFFCURVE",
"531 865 OFFCURVE",
"655 865 CURVE SMOOTH",
"799 865 OFFCURVE",
"880 727 OFFCURVE",
"880 505 CURVE SMOOTH",
"880 280 OFFCURVE",
"752 130 OFFCURVE",
"575 130 CURVE SMOOTH",
"489 130 OFFCURVE",
"428 144 OFFCURVE",
"330 185 CURVE",
"330 585 LINE"
);
}
);
width = 1155;
},
{
anchors = (
{
name = H;
position = "{610, 0}";
},
{
name = L;
position = "{610, -100}";
},
{
name = R;
position = "{1215, 1000}";
},
{
name = U;
position = "{610, 1635}";
}
);
layerId = "B46047BD-989B-43B8-9078-123A6A2C0348";
paths = (
{
closed = 1;
nodes = (
"135 1488 OFFCURVE",
"135 1273 OFFCURVE",
"135 1130 CURVE SMOOTH",
"135 936 OFFCURVE",
"135 228 OFFCURVE",
"135 65 CURVE",
"286 26 OFFCURVE",
"457 -25 OFFCURVE",
"650 -25 CURVE SMOOTH",
"939 -25 OFFCURVE",
"1125 197 OFFCURVE",
"1125 540 CURVE SMOOTH",
"1125 832 OFFCURVE",
"986 1040 OFFCURVE",
"789 1040 CURVE SMOOTH",
"626 1040 OFFCURVE",
"505 956 OFFCURVE",
"415 845 CURVE",
"415 934 OFFCURVE",
"415 1600 OFFCURVE",
"415 1600 CURVE",
"120 1600 LINE"
);
},
{
closed = 1;
nodes = (
"471 709 OFFCURVE",
"580 795 OFFCURVE",
"683 795 CURVE SMOOTH",
"793 795 OFFCURVE",
"855 684 OFFCURVE",
"855 505 CURVE SMOOTH",
"855 317 OFFCURVE",
"750 190 OFFCURVE",
"605 190 CURVE SMOOTH",
"538 190 OFFCURVE",
"492 204 OFFCURVE",
"415 240 CURVE",
"415 585 LINE"
);
}
);
width = 1215;
}
);
unicode = 0062;
},
{
glyphname = LtnSmC;
layers = (
{
anchors = (
{
name = H;
position = "{580, 0}";
},
{
name = L;
position = "{580, -100}";
},
{
name = R;
position = "{1020, 1000}";
},
{
name = U;
position = "{570, 1100}";
}
);
layerId = "227CFDA3-9046-4C35-BCA7-2E12199138C9";
paths = (
{
closed = 1;
nodes = (
"818 183 OFFCURVE",
"720 140 OFFCURVE",
"600 140 CURVE SMOOTH",
"406 140 OFFCURVE",
"285 285 OFFCURVE",
"285 500 CURVE SMOOTH",
"285 736 OFFCURVE",
"422 875 OFFCURVE",
"600 875 CURVE SMOOTH",
"703 875 OFFCURVE",
"790 841 OFFCURVE",
"880 775 CURVE",
"915 955 LINE",
"842 1005 OFFCURVE",
"748 1040 OFFCURVE",
"615 1040 CURVE SMOOTH",
"297 1040 OFFCURVE",
"95 792 OFFCURVE",
"95 490 CURVE SMOOTH",
"95 171 OFFCURVE",
"312 -25 OFFCURVE",
"580 -25 CURVE SMOOTH",
"730 -25 OFFCURVE",
"824 9 OFFCURVE",
"925 85 CURVE",
"905 260 LINE"
);
}
);
width = 1020;
},
{
anchors = (
{
name = H;
position = "{555, 0}";
},
{
name = L;
position = "{575, -100}";
},
{
name = R;
position = "{1020, 1000}";
},
{
name = U;
position = "{575, 1100}";
}
);
layerId = "B46047BD-989B-43B8-9078-123A6A2C0348";
paths = (
{
closed = 1;
nodes = (
"849 1007 OFFCURVE",
"744 1040 OFFCURVE",
"612 1040 CURVE SMOOTH",
"295 1040 OFFCURVE",
"90 802 OFFCURVE",
"90 490 CURVE SMOOTH",
"90 161 OFFCURVE",
"309 -25 OFFCURVE",
"578 -25 CURVE SMOOTH",
"727 -25 OFFCURVE",
"831 8 OFFCURVE",
"932 70 CURVE",
"902 314 LINE",
"815 245 OFFCURVE",
"737 205 OFFCURVE",
"617 205 CURVE SMOOTH",
"467 205 OFFCURVE",
"370 324 OFFCURVE",
"370 500 CURVE SMOOTH",
"370 694 OFFCURVE",
"478 810 OFFCURVE",
"617 810 CURVE SMOOTH",
"720 810 OFFCURVE",
"788 779 OFFCURVE",
"878 717 CURVE",
"922 969 LINE"
);
}
);
width = 1022;
}
);
unicode = 0063;
},
{
glyphname = LtnSmD;
layers = (
{
anchors = (
{
name = H;
position = "{605, 0}";
},
{
name = L;
position = "{605, -100}";
},
{
name = R;
position = "{1190, 1000}";
},
{
name = U;
position = "{605, 1635}";
}
);
layerId = "227CFDA3-9046-4C35-BCA7-2E12199138C9";
paths = (
{
closed = 1;
nodes = (
"820 1600 LINE",
"839 1516 OFFCURVE",
"845 1395 OFFCURVE",
"845 1235 CURVE",
"845 955 LINE",
"767 999 OFFCURVE",
"665 1040 OFFCURVE",
"580 1040 CURVE SMOOTH",
"312 1040 OFFCURVE",
"105 814 OFFCURVE",
"105 460 CURVE SMOOTH",
"105 167 OFFCURVE",
"261 -25 OFFCURVE",
"505 -25 CURVE SMOOTH",
"652 -25 OFFCURVE",
"775 50 OFFCURVE",
"870 185 CURVE",
"887 111 OFFCURVE",
"910 34 OFFCURVE",
"925 0 CURVE",
"1105 0 LINE",
"1062 112 OFFCURVE",
"1030 278 OFFCURVE",
"1030 530 CURVE",
"1030 1600 LINE"
);
},
{
closed = 1;
nodes = (
"790 268 OFFCURVE",
"662 135 OFFCURVE",
"540 135 CURVE SMOOTH",
"366 135 OFFCURVE",
"290 258 OFFCURVE",
"290 490 CURVE SMOOTH",
"290 727 OFFCURVE",
"429 870 OFFCURVE",
"580 870 CURVE SMOOTH",
"681 870 OFFCURVE",
"746 848 OFFCURVE",
"845 795 CURVE",
"845 400 LINE"
);
}
);
width = 1190;
},
{
anchors = (
{
name = H;
position = "{595, 0}";
},
{
name = L;
position = "{595, -100}";
},
{
name = R;
position = "{1285, 1000}";
},
{
name = U;
position = "{610, 1635}";
}
);
layerId = "B46047BD-989B-43B8-9078-123A6A2C0348";
paths = (
{
closed = 1;
nodes = (
"810 1600 LINE",
"829 1516 OFFCURVE",
"835 1395 OFFCURVE",
"835 1235 CURVE SMOOTH",
"835 955 LINE",
"763 999 OFFCURVE",
"669 1040 OFFCURVE",
"590 1040 CURVE SMOOTH",
"319 1040 OFFCURVE",
"100 814 OFFCURVE",
"100 460 CURVE SMOOTH",
"100 167 OFFCURVE",
"268 -25 OFFCURVE",
"515 -25 CURVE SMOOTH",
"654 -25 OFFCURVE",
"770 47 OFFCURVE",
"860 175 CURVE",
"877 105 OFFCURVE",
"900 32 OFFCURVE",
"915 0 CURVE",
"1190 0 LINE",
"1147 112 OFFCURVE",
"1115 278 OFFCURVE",
"1115 530 CURVE SMOOTH",
"1115 1600 LINE"
);
},
{
closed = 1;
nodes = (
"787 300 OFFCURVE",
"676 200 OFFCURVE",
"570 200 CURVE SMOOTH",
"443 200 OFFCURVE",
"380 300 OFFCURVE",
"380 490 CURVE SMOOTH",
"380 685 OFFCURVE",
"485 800 OFFCURVE",
"590 800 CURVE SMOOTH",
"683 800 OFFCURVE",
"743 783 OFFCURVE",
"835 738 CURVE",
"835 400 LINE"
);
}
);
width = 1265;
}
);
unicode = 0064;
},
{
glyphname = LtnSmE;
layers = (
{
anchors = (
{
name = H;
position = "{545, 0}";
},
{
name = L;
position = "{569, -100}";
},
{
name = O;
position = "{925, 0}";
},
{
name = R;
position = "{1095, 1000}";
},
{
name = U;
position = "{569, 1100}";
}
);
layerId = "227CFDA3-9046-4C35-BCA7-2E12199138C9";
paths = (
{
closed = 1;
nodes = (
"990 503 OFFCURVE",
"990 545 OFFCURVE",
"990 563 CURVE SMOOTH",
"990 788 OFFCURVE",
"905 1040 OFFCURVE",
"575 1040 CURVE SMOOTH",
"279 1040 OFFCURVE",
"95 826 OFFCURVE",
"95 495 CURVE SMOOTH",
"95 155 OFFCURVE",
"320 -25 OFFCURVE",
"575 -25 CURVE SMOOTH",
"729 -25 OFFCURVE",
"853 2 OFFCURVE",
"995 75 CURVE",
"975 240 LINE",
"853 166 OFFCURVE",
"729 140 OFFCURVE",
"600 140 CURVE SMOOTH",
"414 140 OFFCURVE",
"280 258 OFFCURVE",
"280 505 CURVE SMOOTH",
"280 770 OFFCURVE",
"385 890 OFFCURVE",
"560 890 CURVE SMOOTH",
"705 890 OFFCURVE",
"810 797 OFFCURVE",
"810 625 CURVE",
"245 625 LINE",
"245 485 LINE",
"989 485 LINE"
);
}
);
width = 1095;
},
{
anchors = (
{
name = H;
position = "{569, 0}";
},
{
name = L;
position = "{589, -100}";
},
{
name = O;
position = "{900, 0}";
},
{
name = R;
position = "{1130, 1000}";
},
{
name = U;
position = "{537, 1100}";
}
);
layerId = "B46047BD-989B-43B8-9078-123A6A2C0348";
paths = (
{
closed = 1;
nodes = (
"1010 469 OFFCURVE",
"1009 513 OFFCURVE",
"1009 532 CURVE SMOOTH",
"1009 782 OFFCURVE",
"924 1040 OFFCURVE",
"589 1040 CURVE SMOOTH",
"281 1040 OFFCURVE",
"90 826 OFFCURVE",
"90 495 CURVE SMOOTH",
"90 155 OFFCURVE",
"324 -25 OFFCURVE",
"589 -25 CURVE SMOOTH",
"745 -25 OFFCURVE",
"871 2 OFFCURVE",
"1015 75 CURVE",
"994 306 LINE",
"870 232 OFFCURVE",
"745 205 OFFCURVE",
"614 205 CURVE SMOOTH",
"448 205 OFFCURVE",
"362 293 OFFCURVE",
"362 505 CURVE SMOOTH",
"362 739 OFFCURVE",
"431 830 OFFCURVE",
"575 830 CURVE SMOOTH",
"693 830 OFFCURVE",
"755 770 OFFCURVE",
"755 630 CURVE",
"242 630 LINE",
"242 450 LINE",
"1010 450 LINE"
);
}
);
width = 1110;
}
);
unicode = 0065;
},
{
glyphname = LtnSmF;
layers = (
{
anchors = (
{
name = H;
position = "{370, 0}";
},
{
name = L;
position = "{335, -100}";
},
{
name = U;
position = "{560, 1635}";
}
);
layerId = "227CFDA3-9046-4C35-BCA7-2E12199138C9";
paths = (
{
closed = 1;
nodes = (
"240 850 LINE",
"240 0 LINE",
"455 0 LINE",
"433 105 OFFCURVE",
"425 300 OFFCURVE",
"425 494 CURVE SMOOTH",
"425 850 LINE",
"695 850 LINE",
"695 995 LINE",
"425 995 LINE",
"425 1210 LINE SMOOTH",
"425 1381 OFFCURVE",
"481 1450 OFFCURVE",
"585 1450 CURVE SMOOTH",
"643 1450 OFFCURVE",
"710 1427 OFFCURVE",
"760 1390 CURVE",
"805 1550 LINE",
"743 1594 OFFCURVE",
"663 1620 OFFCURVE",
"585 1620 CURVE SMOOTH",
"369 1620 OFFCURVE",
"240 1470 OFFCURVE",
"240 1170 CURVE SMOOTH",
"240 995 LINE",
"40 995 LINE",
"40 850 LINE"
);
}
);
width = 750;
},
{
anchors = (
{
name = H;
position = "{380, 0}";
},
{
name = L;
position = "{400, -100}";
},
{
name = U;
position = "{600, 1635}";
}
);
layerId = "B46047BD-989B-43B8-9078-123A6A2C0348";
paths = (
{
closed = 1;
nodes = (
"230 805 LINE",
"230 0 LINE",
"540 0 LINE",
"518 105 OFFCURVE",
"510 300 OFFCURVE",
"510 494 CURVE SMOOTH",
"510 805 LINE",
"765 805 LINE",
"765 1005 LINE",
"510 1005 LINE",
"510 1159 LINE SMOOTH",
"510 1322 OFFCURVE",
"552 1387 OFFCURVE",
"648 1387 CURVE SMOOTH",
"697 1387 OFFCURVE",
"765 1362 OFFCURVE",
"808 1322 CURVE",
"865 1550 LINE",
"806 1588 OFFCURVE",
"699 1620 OFFCURVE",
"625 1620 CURVE SMOOTH",
"378 1620 OFFCURVE",
"230 1470 OFFCURVE",
"230 1170 CURVE SMOOTH",
"230 1005 LINE",
"30 1005 LINE",
"30 805 LINE"
);
}
);
width = 800;
}
);
unicode = 0066;
},
{
glyphname = LtnSmG;
layers = (
{
anchors = (
{
name = H;
position = "{545, -432}";
},
{
name = L;
position = "{545, -535}";
},
{
name = R;
position = "{1095, 1000}";
},
{
name = U;
position = "{515, 1100}";
}
);
layerId = "227CFDA3-9046-4C35-BCA7-2E12199138C9";
paths = (
{
closed = 1;
nodes = (
"234 357 OFFCURVE",
"180 275 OFFCURVE",
"180 215 CURVE SMOOTH",
"180 121 OFFCURVE",
"263 27 OFFCURVE",
"545 -5 CURVE SMOOTH",
"805 -35 OFFCURVE",
"880 -90 OFFCURVE",
"880 -170 CURVE SMOOTH",
"880 -255 OFFCURVE",
"731 -360 OFFCURVE",
"550 -360 CURVE SMOOTH",
"323 -360 OFFCURVE",
"215 -261 OFFCURVE",
"215 -180 CURVE SMOOTH",
"215 -121 OFFCURVE",
"244 -56 OFFCURVE",
"465 20 CURVE",
"459 49 OFFCURVE",
"290 75 OFFCURVE",
"290 75 CURVE",
"113 2 OFFCURVE",
"30 -89 OFFCURVE",
"30 -200 CURVE SMOOTH",
"30 -409 OFFCURVE",
"303 -505 OFFCURVE",
"535 -505 CURVE SMOOTH",
"777 -505 OFFCURVE",
"1065 -375 OFFCURVE",
"1065 -160 CURVE SMOOTH",
"1065 -8 OFFCURVE",
"967 90 OFFCURVE",
"670 125 CURVE SMOOTH",
"410 156 OFFCURVE",
"345 198 OFFCURVE",
"345 235 CURVE SMOOTH",
"345 271 OFFCURVE",
"384 316 OFFCURVE",
"500 350 CURVE",
"330 395 LINE"
);
},
{
closed = 1;
nodes = (
"951 1033 OFFCURVE",
"819 997 OFFCURVE",
"730 940 CURVE",
"795 825 LINE",
"887 863 OFFCURVE",
"967 878 OFFCURVE",
"1040 880 CURVE",
"1050 1040 LINE"
);
},
{
closed = 1;
nodes = (
"115 476 OFFCURVE",
"289 325 OFFCURVE",
"515 325 CURVE SMOOTH",
"742 325 OFFCURVE",
"915 476 OFFCURVE",
"915 680 CURVE SMOOTH",
"915 884 OFFCURVE",
"742 1040 OFFCURVE",
"515 1040 CURVE SMOOTH",
"289 1040 OFFCURVE",
"115 884 OFFCURVE",
"115 680 CURVE SMOOTH"
);
},
{
closed = 1;
nodes = (
"285 803 OFFCURVE",
"382 895 OFFCURVE",
"515 895 CURVE SMOOTH",
"649 895 OFFCURVE",
"745 803 OFFCURVE",
"745 680 CURVE SMOOTH",
"745 557 OFFCURVE",
"649 465 OFFCURVE",
"515 465 CURVE SMOOTH",
"382 465 OFFCURVE",
"285 557 OFFCURVE",
"285 680 CURVE SMOOTH"
);
}
);
width = 1095;
},
{
anchors = (
{
name = H;
position = "{597, -465}";
},
{
name = L;
position = "{597, -535}";
},
{
name = R;
position = "{1187, 1000}";
},
{
name = U;
position = "{567, 1100}";
}
);
layerId = "B46047BD-989B-43B8-9078-123A6A2C0348";
paths = (
{
closed = 1;
nodes = (
"256 357 OFFCURVE",
"202 275 OFFCURVE",
"202 215 CURVE SMOOTH",
"202 113 OFFCURVE",
"280 12 OFFCURVE",
"547 -23 CURVE SMOOTH",
"797 -50 OFFCURVE",
"870 -99 OFFCURVE",
"870 -170 CURVE SMOOTH",
"870 -229 OFFCURVE",
"748 -302 OFFCURVE",
"602 -302 CURVE SMOOTH",
"418 -302 OFFCURVE",
"330 -235 OFFCURVE",
"330 -180 CURVE SMOOTH",
"330 -121 OFFCURVE",
"357 -56 OFFCURVE",
"562 20 CURVE",
"554 49 OFFCURVE",
"322 75 OFFCURVE",
"322 75 CURVE",
"138 2 OFFCURVE",
"50 -89 OFFCURVE",
"50 -200 CURVE SMOOTH",
"50 -409 OFFCURVE",
"341 -505 OFFCURVE",
"587 -505 CURVE SMOOTH",
"843 -505 OFFCURVE",
"1150 -375 OFFCURVE",
"1150 -160 CURVE SMOOTH",
"1150 13 OFFCURVE",
"1049 125 OFFCURVE",
"752 165 CURVE SMOOTH",
"497 191 OFFCURVE",
"433 216 OFFCURVE",
"433 255 CURVE SMOOTH",
"433 285 OFFCURVE",
"472 322 OFFCURVE",
"588 350 CURVE",
"352 395 LINE"
);
},
{
closed = 1;
nodes = (
"1003 1033 OFFCURVE",
"871 997 OFFCURVE",
"782 940 CURVE",
"847 770 LINE",
"939 808 OFFCURVE",
"1019 823 OFFCURVE",
"1092 825 CURVE",
"1102 1040 LINE"
);
},
{
closed = 1;
nodes = (
"122 455 OFFCURVE",
"316 305 OFFCURVE",
"567 305 CURVE SMOOTH",
"820 305 OFFCURVE",
"1012 465 OFFCURVE",
"1012 680 CURVE SMOOTH",
"1012 884 OFFCURVE",
"820 1040 OFFCURVE",
"567 1040 CURVE SMOOTH",
"316 1040 OFFCURVE",
"122 874 OFFCURVE",
"122 670 CURVE SMOOTH"
);
},
{
closed = 1;
nodes = (
"377 770 OFFCURVE",
"457 847 OFFCURVE",
"567 847 CURVE SMOOTH",
"678 847 OFFCURVE",
"757 770 OFFCURVE",
"757 680 CURVE SMOOTH",
"757 578 OFFCURVE",
"678 501 OFFCURVE",
"567 501 CURVE SMOOTH",
"457 501 OFFCURVE",
"377 578 OFFCURVE",
"377 680 CURVE SMOOTH"
);
}
);
width = 1170;
}
);
unicode = 0067;
},
{
glyphname = LtnSmH;
layers = (
{
anchors = (
{
name = H;
position = "{250, 0}";
},
{
name = L;
position = "{585, -100}";
},
{
name = U;
position = "{585, 1635}";
}
);
layerId = "227CFDA3-9046-4C35-BCA7-2E12199138C9";
paths = (
{
closed = 1;
nodes = (
"1040 0 OFFCURVE",
"1040 459 OFFCURVE",
"1040 625 CURVE SMOOTH",
"1040 900 OFFCURVE",
"923 1040 OFFCURVE",
"710 1040 CURVE SMOOTH",
"570 1040 OFFCURVE",
"428 969 OFFCURVE",
"330 830 CURVE",
"330 877 OFFCURVE",
"330 1600 OFFCURVE",
"330 1600 CURVE",
"130 1600 LINE",
"145 1514 OFFCURVE",
"145 1345 OFFCURVE",
"145 1130 CURVE SMOOTH",
"145 935 OFFCURVE",
"145 0 OFFCURVE",
"145 0 CURVE",
"330 0 LINE",
"330 580 LINE",
"374 716 OFFCURVE",
"511 865 OFFCURVE",
"655 865 CURVE SMOOTH",
"789 865 OFFCURVE",
"855 800 OFFCURVE",
"855 550 CURVE SMOOTH",
"855 413 OFFCURVE",
"855 0 OFFCURVE",
"855 0 CURVE",
"1040 0 LINE"
);
}
);
width = 1175;
},
{
anchors = (
{
name = H;
position = "{280, 0}";
},
{
name = L;
position = "{620, -100}";
},
{
name = U;
position = "{620, 1635}";
}
);
layerId = "B46047BD-989B-43B8-9078-123A6A2C0348";
paths = (
{
closed = 1;
nodes = (
"450 683 OFFCURVE",
"560 795 OFFCURVE",
"675 795 CURVE SMOOTH",
"782 795 OFFCURVE",
"830 744 OFFCURVE",
"830 550 CURVE SMOOTH",
"830 413 OFFCURVE",
"830 0 OFFCURVE",
"830 0 CURVE",
"1110 0 LINE",
"1110 0 OFFCURVE",
"1110 459 OFFCURVE",
"1110 625 CURVE SMOOTH",
"1110 900 OFFCURVE",
"1008 1040 OFFCURVE",
"805 1040 CURVE SMOOTH",
"662 1040 OFFCURVE",
"513 976 OFFCURVE",
"415 850 CURVE",
"415 894 OFFCURVE",
"415 1600 OFFCURVE",
"415 1600 CURVE",
"120 1600 LINE",
"135 1514 OFFCURVE",
"135 1345 OFFCURVE",
"135 1130 CURVE SMOOTH",
"135 935 OFFCURVE",
"135 0 OFFCURVE",
"135 0 CURVE",
"415 0 LINE",
"415 580 LINE"
);
}
);
width = 1235;
}
);
unicode = 0068;
},
{
glyphname = LtnSmI;
layers = (
{
anchors = (
{
name = H;
position = "{282, 0}";
},
{
name = L;
position = "{285, -100}";
},
{
name = O;
position = "{500, 0}";
},
{
name = R;
position = "{555, 1000}";
},
{
name = U;
position = "{282, 1100}";
}
);
layerId = "227CFDA3-9046-4C35-BCA7-2E12199138C9";
paths = (
{
closed = 1;
nodes = (
"175 1020 LINE",
"188 915 OFFCURVE",
"190 725 OFFCURVE",
"190 530 CURVE SMOOTH",
"190 336 OFFCURVE",
"190 0 OFFCURVE",
"190 0 CURVE",
"395 0 LINE",
"382 107 OFFCURVE",
"375 346 OFFCURVE",
"375 475 CURVE SMOOTH",
"375 1020 LINE"
);
},
{
closed = 1;
nodes = (
"155 1271 OFFCURVE",
"206 1210 OFFCURVE",
"280 1210 CURVE SMOOTH",
"355 1210 OFFCURVE",
"410 1271 OFFCURVE",
"410 1345 CURVE SMOOTH",
"410 1419 OFFCURVE",
"355 1480 OFFCURVE",
"280 1480 CURVE SMOOTH",
"206 1480 OFFCURVE",
"155 1419 OFFCURVE",
"155 1345 CURVE SMOOTH"
);
}
);
width = 565;
},
{
anchors = (
{
name = H;
position = "{320, 0}";
},
{
name = L;
position = "{320, -100}";
},
{
name = O;
position = "{580, 0}";
},
{
name = R;
position = "{640, 1000}";
},
{
name = U;
position = "{320, 1100}";
}
);
layerId = "B46047BD-989B-43B8-9078-123A6A2C0348";
paths = (
{
closed = 1;
nodes = (
"178 915 OFFCURVE",
"180 725 OFFCURVE",
"180 530 CURVE SMOOTH",
"180 336 OFFCURVE",
"180 0 OFFCURVE",
"180 0 CURVE",
"480 0 LINE",
"467 107 OFFCURVE",
"460 346 OFFCURVE",
"460 475 CURVE SMOOTH",
"460 558 OFFCURVE",
"460 1020 OFFCURVE",
"460 1020 CURVE",
"165 1020 LINE"
);
},
{
closed = 1;
nodes = (
"145 1281 OFFCURVE",
"219 1210 OFFCURVE",
"320 1210 CURVE SMOOTH",
"422 1210 OFFCURVE",
"495 1281 OFFCURVE",
"495 1385 CURVE SMOOTH",
"495 1487 OFFCURVE",
"422 1560 OFFCURVE",
"320 1560 CURVE SMOOTH",
"219 1560 OFFCURVE",
"145 1487 OFFCURVE",
"145 1385 CURVE SMOOTH"
);
}
);
width = 640;
}
);
unicode = 0069;
},
{
glyphname = LtnSmJ;
layers = (
{
anchors = (
{
name = L;
position = "{125, -500}";
},
{
name = U;
position = "{313, 1100}";
}
);
layerId = "227CFDA3-9046-4C35-BCA7-2E12199138C9";
paths = (
{
closed = 1;
nodes = (
"205 1020 LINE",
"218 915 OFFCURVE",
"220 725 OFFCURVE",
"220 530 CURVE",
"220 -25 LINE",
"220 -222 OFFCURVE",
"147 -300 OFFCURVE",
"40 -300 CURVE SMOOTH",
"-16 -300 OFFCURVE",
"-111 -273 OFFCURVE",
"-155 -240 CURVE",
"-190 -405 LINE",
"-130 -446 OFFCURVE",
"-26 -470 OFFCURVE",
"30 -470 CURVE SMOOTH",
"258 -470 OFFCURVE",
"405 -348 OFFCURVE",
"405 25 CURVE SMOOTH",
"405 1020 LINE"
);
},
{
closed = 1;
nodes = (
"185 1271 OFFCURVE",
"236 1210 OFFCURVE",
"310 1210 CURVE SMOOTH",
"385 1210 OFFCURVE",
"440 1271 OFFCURVE",
"440 1345 CURVE SMOOTH",
"440 1419 OFFCURVE",
"385 1480 OFFCURVE",
"310 1480 CURVE SMOOTH",
"236 1480 OFFCURVE",
"185 1419 OFFCURVE",
"185 1345 CURVE SMOOTH"
);
}
);
width = 595;
},
{
anchors = (
{
name = L;
position = "{140, -500}";
},
{
name = U;
position = "{355, 1100}";
}
);
layerId = "B46047BD-989B-43B8-9078-123A6A2C0348";
paths = (
{
closed = 1;
nodes = (
"185 1281 OFFCURVE",
"259 1210 OFFCURVE",
"360 1210 CURVE SMOOTH",
"462 1210 OFFCURVE",
"535 1281 OFFCURVE",
"535 1385 CURVE SMOOTH",
"535 1487 OFFCURVE",
"462 1560 OFFCURVE",
"360 1560 CURVE SMOOTH",
"259 1560 OFFCURVE",
"185 1487 OFFCURVE",
"185 1385 CURVE SMOOTH"
);
},
{
closed = 1;
nodes = (
"205 1020 LINE",
"218 915 OFFCURVE",
"220 725 OFFCURVE",
"220 530 CURVE",
"220 20 LINE",
"220 -150 OFFCURVE",
"165 -232 OFFCURVE",
"48 -232 CURVE SMOOTH",
"-20 -232 OFFCURVE",
"-101 -195 OFFCURVE",
"-145 -152 CURVE",
"-190 -389 LINE",
"-148 -421 OFFCURVE",
"-37 -470 OFFCURVE",
"56 -470 CURVE SMOOTH",
"306 -470 OFFCURVE",
"500 -348 OFFCURVE",
"500 25 CURVE SMOOTH",
"500 1020 LINE"
);
}
);
width = 670;
}
);
unicode = 006A;
},
{
glyphname = LtnSmK;
layers = (
{
anchors = (
{
name = H;
position = "{243, 0}";
},
{
name = L;
position = "{572, -100}";
},
{
name = R;
position = "{1035, 1000}";
},
{
name = U;
position = "{572, 1635}";
}
);
layerId = "227CFDA3-9046-4C35-BCA7-2E12199138C9";
paths = (
{
closed = 1;
nodes = (
"330 1600 LINE",
"130 1600 LINE",
"145 1514 OFFCURVE",
"145 1345 OFFCURVE",
"145 1130 CURVE SMOOTH",
"145 934 OFFCURVE",
"145 0 OFFCURVE",
"145 0 CURVE",
"330 0 LINE"
);
},
{
closed = 1;
nodes = (
"280 550 LINE",
"436 524 LINE",
"985 1020 LINE",
"735 1020 LINE"
);
},
{
closed = 1;
nodes = (
"770 0 LINE",
"1015 0 LINE",
"410 660 LINE",
"305 550 LINE"
);
}
);
width = 1035;
},
{
anchors = (
{
name = H;
position = "{940, 0}";
},
{
name = L;
position = "{585, -100}";
},
{
name = R;
position = "{1140, 1000}";
},
{
name = U;
position = "{595, 1635}";
}
);
layerId = "B46047BD-989B-43B8-9078-123A6A2C0348";
paths = (
{
closed = 1;
nodes = (
"415 1600 LINE",
"120 1600 LINE",
"135 1514 OFFCURVE",
"135 1345 OFFCURVE",
"135 1130 CURVE SMOOTH",
"135 934 OFFCURVE",
"135 0 OFFCURVE",
"135 0 CURVE",
"415 0 LINE"
);
},
{
closed = 1;
nodes = (
"353 570 LINE",
"572 528 LINE",
"1098 1020 LINE",
"723 1020 LINE"
);
},
{
closed = 1;
nodes = (
"761 0 LINE",
"1128 0 LINE",
"540 664 LINE",
"350 570 LINE"
);
}
);
width = 1138;
}
);
unicode = 006B;
},
{
glyphname = LtnSmL;
layers = (
{
anchors = (
{
name = H;
position = "{290, 0}";
},
{
name = L;
position = "{290, -100}";
},
{
name = R;
position = "{550, 1000}";
},
{
name = U;
position = "{282, 1635}";
}
);
layerId = "227CFDA3-9046-4C35-BCA7-2E12199138C9";
paths = (
{
closed = 1;
nodes = (
"170 1600 LINE",
"183 1485 OFFCURVE",
"190 1324 OFFCURVE",
"190 1130 CURVE",
"190 0 LINE",
"395 0 LINE",
"382 109 OFFCURVE",
"375 346 OFFCURVE",
"375 475 CURVE SMOOTH",
"375 1600 LINE"
);
}
);
width = 565;
},
{
anchors = (
{
name = H;
position = "{335, 0}";
},
{
name = L;
position = "{335, -100}";
},
{
name = R;
position = "{660, 1000}";
},
{
name = U;
position = "{320, 1635}";
}
);
layerId = "B46047BD-989B-43B8-9078-123A6A2C0348";
paths = (
{
closed = 1;
nodes = (
"160 1600 LINE",
"173 1485 OFFCURVE",
"180 1324 OFFCURVE",
"180 1130 CURVE SMOOTH",
"180 0 LINE",
"480 0 LINE",
"467 109 OFFCURVE",
"460 346 OFFCURVE",
"460 475 CURVE SMOOTH",
"460 1600 LINE"
);
}
);
width = 640;
}
);
unicode = 006C;
},
{
glyphname = LtnSmM;
layers = (
{
anchors = (
{
name = H;
position = "{1450, 0}";
},
{
name = L;
position = "{865, -100}";
},
{
name = U;
position = "{865, 1100}";
}
);
layerId = "227CFDA3-9046-4C35-BCA7-2E12199138C9";
paths = (
{
closed = 1;
nodes = (
"1003 785 OFFCURVE",
"1102 865 OFFCURVE",
"1200 865 CURVE SMOOTH",
"1312 865 OFFCURVE",
"1345 808 OFFCURVE",
"1345 550 CURVE SMOOTH",
"1345 0 LINE",
"1530 0 LINE",
"1530 660 LINE SMOOTH",
"1530 907 OFFCURVE",
"1463 1040 OFFCURVE",
"1260 1040 CURVE SMOOTH",
"1155 1040 OFFCURVE",
"1046 1007 OFFCURVE",
"921 872 CURVE",
"888 960 OFFCURVE",
"806 1040 OFFCURVE",
"675 1040 CURVE SMOOTH",
"560 1040 OFFCURVE",
"459 1006 OFFCURVE",
"337 865 CURVE",
"330 913 OFFCURVE",
"320 978 OFFCURVE",
"305 1020 CURVE",
"125 1020 LINE",
"146 951 OFFCURVE",
"175 811 OFFCURVE",
"175 615 CURVE SMOOTH",
"175 0 LINE",
"360 0 LINE",
"360 660 LINE",
"413 780 OFFCURVE",
"517 865 OFFCURVE",
"615 865 CURVE SMOOTH",
"727 865 OFFCURVE",
"760 818 OFFCURVE",
"760 570 CURVE SMOOTH",
"760 0 LINE",
"945 0 LINE",
"945 660 LINE"
);
}
);
width = 1685;
},
{
anchors = (
{
name = H;
position = "{890, 0}";
},
{
name = L;
position = "{890, -100}";
},
{
name = U;
position = "{890, 1100}";
}
);
layerId = "B46047BD-989B-43B8-9078-123A6A2C0348";
paths = (
{
closed = 1;
nodes = (
"136 951 OFFCURVE",
"165 811 OFFCURVE",
"165 615 CURVE SMOOTH",
"165 0 LINE",
"445 0 LINE",
"445 640 LINE",
"484 731 OFFCURVE",
"560 795 OFFCURVE",
"635 795 CURVE SMOOTH",
"723 795 OFFCURVE",
"750 759 OFFCURVE",
"750 570 CURVE SMOOTH",
"750 0 LINE",
"1030 0 LINE",
"1030 660 LINE",
"1073 742 OFFCURVE",
"1147 795 OFFCURVE",
"1220 795 CURVE SMOOTH",
"1310 795 OFFCURVE",
"1335 751 OFFCURVE",
"1335 550 CURVE SMOOTH",
"1335 0 LINE",
"1615 0 LINE",
"1615 660 LINE SMOOTH",
"1615 907 OFFCURVE",
"1548 1040 OFFCURVE",
"1345 1040 CURVE SMOOTH",
"1240 1040 OFFCURVE",
"1131 1007 OFFCURVE",
"1006 872 CURVE",
"973 960 OFFCURVE",
"891 1040 OFFCURVE",
"760 1040 CURVE SMOOTH",
"644 1040 OFFCURVE",
"544 1008 OFFCURVE",
"422 875 CURVE",
"412 920 OFFCURVE",
"397 981 OFFCURVE",
"375 1020 CURVE",
"115 1020 LINE"
);
}
);
width = 1760;
}
);
unicode = 006D;
},
{
glyphname = LtnSmN;
layers = (
{
anchors = (
{
name = H;
position = "{970, 0}";
},
{
name = L;
position = "{600, -100}";
},
{
name = U;
position = "{600, 1100}";
}
);
layerId = "227CFDA3-9046-4C35-BCA7-2E12199138C9";
paths = (
{
closed = 1;
nodes = (
"1050 0 OFFCURVE",
"1050 459 OFFCURVE",
"1050 625 CURVE SMOOTH",
"1050 900 OFFCURVE",
"933 1040 OFFCURVE",
"720 1040 CURVE SMOOTH",
"579 1040 OFFCURVE",
"452 977 OFFCURVE",
"325 825 CURVE",
"318 873 OFFCURVE",
"300 978 OFFCURVE",
"285 1020 CURVE",
"105 1020 LINE",
"127 951 OFFCURVE",
"155 811 OFFCURVE",
"155 615 CURVE SMOOTH",
"155 420 OFFCURVE",
"155 0 OFFCURVE",
"155 0 CURVE",
"340 0 LINE",
"340 580 LINE",
"384 716 OFFCURVE",
"521 865 OFFCURVE",
"665 865 CURVE SMOOTH",
"800 865 OFFCURVE",
"865 800 OFFCURVE",
"865 550 CURVE SMOOTH",
"865 413 OFFCURVE",
"865 0 OFFCURVE",
"865 0 CURVE",
"1050 0 LINE"
);
}
);
width = 1185;
},
{
anchors = (
{
name = H;
position = "{620, 0}";
},
{
name = L;
position = "{620, -100}";
},
{
name = U;
position = "{620, 1100}";
}
);
layerId = "B46047BD-989B-43B8-9078-123A6A2C0348";
paths = (
{
closed = 1;
nodes = (
"1120 0 OFFCURVE",
"1120 459 OFFCURVE",
"1120 625 CURVE SMOOTH",
"1120 900 OFFCURVE",
"998 1040 OFFCURVE",
"795 1040 CURVE SMOOTH",
"654 1040 OFFCURVE",
"537 980 OFFCURVE",
"410 835 CURVE",
"403 881 OFFCURVE",
"385 980 OFFCURVE",
"370 1020 CURVE",
"95 1020 LINE",
"117 951 OFFCURVE",
"145 811 OFFCURVE",
"145 615 CURVE SMOOTH",
"145 420 OFFCURVE",
"145 0 OFFCURVE",
"145 0 CURVE",
"425 0 LINE",
"425 580 LINE",
"460 683 OFFCURVE",
"570 795 OFFCURVE",
"685 795 CURVE SMOOTH",
"792 795 OFFCURVE",
"840 734 OFFCURVE",
"840 550 CURVE SMOOTH",
"840 413 OFFCURVE",
"840 0 OFFCURVE",
"840 0 CURVE",
"1120 0 LINE"
);
}
);
width = 1245;
}
);
unicode = 006E;
},
{
glyphname = LtnSmO;
layers = (
{
anchors = (
{
name = H;
position = "{570, 0}";
},
{
name = L;
position = "{570, -100}";
},
{
name = O;
position = "{835, 0}";
},
{
name = R;
position = "{1140, 1000}";
},
{
name = U;
position = "{570, 1100}";
}
);
layerId = "227CFDA3-9046-4C35-BCA7-2E12199138C9";
paths = (
{
closed = 1;
nodes = (
"95 161 OFFCURVE",
"286 -25 OFFCURVE",
"560 -25 CURVE SMOOTH",
"823 -25 OFFCURVE",
"1045 161 OFFCURVE",
"1045 505 CURVE SMOOTH",
"1045 849 OFFCURVE",
"855 1040 OFFCURVE",
"580 1040 CURVE SMOOTH",
"317 1040 OFFCURVE",
"95 849 OFFCURVE",
"95 505 CURVE SMOOTH"
);
},
{
closed = 1;
nodes = (
"280 739 OFFCURVE",
"408 880 OFFCURVE",
"570 880 CURVE SMOOTH",
"742 880 OFFCURVE",
"860 739 OFFCURVE",
"860 505 CURVE SMOOTH",
"860 272 OFFCURVE",
"731 135 OFFCURVE",
"570 135 CURVE SMOOTH",
"398 135 OFFCURVE",
"280 272 OFFCURVE",
"280 505 CURVE SMOOTH"
);
}
);
width = 1140;
},
{
anchors = (
{
name = H;
position = "{578, 0}";
},
{
name = L;
position = "{580, -100}";
},
{
name = O;
position = "{790, 0}";
},
{
name = R;
position = "{1160, 1000}";
},
{
name = U;
position = "{580, 1100}";
}
);
layerId = "B46047BD-989B-43B8-9078-123A6A2C0348";
paths = (
{
closed = 1;
nodes = (
"90 163 OFFCURVE",
"288 -25 OFFCURVE",
"570 -25 CURVE SMOOTH",
"840 -25 OFFCURVE",
"1070 163 OFFCURVE",
"1070 507 CURVE SMOOTH",
"1070 851 OFFCURVE",
"873 1040 OFFCURVE",
"590 1040 CURVE SMOOTH",
"320 1040 OFFCURVE",
"90 851 OFFCURVE",
"90 507 CURVE SMOOTH"
);
},
{
closed = 1;
nodes = (
"370 699 OFFCURVE",
"451 815 OFFCURVE",
"580 815 CURVE SMOOTH",
"717 815 OFFCURVE",
"790 699 OFFCURVE",
"790 507 CURVE SMOOTH",
"790 316 OFFCURVE",
"709 200 OFFCURVE",
"580 200 CURVE SMOOTH",
"443 200 OFFCURVE",
"370 316 OFFCURVE",
"370 507 CURVE SMOOTH"
);
}
);
width = 1160;
}
);
unicode = 006F;
},
{
glyphname = LtnSmP;
layers = (
{
anchors = (
{
name = H;
position = "{265, -435}";
},
{
name = L;
position = "{590, -500}";
},
{
name = R;
position = "{1170, 1000}";
},
{
name = U;
position = "{590, 1100}";
}
);
layerId = "227CFDA3-9046-4C35-BCA7-2E12199138C9";
paths = (
{
closed = 1;
nodes = (
"150 907 OFFCURVE",
"155 734 OFFCURVE",
"155 485 CURVE SMOOTH",
"155 291 OFFCURVE",
"155 -490 OFFCURVE",
"155 -490 CURVE",
"365 -490 LINE",
"348 -405 OFFCURVE",
"340 -310 OFFCURVE",
"340 -150 CURVE",
"340 85 LINE",
"435 18 OFFCURVE",
"513 -25 OFFCURVE",
"620 -25 CURVE SMOOTH",
"871 -25 OFFCURVE",
"1075 193 OFFCURVE",
"1075 535 CURVE SMOOTH",
"1075 828 OFFCURVE",
"923 1040 OFFCURVE",
"695 1040 CURVE SMOOTH",
"547 1040 OFFCURVE",
"419 954 OFFCURVE",
"325 830 CURVE",
"316 922 OFFCURVE",
"300 986 OFFCURVE",
"285 1020 CURVE",
"105 1020 LINE"
);
},
{
closed = 1;
nodes = (
"414 768 OFFCURVE",
"545 870 OFFCURVE",
"660 870 CURVE SMOOTH",
"804 870 OFFCURVE",
"890 727 OFFCURVE",
"890 505 CURVE SMOOTH",
"890 279 OFFCURVE",
"761 140 OFFCURVE",
"620 140 CURVE SMOOTH",
"528 140 OFFCURVE",
"477 164 OFFCURVE",
"340 260 CURVE",
"340 575 LINE"
);
}
);
width = 1170;
},
{
anchors = (
{
name = H;
position = "{290, -435}";
},
{
name = L;
position = "{640, -500}";
},
{
name = R;
position = "{1235, 1000}";
},
{
name = U;
position = "{640, 1100}";
}
);
layerId = "B46047BD-989B-43B8-9078-123A6A2C0348";
paths = (
{
closed = 1;
nodes = (
"433 -405 OFFCURVE",
"425 -310 OFFCURVE",
"425 -150 CURVE SMOOTH",
"425 -71 OFFCURVE",
"425 -41 OFFCURVE",
"425 65 CURVE",
"518 10 OFFCURVE",
"594 -25 OFFCURVE",
"699 -25 CURVE SMOOTH",
"945 -25 OFFCURVE",
"1145 193 OFFCURVE",
"1145 535 CURVE SMOOTH",
"1145 828 OFFCURVE",
"996 1040 OFFCURVE",
"773 1040 CURVE SMOOTH",
"628 1040 OFFCURVE",
"502 962 OFFCURVE",
"410 850 CURVE",
"401 932 OFFCURVE",
"385 990 OFFCURVE",
"370 1020 CURVE",
"95 1020 LINE",
"140 907 OFFCURVE",
"145 734 OFFCURVE",
"145 485 CURVE SMOOTH",
"145 291 OFFCURVE",
"145 -345 OFFCURVE",
"145 -490 CURVE",
"450 -490 LINE"
);
},
{
closed = 1;
nodes = (
"564 206 OFFCURVE",
"527 225 OFFCURVE",
"425 300 CURVE",
"425 390 OFFCURVE",
"425 507 OFFCURVE",
"425 585 CURVE",
"482 726 OFFCURVE",
"583 802 OFFCURVE",
"672 802 CURVE SMOOTH",
"793 802 OFFCURVE",
"865 686 OFFCURVE",
"865 505 CURVE SMOOTH",
"865 320 OFFCURVE",
"755 206 OFFCURVE",
"633 206 CURVE SMOOTH"
);
}
);
width = 1235;
}
);
unicode = 0070;
},
{
glyphname = LtnSmQ;
layers = (
{
anchors = (
{
name = L;
position = "{555, -500}";
},
{
name = R;
position = "{1130, 1000}";
},
{
name = U;
position = "{555, 1100}";
}
);
layerId = "227CFDA3-9046-4C35-BCA7-2E12199138C9";
paths = (
{
closed = 1;
nodes = (
"1005 -490 LINE",
"988 -405 OFFCURVE",
"980 -310 OFFCURVE",
"980 -150 CURVE SMOOTH",
"980 -26 OFFCURVE",
"980 965 OFFCURVE",
"980 965 CURVE",
"872 1001 OFFCURVE",
"746 1040 OFFCURVE",
"625 1040 CURVE SMOOTH",
"260 1040 OFFCURVE",
"105 742 OFFCURVE",
"105 435 CURVE SMOOTH",
"105 117 OFFCURVE",
"321 -25 OFFCURVE",
"505 -25 CURVE SMOOTH",
"598 -25 OFFCURVE",
"691 19 OFFCURVE",
"795 140 CURVE",
"795 -490 LINE"
);
},
{
closed = 1;
nodes = (
"713 219 OFFCURVE",
"612 145 OFFCURVE",
"520 145 CURVE SMOOTH",
"412 145 OFFCURVE",
"290 237 OFFCURVE",
"290 485 CURVE SMOOTH",
"290 674 OFFCURVE",
"376 870 OFFCURVE",
"595 870 CURVE SMOOTH",
"656 870 OFFCURVE",
"735 853 OFFCURVE",
"795 830 CURVE",
"795 365 LINE"
);
}
);
width = 1130;
},
{
anchors = (
{
name = L;
position = "{600, -500}";
},
{
name = R;
position = "{1210, 1000}";
},
{
name = U;
position = "{600, 1100}";
}
);
layerId = "B46047BD-989B-43B8-9078-123A6A2C0348";
paths = (
{
closed = 1;
nodes = (
"1095 -490 LINE",
"1078 -405 OFFCURVE",
"1070 -310 OFFCURVE",
"1070 -150 CURVE SMOOTH",
"1070 -26 OFFCURVE",
"1070 965 OFFCURVE",
"1070 965 CURVE",
"934 1001 OFFCURVE",
"773 1040 OFFCURVE",
"620 1040 CURVE SMOOTH",
"255 1040 OFFCURVE",
"100 742 OFFCURVE",
"100 435 CURVE SMOOTH",
"100 117 OFFCURVE",
"316 -25 OFFCURVE",
"500 -25 CURVE SMOOTH",
"593 -25 OFFCURVE",
"686 14 OFFCURVE",
"790 120 CURVE",
"790 -490 LINE"
);
},
{
closed = 1;
nodes = (
"727 258 OFFCURVE",
"650 203 OFFCURVE",
"580 203 CURVE SMOOTH",
"475 203 OFFCURVE",
"380 287 OFFCURVE",
"380 485 CURVE SMOOTH",
"380 641 OFFCURVE",
"456 802 OFFCURVE",
"655 802 CURVE SMOOTH",
"696 802 OFFCURVE",
"749 789 OFFCURVE",
"790 770 CURVE",
"790 368 LINE"
);
}
);
width = 1210;
}
);
unicode = 0071;
},
{
glyphname = LtnSmR;
layers = (
{
anchors = (
{
name = H;
position = "{270, 0}";
},
{
name = L;
position = "{255, -100}";
},
{
name = U;
position = "{455, 1100}";
}
);
layerId = "227CFDA3-9046-4C35-BCA7-2E12199138C9";
paths = (
{
closed = 1;
nodes = (
"340 580 LINE",
"384 716 OFFCURVE",
"521 860 OFFCURVE",
"605 860 CURVE SMOOTH",
"684 860 OFFCURVE",
"720 770 OFFCURVE",
"720 670 CURVE",
"880 705 LINE",
"880 880 OFFCURVE",
"817 1040 OFFCURVE",
"650 1040 CURVE SMOOTH",
"559 1040 OFFCURVE",
"422 964 OFFCURVE",
"325 825 CURVE",
"318 873 OFFCURVE",
"300 978 OFFCURVE",
"285 1020 CURVE",
"105 1020 LINE",
"127 951 OFFCURVE",
"155 811 OFFCURVE",
"155 615 CURVE SMOOTH",
"155 0 LINE",
"340 0 LINE"
);
}
);
width = 890;
},
{
anchors = (
{
name = H;
position = "{285, 0}";
},
{
name = L;
position = "{275, -100}";
},
{
name = U;
position = "{550, 1100}";
}
);
layerId = "B46047BD-989B-43B8-9078-123A6A2C0348";
paths = (
{
closed = 1;
nodes = (
"425 530 LINE",
"460 654 OFFCURVE",
"570 781 OFFCURVE",
"637 781 CURVE SMOOTH",
"722 781 OFFCURVE",
"755 721 OFFCURVE",
"762 630 CURVE",
"985 665 LINE",
"985 868 OFFCURVE",
"913 1040 OFFCURVE",
"725 1040 CURVE SMOOTH",
"634 1040 OFFCURVE",
"507 964 OFFCURVE",
"410 825 CURVE",
"403 873 OFFCURVE",
"385 978 OFFCURVE",
"370 1020 CURVE",
"95 1020 LINE",
"117 951 OFFCURVE",
"145 811 OFFCURVE",
"145 615 CURVE SMOOTH",
"145 0 LINE",
"425 0 LINE"
);
}
);
width = 995;
}
);
unicode = 0072;
},
{
glyphname = LtnSmS;
layers = (
{
anchors = (
{
name = H;
position = "{495, 0}";
},
{
name = L;
position = "{495, -100}";
},
{
name = U;
position = "{495, 1100}";
}
);
layerId = "227CFDA3-9046-4C35-BCA7-2E12199138C9";
paths = (
{
closed = 1;
nodes = (
"766 998 OFFCURVE",
"660 1040 OFFCURVE",
"515 1040 CURVE SMOOTH",
"211 1040 OFFCURVE",
"130 832 OFFCURVE",
"130 740 CURVE SMOOTH",
"130 616 OFFCURVE",
"182 514 OFFCURVE",
"425 455 CURVE SMOOTH",
"649 400 OFFCURVE",
"700 345 OFFCURVE",
"700 270 CURVE SMOOTH",
"700 201 OFFCURVE",
"617 135 OFFCURVE",
"500 135 CURVE SMOOTH",
"394 135 OFFCURVE",
"250 189 OFFCURVE",
"160 270 CURVE",
"110 90 LINE",
"189 28 OFFCURVE",
"333 -25 OFFCURVE",
"495 -25 CURVE SMOOTH",
"710 -25 OFFCURVE",
"880 115 OFFCURVE",
"880 295 CURVE SMOOTH",
"880 481 OFFCURVE",
"731 559 OFFCURVE",
"550 600 CURVE SMOOTH",
"340 648 OFFCURVE",
"310 680 OFFCURVE",
"310 750 CURVE SMOOTH",
"310 810 OFFCURVE",
"358 880 OFFCURVE",
"505 880 CURVE SMOOTH",
"629 880 OFFCURVE",
"733 824 OFFCURVE",
"800 785 CURVE",
"835 960 LINE"
);
}
);
width = 965;
},
{
anchors = (
{
name = H;
position = "{515, 0}";
},
{
name = L;
position = "{515, -100}";
},
{
name = U;
position = "{530, 1100}";
}
);
layerId = "B46047BD-989B-43B8-9078-123A6A2C0348";
paths = (
{
closed = 1;
nodes = (
"827 998 OFFCURVE",
"708 1040 OFFCURVE",
"545 1040 CURVE SMOOTH",
"202 1040 OFFCURVE",
"110 818 OFFCURVE",
"110 720 CURVE SMOOTH",
"110 594 OFFCURVE",
"171 491 OFFCURVE",
"455 432 CURVE SMOOTH",
"646 390 OFFCURVE",
"690 348 OFFCURVE",
"690 290 CURVE SMOOTH",
"690 243 OFFCURVE",
"624 199 OFFCURVE",
"530 199 CURVE SMOOTH",
"413 199 OFFCURVE",
"254 253 OFFCURVE",
"155 334 CURVE",
"100 90 LINE",
"187 28 OFFCURVE",
"346 -25 OFFCURVE",
"525 -25 CURVE SMOOTH",
"768 -25 OFFCURVE",
"960 123 OFFCURVE",
"960 315 CURVE SMOOTH",
"960 504 OFFCURVE",
"788 583 OFFCURVE",
"580 625 CURVE SMOOTH",
"405 659 OFFCURVE",
"380 681 OFFCURVE",
"380 730 CURVE SMOOTH",
"380 770 OFFCURVE",
"418 816 OFFCURVE",
"535 816 CURVE SMOOTH",
"674 816 OFFCURVE",
"791 760 OFFCURVE",
"866 721 CURVE",
"905 960 LINE"
);
}
);
width = 1035;
}
);
unicode = 0073;
},
{
glyphname = LtnSmT;
layers = (
{
anchors = (
{
name = H;
position = "{475, 0}";
},
{
name = L;
position = "{475, -100}";
},
{
name = R;
position = "{835, 1000}";
},
{
name = U;
position = "{325, 1360}";
}
);
layerId = "227CFDA3-9046-4C35-BCA7-2E12199138C9";
paths = (
{
closed = 1;
nodes = (
"672 166 OFFCURVE",
"600 140 OFFCURVE",
"543 140 CURVE SMOOTH",
"453 140 OFFCURVE",
"415 184 OFFCURVE",
"415 390 CURVE SMOOTH",
"415 528 OFFCURVE",
"415 1320 OFFCURVE",
"415 1320 CURVE",
"230 1320 LINE",
"230 1320 OFFCURVE",
"230 435 OFFCURVE",
"230 270 CURVE SMOOTH",
"230 39 OFFCURVE",
"356 -25 OFFCURVE",
"512 -25 CURVE SMOOTH",
"582 -25 OFFCURVE",
"668 -4 OFFCURVE",
"760 55 CURVE",
"760 215 LINE"
);
},
{
closed = 1;
nodes = (
"740 850 LINE",
"740 995 LINE",
"30 995 LINE",
"30 850 LINE"
);
}
);
width = 835;
},
{
anchors = (
{
name = H;
position = "{530, 0}";
},
{
name = L;
position = "{530, -100}";
},
{
name = R;
position = "{885, 1000}";
},
{
name = U;
position = "{360, 1360}";
}
);
layerId = "B46047BD-989B-43B8-9078-123A6A2C0348";
paths = (
{
closed = 1;
nodes = (
"220 39 OFFCURVE",
"374 -25 OFFCURVE",
"563 -25 CURVE SMOOTH",
"635 -25 OFFCURVE",
"725 -3 OFFCURVE",
"820 57 CURVE",
"820 281 LINE",
"741 232 OFFCURVE",
"678 206 OFFCURVE",
"627 206 CURVE SMOOTH",
"537 206 OFFCURVE",
"500 235 OFFCURVE",
"500 462 CURVE SMOOTH",
"500 1320 LINE",
"220 1320 LINE",
"220 270 LINE"
);
},
{
closed = 1;
nodes = (
"805 1005 LINE",
"30 1005 LINE",
"30 805 LINE",
"805 805 LINE"
);
}
);
width = 885;
}
);
unicode = 0074;
},
{
glyphname = LtnSmU;
layers = (
{
anchors = (
{
name = H;
position = "{589, 0}";
},
{
name = L;
position = "{589, -100}";
},
{
name = O;
position = "{1192, 0}";
},
{
name = R;
position = "{1185, 1000}";
},
{
name = U;
position = "{589, 1100}";
}
);
layerId = "227CFDA3-9046-4C35-BCA7-2E12199138C9";
paths = (
{
closed = 1;
nodes = (
"1048 112 OFFCURVE",
"1025 256 OFFCURVE",
"1025 450 CURVE SMOOTH",
"1025 646 OFFCURVE",
"1025 1020 OFFCURVE",
"1025 1020 CURVE",
"820 1020 LINE",
"838 898 OFFCURVE",
"840 832 OFFCURVE",
"840 700 CURVE SMOOTH",
"840 420 LINE",
"787 298 OFFCURVE",
"628 140 OFFCURVE",
"510 140 CURVE SMOOTH",
"383 140 OFFCURVE",
"340 238 OFFCURVE",
"340 465 CURVE SMOOTH",
"340 603 OFFCURVE",
"340 1020 OFFCURVE",
"340 1020 CURVE",
"135 1020 LINE",
"153 900 OFFCURVE",
"155 827 OFFCURVE",
"155 700 CURVE SMOOTH",
"155 681 OFFCURVE",
"155 424 OFFCURVE",
"155 405 CURVE SMOOTH",
"155 120 OFFCURVE",
"262 -25 OFFCURVE",
"475 -25 CURVE SMOOTH",
"615 -25 OFFCURVE",
"744 53 OFFCURVE",
"865 200 CURVE",
"875 125 OFFCURVE",
"901 46 OFFCURVE",
"920 0 CURVE",
"1090 0 LINE"
);
}
);
width = 1185;
},
{
anchors = (
{
name = H;
position = "{515, 0}";
},
{
name = L;
position = "{615, -100}";
},
{
name = O;
position = "{690, 0}";
},
{
name = R;
position = "{1258, 1000}";
},
{
name = U;
position = "{615, 1100}";
}
);
layerId = "B46047BD-989B-43B8-9078-123A6A2C0348";
paths = (
{
closed = 1;
nodes = (
"1118 112 OFFCURVE",
"1095 256 OFFCURVE",
"1095 450 CURVE SMOOTH",
"1095 646 OFFCURVE",
"1095 1020 OFFCURVE",
"1095 1020 CURVE",
"795 1020 LINE",
"813 898 OFFCURVE",
"815 832 OFFCURVE",
"815 700 CURVE SMOOTH",
"815 418 LINE",
"774 326 OFFCURVE",
"651 206 OFFCURVE",
"560 206 CURVE SMOOTH",
"458 206 OFFCURVE",
"425 284 OFFCURVE",
"425 465 CURVE SMOOTH",
"425 603 OFFCURVE",
"425 1020 OFFCURVE",
"425 1020 CURVE",
"125 1020 LINE",
"143 900 OFFCURVE",
"145 827 OFFCURVE",
"145 700 CURVE SMOOTH",
"145 681 OFFCURVE",
"145 424 OFFCURVE",
"145 405 CURVE SMOOTH",
"145 120 OFFCURVE",
"250 -25 OFFCURVE",
"458 -25 CURVE SMOOTH",
"595 -25 OFFCURVE",
"722 48 OFFCURVE",
"840 185 CURVE",
"850 116 OFFCURVE",
"876 43 OFFCURVE",
"895 0 CURVE",
"1160 0 LINE"
);
}
);
width = 1245;
}
);
unicode = 0075;
},
{
glyphname = LtnSmV;
layers = (
{
anchors = (
{
name = H;
position = "{549, 0}";
},
{
name = L;
position = "{535, -100}";
},
{
name = O;
position = "{725, 0}";
},
{
name = U;
position = "{535, 1100}";
}
);
layerId = "227CFDA3-9046-4C35-BCA7-2E12199138C9";
paths = (
{
closed = 1;
nodes = (
"535 200 LINE",
"230 1020 LINE",
"20 1020 LINE",
"75 905 OFFCURVE",
"143 746 OFFCURVE",
"175 665 CURVE SMOOTH",
"237 510 OFFCURVE",
"440 0 OFFCURVE",
"440 0 CURVE",
"630 0 LINE",
"630 0 OFFCURVE",
"842 536 OFFCURVE",
"895 665 CURVE SMOOTH",
"928 744 OFFCURVE",
"993 905 OFFCURVE",
"1050 1020 CURVE",
"840 1020 LINE"
);
}
);
width = 1070;
},
{
anchors = (
{
name = H;
position = "{565, 0}";
},
{
name = L;
position = "{565, -100}";
},
{
name = O;
position = "{750, 0}";
},
{
name = U;
position = "{565, 1100}";
}
);
layerId = "B46047BD-989B-43B8-9078-123A6A2C0348";
paths = (
{
closed = 1;
nodes = (
"556 290 LINE",
"322 1020 LINE",
"10 1020 LINE",
"65 905 OFFCURVE",
"133 746 OFFCURVE",
"165 665 CURVE SMOOTH",
"227 510 OFFCURVE",
"430 0 OFFCURVE",
"430 0 CURVE",
"674 0 LINE",
"674 0 OFFCURVE",
"886 536 OFFCURVE",
"939 665 CURVE SMOOTH",
"972 744 OFFCURVE",
"1037 905 OFFCURVE",
"1094 1020 CURVE",
"786 1020 LINE"
);
}
);
width = 1104;
}
);
unicode = 0076;
},
{
glyphname = LtnSmW;
layers = (
{
anchors = (
{
name = L;
position = "{775, -100}";
},
{
name = U;
position = "{775, 1100}";
}
);
layerId = "227CFDA3-9046-4C35-BCA7-2E12199138C9";
paths = (
{
closed = 1;
nodes = (
"440 215 LINE",
"230 1020 LINE",
"45 1020 LINE",
"92 867 OFFCURVE",
"120 771 OFFCURVE",
"150 665 CURVE SMOOTH",
"335 0 LINE",
"525 0 LINE",
"775 785 LINE",
"1025 0 LINE",
"1215 0 LINE",
"1400 665 LINE SMOOTH",
"1434 785 OFFCURVE",
"1458 868 OFFCURVE",
"1505 1020 CURVE",
"1320 1020 LINE",
"1110 215 LINE",
"850 1020 LINE",
"700 1020 LINE"
);
}
);
width = 1550;
},
{
anchors = (
{
name = L;
position = "{785, -100}";
},
{
name = U;
position = "{785, 1100}";
}
);
layerId = "B46047BD-989B-43B8-9078-123A6A2C0348";
paths = (
{
closed = 1;
nodes = (
"480 285 LINE",
"323 1020 LINE",
"35 1020 LINE",
"82 867 OFFCURVE",
"110 771 OFFCURVE",
"140 665 CURVE SMOOTH",
"325 0 LINE",
"615 0 LINE",
"785 695 LINE",
"955 0 LINE",
"1245 0 LINE",
"1430 665 LINE SMOOTH",
"1464 785 OFFCURVE",
"1488 868 OFFCURVE",
"1535 1020 CURVE",
"1247 1020 LINE",
"1090 285 LINE",
"905 1020 LINE",
"665 1020 LINE"
);
}
);
width = 1570;
}
);
unicode = 0077;
},
{
glyphname = LtnSmX;
layers = (
{
anchors = (
{
name = H;
position = "{900, 0}";
},
{
name = L;
position = "{542, -100}";
},
{
name = U;
position = "{542, 1100}";
}
);
layerId = "227CFDA3-9046-4C35-BCA7-2E12199138C9";
paths = (
{
closed = 1;
nodes = (
"1035 0 LINE",
"927 142 OFFCURVE",
"902 170 OFFCURVE",
"830 270 CURVE SMOOTH",
"290 1020 LINE",
"60 1020 LINE",
"168 887 OFFCURVE",
"203 843 OFFCURVE",
"270 750 CURVE",
"805 0 LINE"
);
},
{
closed = 1;
nodes = (
"250 270 LINE SMOOTH",
"189 182 OFFCURVE",
"160 143 OFFCURVE",
"50 0 CURVE",
"275 0 LINE",
"556 404 LINE",
"489 616 LINE"
);
},
{
closed = 1;
nodes = (
"820 750 LINE SMOOTH",
"883 842 OFFCURVE",
"917 886 OFFCURVE",
"1020 1020 CURVE",
"795 1020 LINE",
"520 615 LINE",
"585 405 LINE"
);
}
);
width = 1085;
},
{
anchors = (
{
name = H;
position = "{960, 0}";
},
{
name = L;
position = "{590, -100}";
},
{
name = U;
position = "{615, 1100}";
}
);
layerId = "B46047BD-989B-43B8-9078-123A6A2C0348";
paths = (
{
closed = 1;
nodes = (
"1145 0 LINE",
"1037 129 OFFCURVE",
"989 190 OFFCURVE",
"930 270 CURVE SMOOTH",
"380 1020 LINE",
"50 1020 LINE",
"158 887 OFFCURVE",
"192 842 OFFCURVE",
"260 750 CURVE SMOOTH",
"815 0 LINE"
);
},
{
closed = 1;
nodes = (
"245 270 LINE SMOOTH",
"195 201 OFFCURVE",
"150 143 OFFCURVE",
"40 0 CURVE",
"345 0 LINE",
"584 359 LINE",
"499 616 LINE"
);
},
{
closed = 1;
nodes = (
"925 750 LINE SMOOTH",
"980 826 OFFCURVE",
"1027 886 OFFCURVE",
"1130 1020 CURVE",
"825 1020 LINE",
"595 668 LINE",
"675 405 LINE"
);
}
);
width = 1185;
}
);
unicode = 0078;
},
{
glyphname = LtnSmY;
layers = (
{
anchors = (
{
name = L;
position = "{795, -100}";
},
{
name = R;
position = "{1120, 1000}";
},
{
name = U;
position = "{535, 1100}";
}
);
layerId = "227CFDA3-9046-4C35-BCA7-2E12199138C9";
paths = (
{
closed = 1;
nodes = (
"230 1020 LINE",
"30 1020 LINE",
"107 864 OFFCURVE",
"153 756 OFFCURVE",
"190 665 CURVE SMOOTH",
"525 -165 LINE",
"610 60 LINE"
);
},
{
closed = 1;
nodes = (
"928 758 OFFCURVE",
"971 865 OFFCURVE",
"1040 1020 CURVE",
"840 1020 LINE",
"840 1020 OFFCURVE",
"564 230 OFFCURVE",
"500 55 CURVE SMOOTH",
"391 -248 OFFCURVE",
"315 -300 OFFCURVE",
"225 -300 CURVE SMOOTH",
"159 -300 OFFCURVE",
"82 -260 OFFCURVE",
"40 -225 CURVE",
"-20 -385 LINE",
"53 -439 OFFCURVE",
"134 -470 OFFCURVE",
"225 -470 CURVE SMOOTH",
"395 -470 OFFCURVE",
"516 -383 OFFCURVE",
"655 0 CURVE",
"895 665 LINE"
);
}
);
width = 1060;
},
{
anchors = (
{
name = L;
position = "{845, -100}";
},
{
name = R;
position = "{1155, 1000}";
},
{
name = U;
position = "{565, 1100}";
}
);
layerId = "B46047BD-989B-43B8-9078-123A6A2C0348";
paths = (
{
closed = 1;
nodes = (
"978 758 OFFCURVE",
"1021 865 OFFCURVE",
"1090 1020 CURVE",
"777 1020 LINE",
"777 1020 OFFCURVE",
"646 549 OFFCURVE",
"573 293 CURVE",
"333 1020 LINE",
"20 1020 LINE",
"97 864 OFFCURVE",
"144 757 OFFCURVE",
"180 665 CURVE SMOOTH",
"445 -18 LINE",
"366 -209 OFFCURVE",
"304 -242 OFFCURVE",
"245 -242 CURVE SMOOTH",
"179 -242 OFFCURVE",
"102 -202 OFFCURVE",
"60 -167 CURVE",
"-10 -385 LINE",
"63 -439 OFFCURVE",
"154 -470 OFFCURVE",
"245 -470 CURVE SMOOTH",
"427 -470 OFFCURVE",
"565 -387 OFFCURVE",
"705 0 CURVE SMOOTH",
"945 665 LINE SMOOTH"
);
}
);
width = 1100;
}
);
unicode = 0079;
},
{
glyphname = LtnSmZ;
layers = (
{
anchors = (
{
name = H;
position = "{525, 0}";
},
{
name = L;
position = "{525, -100}";
},
{
name = U;
position = "{525, 1100}";
}
);
layerId = "227CFDA3-9046-4C35-BCA7-2E12199138C9";
paths = (
{
closed = 1;
nodes = (
"135 855 LINE",
"172 870 OFFCURVE",
"231 870 OFFCURVE",
"290 870 CURVE SMOOTH",
"680 870 LINE",
"105 110 LINE",
"105 0 LINE",
"945 0 LINE",
"945 165 LINE",
"885 150 OFFCURVE",
"823 150 OFFCURVE",
"765 150 CURVE SMOOTH",
"335 150 LINE",
"930 925 LINE",
"930 1020 LINE",
"135 1020 LINE"
);
}
);
width = 1040;
},
{
anchors = (
{
name = H;
position = "{540, 0}";
},
{
name = L;
position = "{540, -100}";
},
{
name = U;
position = "{540, 1100}";
}
);
layerId = "B46047BD-989B-43B8-9078-123A6A2C0348";
paths = (
{
closed = 1;
nodes = (
"125 790 LINE",
"162 805 OFFCURVE",
"221 805 OFFCURVE",
"280 805 CURVE SMOOTH",
"615 805 LINE",
"95 159 LINE",
"95 0 LINE",
"975 0 LINE",
"975 230 LINE",
"902 215 OFFCURVE",
"826 215 OFFCURVE",
"755 215 CURVE SMOOTH",
"430 215 LINE",
"960 876 LINE",
"960 1020 LINE",
"125 1020 LINE"
);
}
);
width = 1060;
}
);
unicode = 007A;
},
{
glyphname = LftCurlyBrac;
layers = (
{
layerId = "227CFDA3-9046-4C35-BCA7-2E12199138C9";
paths = (
{
closed = 1;
nodes = (
"210 583 OFFCURVE",
"383 486 OFFCURVE",
"410 450 CURVE SMOOTH",
"434 418 OFFCURVE",
"424 -205 OFFCURVE",
"495 -285 CURVE SMOOTH",
"535 -330 OFFCURVE",
"696 -383 OFFCURVE",
"800 -410 CURVE",
"840 -270 LINE",
"773 -247 OFFCURVE",
"650 -198 OFFCURVE",
"630 -170 CURVE SMOOTH",
"597 -123 OFFCURVE",
"610 447 OFFCURVE",
"590 485 CURVE SMOOTH",
"571 521 OFFCURVE",
"434 593 OFFCURVE",
"430 615 CURVE",
"434 637 OFFCURVE",
"571 709 OFFCURVE",
"590 745 CURVE SMOOTH",
"610 783 OFFCURVE",
"597 1353 OFFCURVE",
"630 1400 CURVE SMOOTH",
"650 1428 OFFCURVE",
"773 1477 OFFCURVE",
"840 1500 CURVE",
"800 1640 LINE",
"696 1613 OFFCURVE",
"535 1560 OFFCURVE",
"495 1515 CURVE SMOOTH",
"424 1435 OFFCURVE",
"434 812 OFFCURVE",
"410 780 CURVE SMOOTH",
"383 744 OFFCURVE",
"210 647 OFFCURVE",
"210 615 CURVE SMOOTH"
);
}
);
width = 1000;
},
{
layerId = "B46047BD-989B-43B8-9078-123A6A2C0348";
paths = (
{
closed = 1;
nodes = (
"828 -160 OFFCURVE",
"704 -122 OFFCURVE",
"685 -100 CURVE SMOOTH",
"650 -60 OFFCURVE",
"663 411 OFFCURVE",
"645 445 CURVE SMOOTH",
"621 491 OFFCURVE",
"483 580 OFFCURVE",
"483 615 CURVE SMOOTH",
"483 650 OFFCURVE",
"620 740 OFFCURVE",
"643 785 CURVE SMOOTH",
"661 820 OFFCURVE",
"650 1289 OFFCURVE",
"685 1330 CURVE SMOOTH",
"702 1351 OFFCURVE",
"807 1390 OFFCURVE",
"870 1409 CURVE",
"820 1640 LINE",
"692 1613 OFFCURVE",
"502 1562 OFFCURVE",
"455 1515 CURVE SMOOTH",
"381 1442 OFFCURVE",
"392 852 OFFCURVE",
"370 820 CURVE SMOOTH",
"340 777 OFFCURVE",
"170 670 OFFCURVE",
"170 615 CURVE SMOOTH",
"170 560 OFFCURVE",
"340 453 OFFCURVE",
"370 410 CURVE SMOOTH",
"392 378 OFFCURVE",
"380 -213 OFFCURVE",
"455 -285 CURVE SMOOTH",
"505 -333 OFFCURVE",
"709 -383 OFFCURVE",
"845 -410 CURVE",
"895 -179 LINE"
);
}
);
width = 1040;
}
);
unicode = 007B;
},
{
glyphname = VertLine;
layers = (
{
layerId = "227CFDA3-9046-4C35-BCA7-2E12199138C9";
paths = (
{
closed = 1;
nodes = (
"270 -390 LINE",
"420 -390 LINE",
"420 1600 LINE",
"270 1600 LINE"
);
}
);
width = 690;
},
{
layerId = "B46047BD-989B-43B8-9078-123A6A2C0348";
paths = (
{
closed = 1;
nodes = (
"240 -390 LINE",
"450 -390 LINE",
"450 1600 LINE",
"240 1600 LINE"
);
}
);
width = 690;
}
);
unicode = 007C;
},
{
glyphname = RtCurlyBrac;
layers = (
{
layerId = "227CFDA3-9046-4C35-BCA7-2E12199138C9";
paths = (
{
closed = 1;
nodes = (
"790 647 OFFCURVE",
"617 744 OFFCURVE",
"590 780 CURVE SMOOTH",
"566 812 OFFCURVE",
"576 1435 OFFCURVE",
"505 1515 CURVE SMOOTH",
"465 1560 OFFCURVE",
"304 1613 OFFCURVE",
"200 1640 CURVE",
"160 1500 LINE",
"227 1477 OFFCURVE",
"350 1428 OFFCURVE",
"370 1400 CURVE SMOOTH",
"403 1353 OFFCURVE",
"390 783 OFFCURVE",
"410 745 CURVE SMOOTH",
"429 709 OFFCURVE",
"566 637 OFFCURVE",
"570 615 CURVE",
"566 593 OFFCURVE",
"429 521 OFFCURVE",
"410 485 CURVE SMOOTH",
"390 447 OFFCURVE",
"403 -123 OFFCURVE",
"370 -170 CURVE SMOOTH",
"350 -198 OFFCURVE",
"227 -247 OFFCURVE",
"160 -270 CURVE",
"200 -410 LINE",
"304 -383 OFFCURVE",
"465 -330 OFFCURVE",
"505 -285 CURVE SMOOTH",
"576 -205 OFFCURVE",
"566 418 OFFCURVE",
"590 450 CURVE SMOOTH",
"617 486 OFFCURVE",
"790 583 OFFCURVE",
"790 615 CURVE SMOOTH"
);
}
);
width = 1000;
},
{
layerId = "B46047BD-989B-43B8-9078-123A6A2C0348";
paths = (
{
closed = 1;
nodes = (
"316 -383 OFFCURVE",
"520 -333 OFFCURVE",
"570 -285 CURVE SMOOTH",
"645 -213 OFFCURVE",
"633 378 OFFCURVE",
"655 410 CURVE SMOOTH",
"685 453 OFFCURVE",
"855 560 OFFCURVE",
"855 615 CURVE SMOOTH",
"855 670 OFFCURVE",
"685 777 OFFCURVE",
"655 820 CURVE SMOOTH",
"633 852 OFFCURVE",
"644 1442 OFFCURVE",
"570 1515 CURVE SMOOTH",
"523 1562 OFFCURVE",
"333 1613 OFFCURVE",
"205 1640 CURVE",
"155 1409 LINE",
"218 1390 OFFCURVE",
"323 1351 OFFCURVE",
"340 1330 CURVE SMOOTH",
"375 1289 OFFCURVE",
"364 820 OFFCURVE",
"382 785 CURVE SMOOTH",
"405 740 OFFCURVE",
"542 650 OFFCURVE",
"542 615 CURVE SMOOTH",
"542 580 OFFCURVE",
"404 491 OFFCURVE",
"380 445 CURVE SMOOTH",
"362 411 OFFCURVE",
"375 -60 OFFCURVE",
"340 -100 CURVE SMOOTH",
"321 -122 OFFCURVE",
"197 -160 OFFCURVE",
"130 -179 CURVE",
"180 -410 LINE"
);
}
);
width = 1040;
}
);
unicode = 007D;
},
{
glyphname = Tilde;
layers = (
{
layerId = "227CFDA3-9046-4C35-BCA7-2E12199138C9";
paths = (
{
closed = 1;
nodes = (
"130 424 OFFCURVE",
"162 465 OFFCURVE",
"240 465 CURVE SMOOTH",
"415 465 OFFCURVE",
"615 360 OFFCURVE",
"845 360 CURVE SMOOTH",
"1004 360 OFFCURVE",
"1080 482 OFFCURVE",
"1080 610 CURVE",
"975 610 LINE",
"968 564 OFFCURVE",
"938 510 OFFCURVE",
"855 510 CURVE SMOOTH",
"619 510 OFFCURVE",
"461 615 OFFCURVE",
"240 615 CURVE SMOOTH",
"94 615 OFFCURVE",
"20 497 OFFCURVE",
"20 375 CURVE",
"125 375 LINE"
);
}
);
width = 1115;
},
{
layerId = "B46047BD-989B-43B8-9078-123A6A2C0348";
paths = (
{
closed = 1;
nodes = (
"170 394 OFFCURVE",
"202 435 OFFCURVE",
"280 435 CURVE SMOOTH",
"435 435 OFFCURVE",
"615 330 OFFCURVE",
"825 330 CURVE SMOOTH",
"984 330 OFFCURVE",
"1080 512 OFFCURVE",
"1080 640 CURVE",
"935 640 LINE",
"928 594 OFFCURVE",
"898 540 OFFCURVE",
"815 540 CURVE SMOOTH",
"599 540 OFFCURVE",
"461 645 OFFCURVE",
"260 645 CURVE SMOOTH",
"104 645 OFFCURVE",
"20 467 OFFCURVE",
"20 345 CURVE",
"165 345 LINE"
);
}
);
width = 1115;
}
);
unicode = 007E;
},
{
glyphname = Dagger;
layers = (
{
layerId = "227CFDA3-9046-4C35-BCA7-2E12199138C9";
paths = (
{
closed = 1;
nodes = (
"590 1024 OFFCURVE",
"590 1297 OFFCURVE",
"610 1510 CURVE",
"415 1510 LINE",
"435 1297 OFFCURVE",
"435 1024 OFFCURVE",
"435 835 CURVE SMOOTH",
"435 545 OFFCURVE",
"435 199 OFFCURVE",
"415 -235 CURVE",
"610 -235 LINE",
"590 199 OFFCURVE",
"590 545 OFFCURVE",
"590 835 CURVE SMOOTH"
);
},
{
closed = 1;
nodes = (
"995 1069 LINE",
"782 1060 OFFCURVE",
"704 1060 OFFCURVE",
"515 1060 CURVE SMOOTH",
"371 1060 OFFCURVE",
"243 1060 OFFCURVE",
"30 1069 CURVE",
"30 904 LINE",
"243 913 OFFCURVE",
"371 915 OFFCURVE",
"515 915 CURVE SMOOTH",
"659 915 OFFCURVE",
"782 913 OFFCURVE",
"995 904 CURVE"
);
}
);
width = 1025;
},
{
layerId = "B46047BD-989B-43B8-9078-123A6A2C0348";
paths = (
{
closed = 1;
nodes = (
"625 199 OFFCURVE",
"625 545 OFFCURVE",
"625 835 CURVE SMOOTH",
"625 1024 OFFCURVE",
"625 1297 OFFCURVE",
"645 1510 CURVE",
"380 1510 LINE",
"400 1297 OFFCURVE",
"400 1024 OFFCURVE",
"400 835 CURVE SMOOTH",
"400 545 OFFCURVE",
"400 199 OFFCURVE",
"380 -235 CURVE",
"645 -235 LINE"
);
},
{
closed = 1;
nodes = (
"782 1096 OFFCURVE",
"704 1095 OFFCURVE",
"515 1095 CURVE SMOOTH",
"371 1095 OFFCURVE",
"243 1096 OFFCURVE",
"30 1105 CURVE",
"30 870 LINE",
"243 879 OFFCURVE",
"371 880 OFFCURVE",
"515 880 CURVE SMOOTH",
"659 880 OFFCURVE",
"782 879 OFFCURVE",
"995 870 CURVE",
"995 1105 LINE"
);
}
);
width = 1025;
}
);
unicode = 2020;
},
{
glyphname = DegreeSgn;
layers = (
{
layerId = "227CFDA3-9046-4C35-BCA7-2E12199138C9";
paths = (
{
closed = 1;
nodes = (
"455 1160 OFFCURVE",
"395 1100 OFFCURVE",
"320 1100 CURVE SMOOTH",
"245 1100 OFFCURVE",
"185 1160 OFFCURVE",
"185 1235 CURVE SMOOTH",
"185 1310 OFFCURVE",
"245 1370 OFFCURVE",
"320 1370 CURVE SMOOTH",
"395 1370 OFFCURVE",
"455 1310 OFFCURVE",
"455 1235 CURVE"
);
},
{
closed = 1;
nodes = (
"70 1095 OFFCURVE",
"180 985 OFFCURVE",
"320 985 CURVE SMOOTH",
"460 985 OFFCURVE",
"570 1095 OFFCURVE",
"570 1235 CURVE SMOOTH",
"570 1375 OFFCURVE",
"460 1485 OFFCURVE",
"320 1485 CURVE SMOOTH",
"180 1485 OFFCURVE",
"70 1375 OFFCURVE",
"70 1235 CURVE"
);
}
);
width = 640;
},
{
layerId = "B46047BD-989B-43B8-9078-123A6A2C0348";
paths = (
{
closed = 1;
nodes = (
"505 1109 OFFCURVE",
"441 1040 OFFCURVE",
"360 1040 CURVE SMOOTH",
"279 1040 OFFCURVE",
"210 1109 OFFCURVE",
"210 1190 CURVE SMOOTH",
"210 1272 OFFCURVE",
"279 1335 OFFCURVE",
"360 1335 CURVE SMOOTH",
"441 1335 OFFCURVE",
"505 1272 OFFCURVE",
"505 1190 CURVE SMOOTH"
);
},
{
closed = 1;
nodes = (
"60 1021 OFFCURVE",
"191 890 OFFCURVE",
"360 890 CURVE SMOOTH",
"529 890 OFFCURVE",
"655 1021 OFFCURVE",
"655 1190 CURVE SMOOTH",
"655 1359 OFFCURVE",
"529 1485 OFFCURVE",
"360 1485 CURVE SMOOTH",
"191 1485 OFFCURVE",
"60 1359 OFFCURVE",
"60 1190 CURVE SMOOTH"
);
}
);
width = 715;
}
);
unicode = 00B0;
},
{
glyphname = CentSgn;
layers = (
{
layerId = "227CFDA3-9046-4C35-BCA7-2E12199138C9";
paths = (
{
closed = 1;
nodes = (
"397 1062 OFFCURVE",
"205 826 OFFCURVE",
"205 540 CURVE SMOOTH",
"205 236 OFFCURVE",
"411 50 OFFCURVE",
"666 50 CURVE SMOOTH",
"808 50 OFFCURVE",
"898 83 OFFCURVE",
"994 155 CURVE",
"975 321 LINE",
"892 248 OFFCURVE",
"799 207 OFFCURVE",
"685 207 CURVE SMOOTH",
"501 207 OFFCURVE",
"386 345 OFFCURVE",
"386 549 CURVE SMOOTH",
"386 773 OFFCURVE",
"516 905 OFFCURVE",
"685 905 CURVE SMOOTH",
"783 905 OFFCURVE",
"865 873 OFFCURVE",
"951 810 CURVE",
"984 981 LINE",
"915 1029 OFFCURVE",
"826 1062 OFFCURVE",
"699 1062 CURVE SMOOTH"
);
},
{
closed = 1;
nodes = (
"605 -210 LINE",
"735 -210 LINE",
"735 1320 LINE",
"605 1320 LINE"
);
}
);
width = 1200;
},
{
layerId = "B46047BD-989B-43B8-9078-123A6A2C0348";
paths = (
{
closed = 1;
nodes = (
"839 307 OFFCURVE",
"765 269 OFFCURVE",
"651 269 CURVE SMOOTH",
"508 269 OFFCURVE",
"416 382 OFFCURVE",
"416 549 CURVE SMOOTH",
"416 733 OFFCURVE",
"519 843 OFFCURVE",
"651 843 CURVE SMOOTH",
"749 843 OFFCURVE",
"813 814 OFFCURVE",
"899 755 CURVE",
"941 995 LINE",
"871 1031 OFFCURVE",
"771 1062 OFFCURVE",
"646 1062 CURVE SMOOTH",
"345 1062 OFFCURVE",
"150 836 OFFCURVE",
"150 539 CURVE SMOOTH",
"150 227 OFFCURVE",
"358 50 OFFCURVE",
"614 50 CURVE SMOOTH",
"755 50 OFFCURVE",
"854 81 OFFCURVE",
"950 140 CURVE",
"922 372 LINE"
);
},
{
closed = 1;
nodes = (
"563 -210 LINE",
"753 -210 LINE",
"753 1320 LINE",
"563 1320 LINE"
);
}
);
width = 1090;
}
);
unicode = 00A2;
},
{
glyphname = PoundSgn;
layers = (
{
layerId = "227CFDA3-9046-4C35-BCA7-2E12199138C9";
paths = (
{
closed = 1;
nodes = (
"453 243 OFFCURVE",
"479 341 OFFCURVE",
"479 465 CURVE SMOOTH",
"479 635 OFFCURVE",
"445 898 OFFCURVE",
"445 1075 CURVE SMOOTH",
"445 1256 OFFCURVE",
"531 1325 OFFCURVE",
"655 1325 CURVE SMOOTH",
"713 1325 OFFCURVE",
"807 1302 OFFCURVE",
"857 1265 CURVE",
"903 1415 LINE",
"841 1459 OFFCURVE",
"733 1485 OFFCURVE",
"655 1485 CURVE SMOOTH",
"419 1485 OFFCURVE",
"260 1335 OFFCURVE",
"260 1035 CURVE SMOOTH",
"260 849 OFFCURVE",
"294 598 OFFCURVE",
"294 392 CURVE SMOOTH",
"294 280 OFFCURVE",
"225 188 OFFCURVE",
"145 130 CURVE",
"145 0 LINE",
"1015 0 LINE",
"1015 180 LINE",
"935 166 OFFCURVE",
"776 165 OFFCURVE",
"579 165 CURVE SMOOTH",
"376 165 LINE"
);
},
{
closed = 1;
nodes = (
"765 690 LINE",
"765 835 LINE",
"155 835 LINE",
"155 690 LINE"
);
}
);
width = 1200;
},
{
layerId = "B46047BD-989B-43B8-9078-123A6A2C0348";
paths = (
{
closed = 1;
nodes = (
"138 870 LINE",
"138 670 LINE",
"833 670 LINE",
"833 870 LINE"
);
},
{
closed = 1;
nodes = (
"981 231 OFFCURVE",
"835 230 OFFCURVE",
"655 230 CURVE SMOOTH",
"459 230 LINE",
"536 323 OFFCURVE",
"559 431 OFFCURVE",
"559 575 CURVE SMOOTH",
"559 724 OFFCURVE",
"520 899 OFFCURVE",
"520 1055 CURVE SMOOTH",
"520 1199 OFFCURVE",
"589 1255 OFFCURVE",
"691 1255 CURVE SMOOTH",
"755 1255 OFFCURVE",
"858 1232 OFFCURVE",
"913 1195 CURVE",
"959 1415 LINE",
"892 1459 OFFCURVE",
"775 1485 OFFCURVE",
"691 1485 CURVE SMOOTH",
"409 1485 OFFCURVE",
"236 1332 OFFCURVE",
"236 1025 CURVE SMOOTH",
"236 857 OFFCURVE",
"279 686 OFFCURVE",
"279 502 CURVE SMOOTH",
"279 370 OFFCURVE",
"210 258 OFFCURVE",
"130 190 CURVE",
"130 0 LINE",
"1054 0 LINE",
"1054 245 LINE"
);
}
);
width = 1200;
}
);
unicode = 00A3;
},
{
glyphname = SectionSgn;
layers = (
{
layerId = "227CFDA3-9046-4C35-BCA7-2E12199138C9";
paths = (
{
closed = 1;
nodes = (
"720 150 OFFCURVE",
"880 302 OFFCURVE",
"880 512 CURVE SMOOTH",
"880 662 OFFCURVE",
"785 755 OFFCURVE",
"605 885 CURVE SMOOTH",
"428 1013 OFFCURVE",
"310 1085 OFFCURVE",
"310 1187 CURVE SMOOTH",
"310 1255 OFFCURVE",
"368 1325 OFFCURVE",
"505 1325 CURVE SMOOTH",
"629 1325 OFFCURVE",
"733 1269 OFFCURVE",
"800 1230 CURVE",
"835 1405 LINE",
"766 1443 OFFCURVE",
"660 1485 OFFCURVE",
"515 1485 CURVE SMOOTH",
"231 1485 OFFCURVE",
"130 1307 OFFCURVE",
"130 1145 CURVE SMOOTH",
"130 1021 OFFCURVE",
"226 909 OFFCURVE",
"438 776 CURVE SMOOTH",
"642 648 OFFCURVE",
"700 565 OFFCURVE",
"700 480 CURVE SMOOTH",
"700 387 OFFCURVE",
"617 310 OFFCURVE",
"500 310 CURVE",
"495 150 LINE"
);
},
{
closed = 1;
nodes = (
"300 895 OFFCURVE",
"130 775 OFFCURVE",
"130 571 CURVE SMOOTH",
"130 395 OFFCURVE",
"225 295 OFFCURVE",
"405 170 CURVE SMOOTH",
"582 47 OFFCURVE",
"700 -37 OFFCURVE",
"700 -165 CURVE SMOOTH",
"700 -234 OFFCURVE",
"617 -310 OFFCURVE",
"500 -310 CURVE SMOOTH",
"394 -310 OFFCURVE",
"250 -256 OFFCURVE",
"160 -175 CURVE",
"110 -355 LINE",
"189 -417 OFFCURVE",
"333 -470 OFFCURVE",
"495 -470 CURVE SMOOTH",
"710 -470 OFFCURVE",
"880 -320 OFFCURVE",
"880 -140 CURVE SMOOTH",
"880 11 OFFCURVE",
"784 146 OFFCURVE",
"572 279 CURVE SMOOTH",
"368 407 OFFCURVE",
"310 486 OFFCURVE",
"310 575 CURVE SMOOTH",
"310 673 OFFCURVE",
"393 735 OFFCURVE",
"510 735 CURVE",
"515 895 LINE"
);
}
);
width = 1024;
},
{
layerId = "B46047BD-989B-43B8-9078-123A6A2C0348";
paths = (
{
closed = 1;
nodes = (
"187 -417 OFFCURVE",
"346 -470 OFFCURVE",
"525 -470 CURVE SMOOTH",
"768 -470 OFFCURVE",
"960 -305 OFFCURVE",
"960 -93 CURVE SMOOTH",
"960 96 OFFCURVE",
"859 193 OFFCURVE",
"670 321 CURVE SMOOTH",
"515 426 OFFCURVE",
"368 524 OFFCURVE",
"368 600 CURVE SMOOTH",
"368 678 OFFCURVE",
"431 722 OFFCURVE",
"572 722 CURVE",
"572 951 LINE",
"227 951 OFFCURVE",
"110 742 OFFCURVE",
"110 590 CURVE SMOOTH",
"110 460 OFFCURVE",
"209 335 OFFCURVE",
"432 191 CURVE SMOOTH",
"614 73 OFFCURVE",
"694 -11 OFFCURVE",
"694 -98 CURVE SMOOTH",
"694 -201 OFFCURVE",
"611 -246 OFFCURVE",
"530 -246 CURVE SMOOTH",
"413 -246 OFFCURVE",
"254 -192 OFFCURVE",
"155 -111 CURVE",
"100 -355 LINE"
);
},
{
closed = 1;
nodes = (
"827 1443 OFFCURVE",
"708 1485 OFFCURVE",
"545 1485 CURVE SMOOTH",
"202 1485 OFFCURVE",
"110 1253 OFFCURVE",
"110 1155 CURVE SMOOTH",
"110 1012 OFFCURVE",
"225 895 OFFCURVE",
"453 766 CURVE SMOOTH",
"644 658 OFFCURVE",
"700 603 OFFCURVE",
"700 545 CURVE SMOOTH",
"700 458 OFFCURVE",
"625 414 OFFCURVE",
"488 414 CURVE",
"488 190 LINE",
"831 190 OFFCURVE",
"960 369 OFFCURVE",
"960 560 CURVE SMOOTH",
"960 693 OFFCURVE",
"873 788 OFFCURVE",
"669 914 CURVE SMOOTH",
"469 1038 OFFCURVE",
"375 1096 OFFCURVE",
"375 1165 CURVE SMOOTH",
"375 1205 OFFCURVE",
"418 1261 OFFCURVE",
"535 1261 CURVE SMOOTH",
"674 1261 OFFCURVE",
"791 1205 OFFCURVE",
"866 1166 CURVE",
"905 1405 LINE"
);
}
);
width = 1095;
}
);
unicode = 00A7;
},
{
glyphname = Bullet;
layers = (
{
layerId = "227CFDA3-9046-4C35-BCA7-2E12199138C9";
paths = (
{
closed = 1;
nodes = (
"250 613 OFFCURVE",
"349 512 OFFCURVE",
"469 512 CURVE SMOOTH",
"589 512 OFFCURVE",
"690 613 OFFCURVE",
"690 733 CURVE SMOOTH",
"690 853 OFFCURVE",
"589 952 OFFCURVE",
"469 952 CURVE SMOOTH",
"349 952 OFFCURVE",
"250 853 OFFCURVE",
"250 733 CURVE SMOOTH"
);
}
);
width = 940;
},
{
layerId = "B46047BD-989B-43B8-9078-123A6A2C0348";
paths = (
{
closed = 1;
nodes = (
"210 600 OFFCURVE",
"320 490 OFFCURVE",
"470 490 CURVE SMOOTH",
"620 490 OFFCURVE",
"730 600 OFFCURVE",
"730 750 CURVE SMOOTH",
"730 900 OFFCURVE",
"620 1010 OFFCURVE",
"470 1010 CURVE SMOOTH",
"320 1010 OFFCURVE",
"210 900 OFFCURVE",
"210 750 CURVE SMOOTH"
);
}
);
width = 940;
}
);
unicode = 2022;
},
{
glyphname = PilcrowSgn;
layers = (
{
layerId = "227CFDA3-9046-4C35-BCA7-2E12199138C9";
paths = (
{
closed = 1;
nodes = (
"965 1460 LINE",
"440 1460 LINE SMOOTH",
"282 1460 OFFCURVE",
"50 1382 OFFCURVE",
"50 1113 CURVE SMOOTH",
"50 845 OFFCURVE",
"283 765 OFFCURVE",
"420 765 CURVE",
"420 0 LINE",
"555 0 LINE",
"555 1345 LINE",
"715 1345 LINE",
"715 0 LINE",
"850 0 LINE",
"850 1345 LINE",
"965 1345 LINE"
);
}
);
width = 1025;
},
{
layerId = "B46047BD-989B-43B8-9078-123A6A2C0348";
paths = (
{
closed = 1;
nodes = (
"1045 1460 LINE",
"460 1460 LINE SMOOTH",
"282 1460 OFFCURVE",
"50 1382 OFFCURVE",
"50 1103 CURVE SMOOTH",
"50 825 OFFCURVE",
"283 745 OFFCURVE",
"440 745 CURVE",
"440 0 LINE",
"605 0 LINE",
"605 1315 LINE",
"765 1315 LINE",
"765 0 LINE",
"930 0 LINE",
"930 1315 LINE",
"1045 1315 LINE"
);
}
);
width = 1105;
}
);
unicode = 00B6;
},
{
glyphname = LtnSmSharpS;
layers = (
{
anchors = (
{
name = L;
position = "{590, -100}";
},
{
name = U;
position = "{620, 1635}";
}
);
layerId = "227CFDA3-9046-4C35-BCA7-2E12199138C9";
paths = (
{
closed = 1;
nodes = (
"582 12 OFFCURVE",
"697 -25 OFFCURVE",
"793 -25 CURVE SMOOTH",
"1020 -25 OFFCURVE",
"1183 106 OFFCURVE",
"1183 328 CURVE SMOOTH",
"1183 503 OFFCURVE",
"1054 596 OFFCURVE",
"952 656 CURVE SMOOTH",
"864 708 OFFCURVE",
"762 742 OFFCURVE",
"762 845 CURVE SMOOTH",
"762 1021 OFFCURVE",
"1083 964 OFFCURVE",
"1083 1284 CURVE SMOOTH",
"1083 1455 OFFCURVE",
"928 1620 OFFCURVE",
"620 1620 CURVE SMOOTH",
"387 1620 OFFCURVE",
"160 1480 OFFCURVE",
"160 1120 CURVE SMOOTH",
"160 494 LINE SMOOTH",
"160 300 OFFCURVE",
"152 105 OFFCURVE",
"130 0 CURVE",
"345 0 LINE",
"345 1140 LINE SMOOTH",
"345 1346 OFFCURVE",
"487 1460 OFFCURVE",
"655 1460 CURVE SMOOTH",
"766 1460 OFFCURVE",
"900 1379 OFFCURVE",
"900 1264 CURVE SMOOTH",
"900 1067 OFFCURVE",
"582 1095 OFFCURVE",
"582 845 CURVE SMOOTH",
"582 673 OFFCURVE",
"716 583 OFFCURVE",
"832 525 CURVE SMOOTH",
"926 478 OFFCURVE",
"1007 409 OFFCURVE",
"1007 319 CURVE SMOOTH",
"1007 202 OFFCURVE",
"916 135 OFFCURVE",
"793 135 CURVE SMOOTH",
"716 135 OFFCURVE",
"628 180 OFFCURVE",
"581 228 CURVE",
"531 48 LINE"
);
}
);
width = 1238;
},
{
anchors = (
{
name = L;
position = "{708, -100}";
},
{
name = U;
position = "{730, 1635}";
}
);
layerId = "B46047BD-989B-43B8-9078-123A6A2C0348";
paths = (
{
closed = 1;
nodes = (
"677 20 OFFCURVE",
"807 -25 OFFCURVE",
"917 -25 CURVE SMOOTH",
"1175 -25 OFFCURVE",
"1361 106 OFFCURVE",
"1361 328 CURVE SMOOTH",
"1361 510 OFFCURVE",
"1242 590 OFFCURVE",
"1129 657 CURVE SMOOTH",
"1028 717 OFFCURVE",
"931 762 OFFCURVE",
"931 855 CURVE SMOOTH",
"931 1009 OFFCURVE",
"1244 975 OFFCURVE",
"1244 1264 CURVE SMOOTH",
"1244 1445 OFFCURVE",
"1071 1620 OFFCURVE",
"730 1620 CURVE SMOOTH",
"452 1620 OFFCURVE",
"180 1480 OFFCURVE",
"180 1120 CURVE SMOOTH",
"180 494 LINE SMOOTH",
"180 300 OFFCURVE",
"172 105 OFFCURVE",
"150 0 CURVE",
"460 0 LINE",
"460 1140 LINE SMOOTH",
"460 1289 OFFCURVE",
"567 1397 OFFCURVE",
"758 1397 CURVE SMOOTH",
"856 1397 OFFCURVE",
"974 1338 OFFCURVE",
"974 1254 CURVE SMOOTH",
"974 1092 OFFCURVE",
"660 1089 OFFCURVE",
"660 845 CURVE SMOOTH",
"660 696 OFFCURVE",
"747 617 OFFCURVE",
"843 556 CURVE SMOOTH",
"961 481 OFFCURVE",
"1091 434 OFFCURVE",
"1091 319 CURVE SMOOTH",
"1091 243 OFFCURVE",
"1018 200 OFFCURVE",
"920 200 CURVE SMOOTH",
"828 200 OFFCURVE",
"724 245 OFFCURVE",
"669 293 CURVE",
"619 68 LINE"
);
}
);
width = 1421;
}
);
unicode = 00DF;
},
{
glyphname = RegisteredSgn;
layers = (
{
layerId = "227CFDA3-9046-4C35-BCA7-2E12199138C9";
paths = (
{
closed = 1;
nodes = (
"497 1485 OFFCURVE",
"150 1230 OFFCURVE",
"150 730 CURVE SMOOTH",
"150 220 OFFCURVE",
"497 -25 OFFCURVE",
"855 -25 CURVE SMOOTH",
"1203 -25 OFFCURVE",
"1565 220 OFFCURVE",
"1565 730 CURVE SMOOTH",
"1565 1230 OFFCURVE",
"1203 1485 OFFCURVE",
"855 1485 CURVE SMOOTH"
);
},
{
closed = 1;
nodes = (
"1154 1365 OFFCURVE",
"1440 1145 OFFCURVE",
"1440 730 CURVE SMOOTH",
"1440 315 OFFCURVE",
"1154 95 OFFCURVE",
"855 95 CURVE SMOOTH",
"556 95 OFFCURVE",
"275 315 OFFCURVE",
"275 730 CURVE SMOOTH",
"275 1145 OFFCURVE",
"556 1365 OFFCURVE",
"855 1365 CURVE SMOOTH"
);
},
{
closed = 1;
nodes = (
"799 668 LINE",
"1060 290 LINE",
"1215 290 LINE",
"1180 328 OFFCURVE",
"988 587 OFFCURVE",
"920 680 CURVE",
"1019 706 OFFCURVE",
"1125 778 OFFCURVE",
"1125 925 CURVE SMOOTH",
"1125 1100 OFFCURVE",
"986 1180 OFFCURVE",
"795 1180 CURVE SMOOTH",
"646 1180 OFFCURVE",
"545 1170 OFFCURVE",
"545 1170 CURVE",
"553 1119 OFFCURVE",
"553 1023 OFFCURVE",
"553 898 CURVE SMOOTH",
"553 548 LINE SMOOTH",
"553 423 OFFCURVE",
"553 341 OFFCURVE",
"545 290 CURVE",
"685 290 LINE",
"676 340 OFFCURVE",
"675 423 OFFCURVE",
"675 548 CURVE",
"675 668 LINE"
);
},
{
closed = 1;
nodes = (
"709 1074 OFFCURVE",
"746 1076 OFFCURVE",
"790 1076 CURVE SMOOTH",
"937 1076 OFFCURVE",
"1000 1015 OFFCURVE",
"1000 915 CURVE SMOOTH",
"1000 820 OFFCURVE",
"925 767 OFFCURVE",
"790 767 CURVE",
"675 767 LINE",
"675 1072 LINE"
);
}
);
width = 1615;
},
{
layerId = "B46047BD-989B-43B8-9078-123A6A2C0348";
paths = (
{
closed = 1;
nodes = (
"1060 1324 OFFCURVE",
"1333 1118 OFFCURVE",
"1333 730 CURVE SMOOTH",
"1333 342 OFFCURVE",
"1060 136 OFFCURVE",
"775 136 CURVE SMOOTH",
"485 136 OFFCURVE",
"212 342 OFFCURVE",
"212 730 CURVE SMOOTH",
"212 1118 OFFCURVE",
"485 1324 OFFCURVE",
"775 1324 CURVE SMOOTH"
);
},
{
closed = 1;
nodes = (
"404 1485 OFFCURVE",
"45 1230 OFFCURVE",
"45 730 CURVE SMOOTH",
"45 220 OFFCURVE",
"404 -25 OFFCURVE",
"775 -25 CURVE SMOOTH",
"1130 -25 OFFCURVE",
"1500 220 OFFCURVE",
"1500 730 CURVE SMOOTH",
"1500 1230 OFFCURVE",
"1130 1485 OFFCURVE",
"775 1485 CURVE SMOOTH"
);
},
{
closed = 1;
nodes = (
"705 649 LINE",
"923 301 LINE",
"1132 301 LINE",
"1100 337 OFFCURVE",
"937 580 OFFCURVE",
"871 672 CURVE",
"975 709 OFFCURVE",
"1051 778 OFFCURVE",
"1051 918 CURVE SMOOTH",
"1051 1100 OFFCURVE",
"924 1175 OFFCURVE",
"740 1175 CURVE SMOOTH",
"602 1175 OFFCURVE",
"443 1169 OFFCURVE",
"443 1169 CURVE",
"452 1121 OFFCURVE",
"452 1011 OFFCURVE",
"452 895 CURVE SMOOTH",
"452 560 LINE SMOOTH",
"452 443 OFFCURVE",
"452 349 OFFCURVE",
"443 301 CURVE",
"630 301 LINE",
"622 348 OFFCURVE",
"622 443 OFFCURVE",
"622 560 CURVE SMOOTH",
"622 649 LINE"
);
},
{
closed = 1;
nodes = (
"656 1035 OFFCURVE",
"674 1036 OFFCURVE",
"718 1036 CURVE SMOOTH",
"821 1036 OFFCURVE",
"876 1003 OFFCURVE",
"876 915 CURVE SMOOTH",
"876 814 OFFCURVE",
"812 781 OFFCURVE",
"714 781 CURVE SMOOTH",
"624 781 LINE",
"624 1033 LINE"
);
}
);
width = 1545;
}
);
unicode = 00AE;
},
{
glyphname = CopyrightSgn;
layers = (
{
layerId = "227CFDA3-9046-4C35-BCA7-2E12199138C9";
paths = (
{
closed = 1;
nodes = (
"1054 1365 OFFCURVE",
"1340 1145 OFFCURVE",
"1340 730 CURVE SMOOTH",
"1340 315 OFFCURVE",
"1054 95 OFFCURVE",
"755 95 CURVE SMOOTH",
"456 95 OFFCURVE",
"175 315 OFFCURVE",
"175 730 CURVE SMOOTH",
"175 1145 OFFCURVE",
"456 1365 OFFCURVE",
"755 1365 CURVE SMOOTH"
);
},
{
closed = 1;
nodes = (
"397 1485 OFFCURVE",
"50 1230 OFFCURVE",
"50 730 CURVE SMOOTH",
"50 220 OFFCURVE",
"397 -25 OFFCURVE",
"755 -25 CURVE SMOOTH",
"1103 -25 OFFCURVE",
"1465 220 OFFCURVE",
"1465 730 CURVE SMOOTH",
"1465 1230 OFFCURVE",
"1103 1485 OFFCURVE",
"755 1485 CURVE SMOOTH"
);
},
{
closed = 1;
nodes = (
"940 434 OFFCURVE",
"853 385 OFFCURVE",
"760 385 CURVE SMOOTH",
"590 385 OFFCURVE",
"480 558 OFFCURVE",
"480 735 CURVE SMOOTH",
"480 961 OFFCURVE",
"610 1085 OFFCURVE",
"765 1085 CURVE SMOOTH",
"842 1085 OFFCURVE",
"910 1058 OFFCURVE",
"990 985 CURVE",
"1030 1105 LINE",
"939 1173 OFFCURVE",
"856 1195 OFFCURVE",
"765 1195 CURVE SMOOTH",
"561 1195 OFFCURVE",
"355 1028 OFFCURVE",
"355 720 CURVE SMOOTH",
"355 452 OFFCURVE",
"513 270 OFFCURVE",
"750 270 CURVE SMOOTH",
"847 270 OFFCURVE",
"961 306 OFFCURVE",
"1035 375 CURVE",
"1010 505 LINE"
);
}
);
width = 1515;
},
{
layerId = "B46047BD-989B-43B8-9078-123A6A2C0348";
paths = (
{
closed = 1;
nodes = (
"1050 1324 OFFCURVE",
"1323 1118 OFFCURVE",
"1323 730 CURVE SMOOTH",
"1323 342 OFFCURVE",
"1050 136 OFFCURVE",
"765 136 CURVE SMOOTH",
"480 136 OFFCURVE",
"212 342 OFFCURVE",
"212 730 CURVE SMOOTH",
"212 1118 OFFCURVE",
"480 1324 OFFCURVE",
"765 1324 CURVE SMOOTH"
);
},
{
closed = 1;
nodes = (
"399 1485 OFFCURVE",
"45 1230 OFFCURVE",
"45 730 CURVE SMOOTH",
"45 220 OFFCURVE",
"399 -25 OFFCURVE",
"765 -25 CURVE SMOOTH",
"1120 -25 OFFCURVE",
"1490 220 OFFCURVE",
"1490 730 CURVE SMOOTH",
"1490 1230 OFFCURVE",
"1120 1485 OFFCURVE",
"765 1485 CURVE SMOOTH"
);
},
{
closed = 1;
nodes = (
"956 476 OFFCURVE",
"859 433 OFFCURVE",
"773 433 CURVE SMOOTH",
"627 433 OFFCURVE",
"541 544 OFFCURVE",
"541 731 CURVE SMOOTH",
"541 929 OFFCURVE",
"642 1027 OFFCURVE",
"779 1027 CURVE SMOOTH",
"854 1027 OFFCURVE",
"924 1003 OFFCURVE",
"1000 944 CURVE",
"1039 1098 LINE",
"956 1161 OFFCURVE",
"877 1181 OFFCURVE",
"770 1181 CURVE SMOOTH",
"553 1181 OFFCURVE",
"365 1025 OFFCURVE",
"365 716 CURVE SMOOTH",
"365 447 OFFCURVE",
"512 276 OFFCURVE",
"752 276 CURVE SMOOTH",
"851 276 OFFCURVE",
"977 315 OFFCURVE",
"1048 374 CURVE",
"1019 543 LINE"
);
}
);
width = 1535;
}
);
unicode = 00A9;
},
{
glyphname = TradeMrkSgn;
layers = (
{
layerId = "227CFDA3-9046-4C35-BCA7-2E12199138C9";
paths = (
{
closed = 1;
nodes = (
"900 1460 LINE",
"773 1460 LINE",
"773 1460 OFFCURVE",
"749 766 OFFCURVE",
"735 657 CURVE",
"840 657 LINE",
"856 1308 LINE",
"1082 657 LINE",
"1191 657 LINE",
"1415 1307 LINE",
"1431 657 LINE",
"1535 657 LINE",
"1519 766 OFFCURVE",
"1497 1460 OFFCURVE",
"1497 1460 CURVE",
"1373 1460 LINE",
"1136 770 LINE"
);
},
{
closed = 1;
nodes = (
"60 1355 LINE",
"104 1365 OFFCURVE",
"146 1367 OFFCURVE",
"194 1367 CURVE SMOOTH",
"324 1367 LINE",
"324 896 LINE SMOOTH",
"324 788 OFFCURVE",
"322 701 OFFCURVE",
"313 657 CURVE",
"442 657 LINE",
"433 701 OFFCURVE",
"431 788 OFFCURVE",
"431 896 CURVE SMOOTH",
"431 1367 LINE",
"560 1367 LINE SMOOTH",
"610 1367 OFFCURVE",
"651 1365 OFFCURVE",
"695 1355 CURVE",
"695 1460 LINE",
"60 1460 LINE"
);
}
);
width = 1665;
},
{
layerId = "B46047BD-989B-43B8-9078-123A6A2C0348";
paths = (
{
closed = 1;
nodes = (
"1142 808 LINE",
"954 1459 LINE",
"759 1459 LINE",
"759 1459 OFFCURVE",
"735 765 OFFCURVE",
"720 656 CURVE",
"869 656 LINE",
"884 1279 LINE",
"1061 656 LINE",
"1223 656 LINE",
"1400 1278 LINE",
"1413 656 LINE",
"1562 656 LINE",
"1546 765 OFFCURVE",
"1523 1459 OFFCURVE",
"1523 1459 CURVE",
"1331 1459 LINE"
);
},
{
closed = 1;
nodes = (
"50 1322 LINE",
"90 1331 OFFCURVE",
"133 1333 OFFCURVE",
"177 1333 CURVE SMOOTH",
"294 1333 LINE",
"294 884 LINE SMOOTH",
"294 781 OFFCURVE",
"292 698 OFFCURVE",
"283 656 CURVE",
"461 656 LINE",
"452 698 OFFCURVE",
"450 781 OFFCURVE",
"450 884 CURVE SMOOTH",
"450 1333 LINE",
"569 1333 LINE SMOOTH",
"614 1333 OFFCURVE",
"657 1331 OFFCURVE",
"696 1322 CURVE",
"696 1459 LINE",
"50 1459 LINE"
);
}
);
width = 1672;
}
);
unicode = 2122;
},
{
glyphname = AcuteAccent;
layers = (
{
components = (
{
name = CombAcute;
transform = "{1, 0, 0, 1, 750, 0}";
}
);
layerId = "227CFDA3-9046-4C35-BCA7-2E12199138C9";
width = 580;
},
{
anchors = (
{
name = U;
position = "{190, 1635}";
}
);
layerId = "B46047BD-989B-43B8-9078-123A6A2C0348";
paths = (
{
closed = 1;
nodes = (
"0 1200 LINE",
"240 1200 LINE",
"640 1600 LINE",
"290 1600 LINE"
);
}
);
width = 640;
}
);
unicode = 00B4;
},
{
glyphname = Diaer;
layers = (
{
components = (
{
name = CombDiaer;
transform = "{1, 0, 0, 1, 910, 0}";
}
);
layerId = "227CFDA3-9046-4C35-BCA7-2E12199138C9";
width = 680;
},
{
anchors = (
{
name = U;
position = "{420, 1585}";
}
);
layerId = "B46047BD-989B-43B8-9078-123A6A2C0348";
paths = (
{
closed = 1;
nodes = (
"490 1281 OFFCURVE",
"564 1210 OFFCURVE",
"665 1210 CURVE SMOOTH",
"767 1210 OFFCURVE",
"840 1281 OFFCURVE",
"840 1385 CURVE SMOOTH",
"840 1487 OFFCURVE",
"767 1560 OFFCURVE",
"665 1560 CURVE SMOOTH",
"564 1560 OFFCURVE",
"490 1487 OFFCURVE",
"490 1385 CURVE SMOOTH"
);
},
{
closed = 1;
nodes = (
"0 1281 OFFCURVE",
"74 1210 OFFCURVE",
"175 1210 CURVE SMOOTH",
"277 1210 OFFCURVE",
"350 1281 OFFCURVE",
"350 1385 CURVE SMOOTH",
"350 1487 OFFCURVE",
"277 1560 OFFCURVE",
"175 1560 CURVE SMOOTH",
"74 1560 OFFCURVE",
"0 1487 OFFCURVE",
"0 1385 CURVE SMOOTH"
);
}
);
width = 840;
}
);
unicode = 00A8;
},
{
glyphname = NotEqTo;
layers = (
{
layerId = "227CFDA3-9046-4C35-BCA7-2E12199138C9";
paths = (
{
closed = 1;
nodes = (
"1080 480 LINE",
"1080 630 LINE",
"120 630 LINE",
"120 480 LINE"
);
},
{
closed = 1;
nodes = (
"1080 830 LINE",
"1080 980 LINE",
"120 980 LINE",
"120 830 LINE"
);
},
{
closed = 1;
nodes = (
"180 200 LINE",
"340 200 LINE",
"1005 1215 LINE",
"845 1215 LINE"
);
}
);
width = 1200;
},
{
layerId = "B46047BD-989B-43B8-9078-123A6A2C0348";
paths = (
{
closed = 1;
nodes = (
"1080 440 LINE",
"1080 650 LINE",
"120 650 LINE",
"120 440 LINE"
);
},
{
closed = 1;
nodes = (
"1080 810 LINE",
"1080 1020 LINE",
"120 1020 LINE",
"120 810 LINE"
);
},
{
closed = 1;
nodes = (
"150 200 LINE",
"370 200 LINE",
"1035 1215 LINE",
"815 1215 LINE"
);
}
);
width = 1200;
}
);
unicode = 2260;
},
{
glyphname = LtnCapAe;
layers = (
{
anchors = (
{
name = L;
position = "{1015, -100}";
},
{
name = U;
position = "{1015, 1530}";
}
);
layerId = "227CFDA3-9046-4C35-BCA7-2E12199138C9";
paths = (
{
closed = 1;
nodes = (
"997 540 LINE",
"459 540 LINE",
"399 385 LINE",
"1057 385 LINE"
);
},
{
closed = 1;
nodes = (
"1580 845 LINE",
"1110 845 LINE",
"1110 1295 LINE",
"1655 1295 LINE",
"1655 1460 LINE",
"810 1460 LINE",
"295 399 LINE SMOOTH",
"226 257 OFFCURVE",
"170 148 OFFCURVE",
"80 0 CURVE",
"280 0 LINE",
"920 1295 LINE",
"920 243 OFFCURVE",
"920 80 OFFCURVE",
"905 0 CURVE",
"1685 0 LINE",
"1685 180 LINE",
"1605 166 OFFCURVE",
"1471 165 OFFCURVE",
"1274 165 CURVE SMOOTH",
"1110 165 LINE",
"1110 685 LINE",
"1580 685 LINE"
);
}
);
width = 1805;
},
{
anchors = (
{
name = L;
position = "{1010, -100}";
},
{
name = U;
position = "{1010, 1530}";
}
);
layerId = "B46047BD-989B-43B8-9078-123A6A2C0348";
paths = (
{
closed = 1;
nodes = (
"1610 875 LINE",
"1165 875 LINE",
"1165 1230 LINE",
"1685 1230 LINE",
"1685 1460 LINE",
"736 1460 LINE",
"196 355 LINE SMOOTH",
"103 166 OFFCURVE",
"59 81 OFFCURVE",
"10 0 CURVE",
"308 0 LINE",
"473 355 LINE",
"880 355 LINE",
"878 117 OFFCURVE",
"873 45 OFFCURVE",
"865 0 CURVE",
"1715 0 LINE",
"1715 245 LINE",
"1637 231 OFFCURVE",
"1513 230 OFFCURVE",
"1322 230 CURVE SMOOTH",
"1165 230 LINE",
"1165 650 LINE",
"1610 650 LINE"
);
},
{
closed = 1;
nodes = (
"880 570 LINE",
"573 570 LINE",
"880 1230 LINE"
);
}
);
width = 1831;
}
);
unicode = 00C6;
},
{
glyphname = LtnCapOStrk;
layers = (
{
anchors = (
{
name = L;
position = "{717, -100}";
},
{
name = U;
position = "{717, 1530}";
}
);
layerId = "227CFDA3-9046-4C35-BCA7-2E12199138C9";
paths = (
{
closed = 1;
nodes = (
"1145 360 OFFCURVE",
"965 150 OFFCURVE",
"720 150 CURVE SMOOTH",
"460 150 OFFCURVE",
"290 380 OFFCURVE",
"290 745 CURVE SMOOTH",
"290 1091 OFFCURVE",
"467 1310 OFFCURVE",
"720 1310 CURVE SMOOTH",
"974 1310 OFFCURVE",
"1145 1084 OFFCURVE",
"1145 715 CURVE SMOOTH"
);
},
{
closed = 1;
nodes = (
"1340 1219 OFFCURVE",
"1048 1485 OFFCURVE",
"730 1485 CURVE SMOOTH",
"407 1485 OFFCURVE",
"95 1199 OFFCURVE",
"95 720 CURVE SMOOTH",
"95 241 OFFCURVE",
"388 -25 OFFCURVE",
"710 -25 CURVE SMOOTH",
"1029 -25 OFFCURVE",
"1340 260 OFFCURVE",
"1340 740 CURVE SMOOTH"
);
},
{
closed = 1;
nodes = (
"195 -75 LINE",
"343 -75 LINE",
"1206 1530 LINE",
"1060 1530 LINE"
);
}
);
width = 1460;
},
{
anchors = (
{
name = L;
position = "{737, -100}";
},
{
name = U;
position = "{737, 1530}";
}
);
layerId = "B46047BD-989B-43B8-9078-123A6A2C0348";
paths = (
{
closed = 1;
nodes = (
"171 -80 LINE",
"401 -80 LINE",
"1301 1533 LINE",
"1071 1533 LINE"
);
},
{
closed = 1;
nodes = (
"1100 404 OFFCURVE",
"940 220 OFFCURVE",
"740 220 CURVE SMOOTH",
"524 220 OFFCURVE",
"375 423 OFFCURVE",
"375 745 CURVE SMOOTH",
"375 1048 OFFCURVE",
"529 1240 OFFCURVE",
"740 1240 CURVE SMOOTH",
"951 1240 OFFCURVE",
"1100 1041 OFFCURVE",
"1100 715 CURVE SMOOTH"
);
},
{
closed = 1;
nodes = (
"1385 1219 OFFCURVE",
"1091 1485 OFFCURVE",
"750 1485 CURVE SMOOTH",
"404 1485 OFFCURVE",
"90 1199 OFFCURVE",
"90 720 CURVE SMOOTH",
"90 241 OFFCURVE",
"385 -25 OFFCURVE",
"730 -25 CURVE SMOOTH",
"1072 -25 OFFCURVE",
"1385 260 OFFCURVE",
"1385 740 CURVE SMOOTH"
);
}
);
width = 1500;
}
);
unicode = 00D8;
},
{
glyphname = Infinity;
layers = (
{
layerId = "227CFDA3-9046-4C35-BCA7-2E12199138C9";
paths = (
{
closed = 1;
nodes = (
"473 648 OFFCURVE",
"375 595 OFFCURVE",
"315 595 CURVE SMOOTH",
"240 595 OFFCURVE",
"180 660 OFFCURVE",
"180 730 CURVE SMOOTH",
"180 810 OFFCURVE",
"240 870 OFFCURVE",
"315 870 CURVE SMOOTH",
"375 870 OFFCURVE",
"462 828 OFFCURVE",
"530 730 CURVE"
);
},
{
closed = 1;
nodes = (
"727 812 OFFCURVE",
"825 865 OFFCURVE",
"885 865 CURVE SMOOTH",
"960 865 OFFCURVE",
"1020 800 OFFCURVE",
"1020 730 CURVE SMOOTH",
"1020 650 OFFCURVE",
"960 590 OFFCURVE",
"885 590 CURVE SMOOTH",
"825 590 OFFCURVE",
"738 632 OFFCURVE",
"670 730 CURVE"
);
},
{
closed = 1;
nodes = (
"1160 870 OFFCURVE",
"1045 1000 OFFCURVE",
"895 1000 CURVE SMOOTH",
"800 1000 OFFCURVE",
"692 943 OFFCURVE",
"600 845 CURVE",
"508 951 OFFCURVE",
"400 1000 OFFCURVE",
"305 1000 CURVE SMOOTH",
"172 1000 OFFCURVE",
"40 890 OFFCURVE",
"40 730 CURVE SMOOTH",
"40 590 OFFCURVE",
"155 465 OFFCURVE",
"305 465 CURVE SMOOTH",
"400 465 OFFCURVE",
"508 507 OFFCURVE",
"600 605 CURVE",
"692 499 OFFCURVE",
"800 465 OFFCURVE",
"895 465 CURVE SMOOTH",
"1028 465 OFFCURVE",
"1160 570 OFFCURVE",
"1160 730 CURVE SMOOTH"
);
}
);
width = 1200;
},
{
layerId = "B46047BD-989B-43B8-9078-123A6A2C0348";
paths = (
{
closed = 1;
nodes = (
"463 648 OFFCURVE",
"375 605 OFFCURVE",
"315 605 CURVE SMOOTH",
"240 605 OFFCURVE",
"190 670 OFFCURVE",
"190 730 CURVE SMOOTH",
"190 800 OFFCURVE",
"240 860 OFFCURVE",
"315 860 CURVE SMOOTH",
"375 860 OFFCURVE",
"452 828 OFFCURVE",
"520 730 CURVE"
);
},
{
closed = 1;
nodes = (
"737 812 OFFCURVE",
"825 855 OFFCURVE",
"885 855 CURVE SMOOTH",
"960 855 OFFCURVE",
"1010 790 OFFCURVE",
"1010 730 CURVE SMOOTH",
"1010 660 OFFCURVE",
"960 600 OFFCURVE",
"885 600 CURVE SMOOTH",
"825 600 OFFCURVE",
"748 632 OFFCURVE",
"680 730 CURVE"
);
},
{
closed = 1;
nodes = (
"1170 890 OFFCURVE",
"1065 1020 OFFCURVE",
"895 1020 CURVE SMOOTH",
"790 1020 OFFCURVE",
"697 962 OFFCURVE",
"600 870 CURVE",
"506 964 OFFCURVE",
"420 1020 OFFCURVE",
"305 1020 CURVE SMOOTH",
"152 1020 OFFCURVE",
"30 910 OFFCURVE",
"30 730 CURVE SMOOTH",
"30 570 OFFCURVE",
"135 445 OFFCURVE",
"305 445 CURVE SMOOTH",
"420 445 OFFCURVE",
"506 491 OFFCURVE",
"600 580 CURVE",
"693 491 OFFCURVE",
"790 445 OFFCURVE",
"895 445 CURVE SMOOTH",
"1048 445 OFFCURVE",
"1170 550 OFFCURVE",
"1170 730 CURVE SMOOTH"
);
}
);
width = 1200;
}
);
unicode = 221E;
},
{
glyphname = PlusMinusSgn;
layers = (
{
layerId = "227CFDA3-9046-4C35-BCA7-2E12199138C9";
paths = (
{
closed = 1;
nodes = (
"525 835 LINE",
"525 470 LINE",
"675 470 LINE",
"675 835 LINE",
"1045 835 LINE",
"1045 985 LINE",
"675 985 LINE",
"675 1365 LINE",
"525 1365 LINE",
"525 985 LINE",
"155 985 LINE",
"155 835 LINE"
);
},
{
closed = 1;
nodes = (
"1045 200 LINE",
"1045 350 LINE",
"155 350 LINE",
"155 200 LINE"
);
}
);
width = 1200;
},
{
layerId = "B46047BD-989B-43B8-9078-123A6A2C0348";
paths = (
{
closed = 1;
nodes = (
"495 470 LINE",
"705 470 LINE",
"705 1365 LINE",
"495 1365 LINE"
);
},
{
closed = 1;
nodes = (
"1045 805 LINE",
"1045 1015 LINE",
"155 1015 LINE",
"155 805 LINE"
);
},
{
closed = 1;
nodes = (
"1045 160 LINE",
"1045 370 LINE",
"155 370 LINE",
"155 160 LINE"
);
}
);
width = 1200;
}
);
unicode = 00B1;
},
{
glyphname = LTOrEqTo;
layers = (
{
layerId = "227CFDA3-9046-4C35-BCA7-2E12199138C9";
paths = (
{
closed = 1;
nodes = (
"1080 0 LINE",
"1080 150 LINE",
"100 150 LINE",
"100 0 LINE"
);
},
{
closed = 1;
nodes = (
"290 730 LINE",
"1080 1035 LINE",
"1080 1215 LINE",
"100 815 LINE",
"100 645 LINE",
"1080 245 LINE",
"1080 425 LINE"
);
}
);
width = 1200;
},
{
layerId = "B46047BD-989B-43B8-9078-123A6A2C0348";
paths = (
{
closed = 1;
nodes = (
"1080 -20 LINE",
"1080 190 LINE",
"100 190 LINE",
"100 -20 LINE"
);
},
{
closed = 1;
nodes = (
"390 750 LINE",
"1080 1005 LINE",
"1080 1235 LINE",
"100 845 LINE",
"100 655 LINE",
"1080 275 LINE",
"1080 505 LINE"
);
}
);
width = 1200;
}
);
unicode = 2264;
},
{
glyphname = GTOrEqTo;
layers = (
{
layerId = "227CFDA3-9046-4C35-BCA7-2E12199138C9";
paths = (
{
closed = 1;
nodes = (
"910 730 LINE",
"120 425 LINE",
"120 245 LINE",
"1100 645 LINE",
"1100 815 LINE",
"120 1215 LINE",
"120 1035 LINE"
);
},
{
closed = 1;
nodes = (
"1100 0 LINE",
"1100 150 LINE",
"120 150 LINE",
"120 0 LINE"
);
}
);
width = 1200;
},
{
layerId = "B46047BD-989B-43B8-9078-123A6A2C0348";
paths = (
{
closed = 1;
nodes = (
"1100 655 LINE",
"1100 845 LINE",
"120 1235 LINE",
"120 1005 LINE",
"810 750 LINE",
"120 505 LINE",
"120 275 LINE"
);
},
{
closed = 1;
nodes = (
"1100 -20 LINE",
"1100 190 LINE",
"120 190 LINE",
"120 -20 LINE"
);
}
);
width = 1200;
}
);
unicode = 2265;
},
{
glyphname = YenSgn;
layers = (
{
layerId = "227CFDA3-9046-4C35-BCA7-2E12199138C9";
paths = (
{
closed = 1;
nodes = (
"700 675 LINE",
"230 1460 LINE",
"0 1460 LINE",
"112 1311 OFFCURVE",
"178 1197 OFFCURVE",
"255 1065 CURVE SMOOTH",
"550 560 LINE"
);
},
{
closed = 1;
nodes = (
"950 1065 LINE SMOOTH",
"1026 1195 OFFCURVE",
"1082 1291 OFFCURVE",
"1200 1460 CURVE",
"970 1460 LINE",
"525 675 LINE",
"655 560 LINE"
);
},
{
closed = 1;
nodes = (
"505 435 LINE SMOOTH",
"505 238 OFFCURVE",
"505 80 OFFCURVE",
"490 0 CURVE",
"710 0 LINE",
"695 80 OFFCURVE",
"695 238 OFFCURVE",
"695 435 CURVE SMOOTH",
"695 695 LINE",
"505 695 LINE"
);
},
{
closed = 1;
nodes = (
"1008 625 LINE",
"1008 770 LINE",
"200 770 LINE",
"200 625 LINE"
);
},
{
closed = 1;
nodes = (
"1008 375 LINE",
"1008 520 LINE",
"200 520 LINE",
"200 375 LINE"
);
}
);
width = 1200;
},
{
layerId = "B46047BD-989B-43B8-9078-123A6A2C0348";
paths = (
{
closed = 1;
nodes = (
"742 655 LINE",
"317 1460 LINE",
"-15 1460 LINE",
"97 1311 OFFCURVE",
"163 1197 OFFCURVE",
"240 1065 CURVE SMOOTH",
"535 560 LINE"
);
},
{
closed = 1;
nodes = (
"965 1065 LINE SMOOTH",
"1041 1195 OFFCURVE",
"1097 1291 OFFCURVE",
"1215 1460 CURVE",
"893 1460 LINE",
"473 655 LINE",
"666 560 LINE"
);
},
{
closed = 1;
nodes = (
"458 435 LINE SMOOTH",
"458 238 OFFCURVE",
"458 80 OFFCURVE",
"443 0 CURVE",
"758 0 LINE",
"743 80 OFFCURVE",
"743 238 OFFCURVE",
"743 435 CURVE SMOOTH",
"743 695 LINE",
"458 695 LINE"
);
},
{
closed = 1;
nodes = (
"1080 354 LINE",
"1080 564 LINE",
"120 564 LINE",
"120 354 LINE"
);
},
{
closed = 1;
nodes = (
"1080 670 LINE",
"1080 880 LINE",
"120 880 LINE",
"120 670 LINE"
);
}
);
width = 1200;
}
);
unicode = 00A5;
},
{
glyphname = MicroSgn;
layers = (
{
layerId = "227CFDA3-9046-4C35-BCA7-2E12199138C9";
paths = (
{
closed = 1;
nodes = (
"1048 112 OFFCURVE",
"1025 256 OFFCURVE",
"1025 450 CURVE SMOOTH",
"1025 646 OFFCURVE",
"1025 1020 OFFCURVE",
"1025 1020 CURVE",
"820 1020 LINE",
"838 898 OFFCURVE",
"840 832 OFFCURVE",
"840 700 CURVE SMOOTH",
"840 420 LINE",
"797 295 OFFCURVE",
"664 140 OFFCURVE",
"564 140 CURVE SMOOTH",
"453 140 OFFCURVE",
"340 238 OFFCURVE",
"340 465 CURVE SMOOTH",
"340 603 OFFCURVE",
"340 1020 OFFCURVE",
"340 1020 CURVE",
"135 1020 LINE",
"153 900 OFFCURVE",
"155 827 OFFCURVE",
"155 700 CURVE SMOOTH",
"155 681 OFFCURVE",
"155 424 OFFCURVE",
"155 405 CURVE SMOOTH",
"155 -490 LINE",
"365 -490 LINE",
"348 -405 OFFCURVE",
"340 -310 OFFCURVE",
"340 -150 CURVE",
"340 80 LINE",
"377 27 OFFCURVE",
"453 -25 OFFCURVE",
"545 -25 CURVE SMOOTH",
"674 -25 OFFCURVE",
"802 100 OFFCURVE",
"865 200 CURVE",
"875 125 OFFCURVE",
"901 46 OFFCURVE",
"920 0 CURVE",
"1090 0 LINE"
);
}
);
width = 1185;
},
{
layerId = "B46047BD-989B-43B8-9078-123A6A2C0348";
paths = (
{
closed = 1;
nodes = (
"1118 112 OFFCURVE",
"1095 256 OFFCURVE",
"1095 450 CURVE SMOOTH",
"1095 632 OFFCURVE",
"1095 1020 OFFCURVE",
"1095 1020 CURVE",
"795 1020 LINE",
"813 898 OFFCURVE",
"815 832 OFFCURVE",
"815 700 CURVE SMOOTH",
"815 418 LINE",
"782 326 OFFCURVE",
"675 206 OFFCURVE",
"600 206 CURVE SMOOTH",
"466 206 OFFCURVE",
"425 284 OFFCURVE",
"425 465 CURVE SMOOTH",
"425 619 OFFCURVE",
"425 1020 OFFCURVE",
"425 1020 CURVE",
"125 1020 LINE",
"143 900 OFFCURVE",
"145 827 OFFCURVE",
"145 700 CURVE SMOOTH",
"145 -490 LINE",
"450 -490 LINE",
"433 -405 OFFCURVE",
"425 -310 OFFCURVE",
"425 -150 CURVE",
"425 25 LINE",
"471 -19 OFFCURVE",
"521 -25 OFFCURVE",
"578 -25 CURVE SMOOTH",
"655 -25 OFFCURVE",
"758 48 OFFCURVE",
"840 185 CURVE",
"850 116 OFFCURVE",
"876 43 OFFCURVE",
"895 0 CURVE",
"1160 0 LINE"
);
}
);
width = 1245;
}
);
unicode = 00B5;
},
{
glyphname = PartialDiff;
layers = (
{
layerId = "227CFDA3-9046-4C35-BCA7-2E12199138C9";
paths = (
{
closed = 1;
nodes = (
"1025 1117 OFFCURVE",
"928 1455 OFFCURVE",
"500 1455 CURVE SMOOTH",
"394 1455 OFFCURVE",
"291 1417 OFFCURVE",
"230 1380 CURVE",
"275 1230 LINE",
"367 1280 OFFCURVE",
"425 1300 OFFCURVE",
"505 1300 CURVE SMOOTH",
"751 1300 OFFCURVE",
"850 1094 OFFCURVE",
"850 885 CURVE SMOOTH",
"850 847 OFFCURVE",
"849 808 OFFCURVE",
"845 770 CURVE",
"741 862 OFFCURVE",
"630 890 OFFCURVE",
"505 890 CURVE SMOOTH",
"348 890 OFFCURVE",
"85 746 OFFCURVE",
"85 425 CURVE SMOOTH",
"85 190 OFFCURVE",
"230 -25 OFFCURVE",
"480 -25 CURVE SMOOTH",
"847 -25 OFFCURVE",
"1025 429 OFFCURVE",
"1025 840 CURVE SMOOTH"
);
},
{
closed = 1;
nodes = (
"786 339 OFFCURVE",
"663 130 OFFCURVE",
"470 130 CURVE SMOOTH",
"330 130 OFFCURVE",
"255 288 OFFCURVE",
"255 400 CURVE SMOOTH",
"255 580 OFFCURVE",
"365 745 OFFCURVE",
"550 745 CURVE SMOOTH",
"661 745 OFFCURVE",
"780 679 OFFCURVE",
"825 630 CURVE"
);
}
);
width = 1110;
},
{
layerId = "B46047BD-989B-43B8-9078-123A6A2C0348";
paths = (
{
closed = 1;
nodes = (
"342 1220 OFFCURVE",
"400 1240 OFFCURVE",
"480 1240 CURVE SMOOTH",
"706 1240 OFFCURVE",
"821 1064 OFFCURVE",
"821 885 CURVE SMOOTH",
"821 850 OFFCURVE",
"819 815 OFFCURVE",
"816 780 CURVE",
"712 864 OFFCURVE",
"605 890 OFFCURVE",
"480 890 CURVE SMOOTH",
"323 890 OFFCURVE",
"60 746 OFFCURVE",
"60 425 CURVE SMOOTH",
"60 190 OFFCURVE",
"205 -25 OFFCURVE",
"455 -25 CURVE SMOOTH",
"864 -25 OFFCURVE",
"1062 429 OFFCURVE",
"1062 840 CURVE SMOOTH",
"1062 1117 OFFCURVE",
"954 1455 OFFCURVE",
"475 1455 CURVE SMOOTH",
"369 1455 OFFCURVE",
"266 1417 OFFCURVE",
"205 1380 CURVE",
"250 1170 LINE"
);
},
{
closed = 1;
nodes = (
"752 364 OFFCURVE",
"645 196 OFFCURVE",
"485 196 CURVE SMOOTH",
"363 196 OFFCURVE",
"303 329 OFFCURVE",
"303 420 CURVE SMOOTH",
"303 564 OFFCURVE",
"386 695 OFFCURVE",
"525 695 CURVE SMOOTH",
"656 695 OFFCURVE",
"750 636 OFFCURVE",
"795 592 CURVE"
);
}
);
width = 1122;
}
);
unicode = 2202;
},
{
glyphname = GrSmPi;
layers = (
{
anchors = (
{
name = L;
position = "{650, -100}";
},
{
name = U;
position = "{650, 1100}";
}
);
layerId = "227CFDA3-9046-4C35-BCA7-2E12199138C9";
paths = (
{
closed = 1;
nodes = (
"1240 1020 LINE",
"60 1020 LINE",
"60 875 LINE",
"265 875 LINE",
"265 0 LINE",
"450 0 LINE",
"450 875 LINE",
"850 875 LINE",
"850 625 LINE",
"850 475 OFFCURVE",
"851 329 OFFCURVE",
"855 237 CURVE SMOOTH",
"860 137 OFFCURVE",
"870 61 OFFCURVE",
"895 0 CURVE",
"1090 0 LINE",
"1048 112 OFFCURVE",
"1035 206 OFFCURVE",
"1035 400 CURVE",
"1035 875 LINE",
"1240 875 LINE"
);
}
);
width = 1315;
},
{
anchors = (
{
name = L;
position = "{696, -100}";
},
{
name = U;
position = "{696, 1100}";
}
);
layerId = "B46047BD-989B-43B8-9078-123A6A2C0348";
paths = (
{
closed = 1;
nodes = (
"1332 1020 LINE",
"55 1020 LINE",
"55 820 LINE",
"260 820 LINE",
"260 0 LINE",
"541 0 LINE",
"541 820 LINE",
"847 820 LINE",
"847 586 LINE",
"847 446 OFFCURVE",
"848 309 OFFCURVE",
"852 222 CURVE SMOOTH",
"857 129 OFFCURVE",
"867 57 OFFCURVE",
"892 0 CURVE",
"1182 0 LINE",
"1140 105 OFFCURVE",
"1127 193 OFFCURVE",
"1127 375 CURVE",
"1127 820 LINE",
"1332 820 LINE"
);
}
);
width = 1402;
}
);
unicode = 03C0;
},
{
glyphname = Integral;
layers = (
{
layerId = "227CFDA3-9046-4C35-BCA7-2E12199138C9";
paths = (
{
closed = 1;
nodes = (
"633 1356 OFFCURVE",
"673 1445 OFFCURVE",
"755 1445 CURVE SMOOTH",
"796 1445 OFFCURVE",
"843 1418 OFFCURVE",
"860 1390 CURVE",
"960 1545 LINE",
"908 1595 OFFCURVE",
"834 1620 OFFCURVE",
"755 1620 CURVE SMOOTH",
"615 1620 OFFCURVE",
"488 1500 OFFCURVE",
"440 1305 CURVE SMOOTH",
"391 1105 OFFCURVE",
"390 74 OFFCURVE",
"350 -110 CURVE SMOOTH",
"315 -273 OFFCURVE",
"260 -300 OFFCURVE",
"210 -300 CURVE SMOOTH",
"167 -300 OFFCURVE",
"126 -286 OFFCURVE",
"105 -255 CURVE",
"25 -405 LINE",
"67 -443 OFFCURVE",
"123 -470 OFFCURVE",
"200 -470 CURVE SMOOTH",
"316 -470 OFFCURVE",
"458 -397 OFFCURVE",
"515 -160 CURVE SMOOTH",
"563 40 OFFCURVE",
"570 1088 OFFCURVE",
"615 1280 CURVE SMOOTH"
);
}
);
width = 985;
},
{
layerId = "B46047BD-989B-43B8-9078-123A6A2C0348";
paths = (
{
closed = 1;
nodes = (
"982 1595 OFFCURVE",
"891 1620 OFFCURVE",
"795 1620 CURVE SMOOTH",
"633 1620 OFFCURVE",
"482 1501 OFFCURVE",
"430 1305 CURVE SMOOTH",
"377 1106 OFFCURVE",
"380 74 OFFCURVE",
"340 -110 CURVE SMOOTH",
"305 -209 OFFCURVE",
"250 -225 OFFCURVE",
"200 -225 CURVE SMOOTH",
"157 -225 OFFCURVE",
"116 -211 OFFCURVE",
"95 -180 CURVE",
"15 -405 LINE",
"69 -443 OFFCURVE",
"141 -470 OFFCURVE",
"240 -470 CURVE SMOOTH",
"376 -470 OFFCURVE",
"543 -397 OFFCURVE",
"610 -160 CURVE SMOOTH",
"658 40 OFFCURVE",
"648 1036 OFFCURVE",
"710 1280 CURVE SMOOTH",
"720 1323 OFFCURVE",
"764 1371 OFFCURVE",
"840 1371 CURVE SMOOTH",
"881 1371 OFFCURVE",
"928 1344 OFFCURVE",
"945 1316 CURVE",
"1045 1545 LINE"
);
}
);
width = 1060;
}
);
unicode = 222B;
},
{
glyphname = FemOrdIndicator;
layers = (
{
layerId = "227CFDA3-9046-4C35-BCA7-2E12199138C9";
paths = (
{
closed = 1;
nodes = (
"770 500 LINE",
"770 600 LINE",
"78 600 LINE",
"78 500 LINE"
);
},
{
closed = 1;
nodes = (
"606 863 OFFCURVE",
"618 721 OFFCURVE",
"638 680 CURVE",
"760 680 LINE",
"733 753 OFFCURVE",
"715 861 OFFCURVE",
"715 1024 CURVE SMOOTH",
"715 1327 LINE",
"644 1344 OFFCURVE",
"550 1356 OFFCURVE",
"459 1356 CURVE SMOOTH",
"198 1356 OFFCURVE",
"81 1153 OFFCURVE",
"81 946 CURVE SMOOTH",
"81 763 OFFCURVE",
"174 664 OFFCURVE",
"291 664 CURVE SMOOTH",
"438 664 OFFCURVE",
"548 838 OFFCURVE",
"606 985 CURVE",
"606 920 LINE"
);
},
{
closed = 1;
nodes = (
"519 1252 OFFCURVE",
"562 1244 OFFCURVE",
"585 1239 CURVE",
"585 1197 LINE SMOOTH",
"585 1104 OFFCURVE",
"436 774 OFFCURVE",
"312 774 CURVE SMOOTH",
"257 774 OFFCURVE",
"211 846 OFFCURVE",
"211 946 CURVE SMOOTH",
"211 1103 OFFCURVE",
"266 1252 OFFCURVE",
"449 1252 CURVE SMOOTH"
);
}
);
width = 808;
},
{
layerId = "B46047BD-989B-43B8-9078-123A6A2C0348";
paths = (
{
closed = 1;
nodes = (
"559 832 OFFCURVE",
"575 720 OFFCURVE",
"594 689 CURVE",
"767 689 LINE",
"742 761 OFFCURVE",
"726 870 OFFCURVE",
"726 1035 CURVE SMOOTH",
"726 1337 LINE",
"652 1353 OFFCURVE",
"553 1365 OFFCURVE",
"460 1365 CURVE SMOOTH",
"190 1365 OFFCURVE",
"71 1163 OFFCURVE",
"71 955 CURVE SMOOTH",
"71 772 OFFCURVE",
"156 673 OFFCURVE",
"267 673 CURVE SMOOTH",
"392 673 OFFCURVE",
"505 820 OFFCURVE",
"559 947 CURVE",
"559 879 LINE"
);
},
{
closed = 1;
nodes = (
"539 1106 OFFCURVE",
"422 828 OFFCURVE",
"324 828 CURVE SMOOTH",
"287 828 OFFCURVE",
"254 879 OFFCURVE",
"254 955 CURVE SMOOTH",
"254 1090 OFFCURVE",
"296 1219 OFFCURVE",
"433 1219 CURVE SMOOTH",
"487 1219 OFFCURVE",
"521 1212 OFFCURVE",
"539 1207 CURVE",
"539 1184 LINE SMOOTH"
);
},
{
closed = 1;
nodes = (
"770 451 LINE",
"770 601 LINE",
"80 601 LINE",
"80 451 LINE"
);
}
);
width = 810;
}
);
unicode = 00AA;
},
{
glyphname = MascOrdIndicator;
layers = (
{
layerId = "227CFDA3-9046-4C35-BCA7-2E12199138C9";
paths = (
{
closed = 1;
nodes = (
"71 785 OFFCURVE",
"205 664 OFFCURVE",
"397 664 CURVE SMOOTH",
"581 664 OFFCURVE",
"736 785 OFFCURVE",
"736 1008 CURVE SMOOTH",
"736 1232 OFFCURVE",
"603 1356 OFFCURVE",
"411 1356 CURVE SMOOTH",
"227 1356 OFFCURVE",
"71 1232 OFFCURVE",
"71 1008 CURVE SMOOTH"
);
},
{
closed = 1;
nodes = (
"201 1160 OFFCURVE",
"291 1252 OFFCURVE",
"404 1252 CURVE SMOOTH",
"524 1252 OFFCURVE",
"607 1160 OFFCURVE",
"607 1008 CURVE SMOOTH",
"607 857 OFFCURVE",
"517 768 OFFCURVE",
"404 768 CURVE SMOOTH",
"284 768 OFFCURVE",
"201 857 OFFCURVE",
"201 1008 CURVE SMOOTH"
);
},
{
closed = 1;
nodes = (
"736 500 LINE",
"736 600 LINE",
"71 600 LINE",
"71 500 LINE"
);
}
);
width = 798;
},
{
layerId = "B46047BD-989B-43B8-9078-123A6A2C0348";
paths = (
{
closed = 1;
nodes = (
"66 786 OFFCURVE",
"204 664 OFFCURVE",
"399 664 CURVE SMOOTH",
"586 664 OFFCURVE",
"746 786 OFFCURVE",
"746 1009 CURVE SMOOTH",
"746 1232 OFFCURVE",
"609 1356 OFFCURVE",
"413 1356 CURVE SMOOTH",
"226 1356 OFFCURVE",
"66 1232 OFFCURVE",
"66 1009 CURVE SMOOTH"
);
},
{
closed = 1;
nodes = (
"260 1135 OFFCURVE",
"316 1209 OFFCURVE",
"407 1209 CURVE SMOOTH",
"501 1209 OFFCURVE",
"553 1135 OFFCURVE",
"553 1009 CURVE SMOOTH",
"553 886 OFFCURVE",
"496 810 OFFCURVE",
"407 810 CURVE SMOOTH",
"311 810 OFFCURVE",
"260 886 OFFCURVE",
"260 1009 CURVE SMOOTH"
);
},
{
closed = 1;
nodes = (
"743 451 LINE",
"743 601 LINE",
"68 601 LINE",
"68 451 LINE"
);
}
);
width = 800;
}
);
unicode = 00BA;
},
{
glyphname = LtnSmAe;
layers = (
{
anchors = (
{
name = H;
position = "{888, 0}";
},
{
name = L;
position = "{865, -100}";
},
{
name = O;
position = "{1582, 0}";
},
{
name = R;
position = "{1745, 1000}";
},
{
name = U;
position = "{865, 1100}";
}
);
layerId = "227CFDA3-9046-4C35-BCA7-2E12199138C9";
paths = (
{
closed = 1;
nodes = (
"1100 1040 OFFCURVE",
"970 975 OFFCURVE",
"880 865 CURVE",
"810 983 OFFCURVE",
"676 1040 OFFCURVE",
"540 1040 CURVE SMOOTH",
"388 1040 OFFCURVE",
"313 994 OFFCURVE",
"210 950 CURVE",
"204 907 OFFCURVE",
"201 799 OFFCURVE",
"200 755 CURVE",
"317 837 OFFCURVE",
"389 880 OFFCURVE",
"495 880 CURVE SMOOTH",
"645 880 OFFCURVE",
"755 831 OFFCURVE",
"755 710 CURVE SMOOTH",
"755 625 LINE",
"714 622 OFFCURVE",
"554 619 OFFCURVE",
"485 610 CURVE SMOOTH",
"187 569 OFFCURVE",
"95 407 OFFCURVE",
"95 255 CURVE SMOOTH",
"95 107 OFFCURVE",
"232 -25 OFFCURVE",
"420 -25 CURVE SMOOTH",
"544 -25 OFFCURVE",
"667 19 OFFCURVE",
"785 145 CURVE SMOOTH",
"800 162 OFFCURVE",
"816 179 OFFCURVE",
"830 196 CURVE",
"917 50 OFFCURVE",
"1070 -25 OFFCURVE",
"1235 -25 CURVE SMOOTH",
"1389 -25 OFFCURVE",
"1503 2 OFFCURVE",
"1645 75 CURVE",
"1625 240 LINE",
"1503 166 OFFCURVE",
"1389 140 OFFCURVE",
"1260 140 CURVE SMOOTH",
"1079 140 OFFCURVE",
"938 251 OFFCURVE",
"930 485 CURVE",
"1640 485 LINE",
"1640 565 LINE",
"1640 790 OFFCURVE",
"1555 1040 OFFCURVE",
"1245 1040 CURVE SMOOTH"
);
},
{
closed = 1;
nodes = (
"755 437 OFFCURVE",
"761 391 OFFCURVE",
"770 350 CURVE",
"767 340 OFFCURVE",
"761 333 OFFCURVE",
"755 325 CURVE SMOOTH",
"644 164 OFFCURVE",
"552 140 OFFCURVE",
"450 140 CURVE SMOOTH",
"350 140 OFFCURVE",
"280 201 OFFCURVE",
"280 280 CURVE SMOOTH",
"280 372 OFFCURVE",
"328 440 OFFCURVE",
"495 470 CURVE SMOOTH",
"558 481 OFFCURVE",
"705 483 OFFCURVE",
"755 485 CURVE"
);
},
{
closed = 1;
nodes = (
"1355 890 OFFCURVE",
"1460 797 OFFCURVE",
"1460 625 CURVE",
"940 625 LINE",
"973 806 OFFCURVE",
"1084 890 OFFCURVE",
"1230 890 CURVE SMOOTH"
);
}
);
width = 1745;
},
{
anchors = (
{
name = H;
position = "{1237, 0}";
},
{
name = L;
position = "{855, -100}";
},
{
name = O;
position = "{1585, 0}";
},
{
name = R;
position = "{1815, 1000}";
},
{
name = U;
position = "{941, 1100}";
}
);
layerId = "B46047BD-989B-43B8-9078-123A6A2C0348";
paths = (
{
closed = 1;
nodes = (
"1538 232 OFFCURVE",
"1413 205 OFFCURVE",
"1282 205 CURVE SMOOTH",
"1131 205 OFFCURVE",
"1046 277 OFFCURVE",
"1032 450 CURVE",
"1678 450 LINE",
"1678 532 LINE SMOOTH",
"1678 782 OFFCURVE",
"1592 1040 OFFCURVE",
"1257 1040 CURVE SMOOTH",
"1131 1040 OFFCURVE",
"1024 994 OFFCURVE",
"941 915 CURVE",
"866 992 OFFCURVE",
"754 1040 OFFCURVE",
"615 1040 CURVE SMOOTH",
"446 1040 OFFCURVE",
"329 994 OFFCURVE",
"215 950 CURVE",
"209 868 OFFCURVE",
"206 735 OFFCURVE",
"205 691 CURVE",
"322 773 OFFCURVE",
"424 816 OFFCURVE",
"530 816 CURVE SMOOTH",
"680 816 OFFCURVE",
"770 785 OFFCURVE",
"770 710 CURVE SMOOTH",
"770 646 LINE",
"729 644 OFFCURVE",
"569 637 OFFCURVE",
"500 631 CURVE SMOOTH",
"190 604 OFFCURVE",
"100 438 OFFCURVE",
"100 285 CURVE SMOOTH",
"100 121 OFFCURVE",
"245 -25 OFFCURVE",
"445 -25 CURVE SMOOTH",
"562 -25 OFFCURVE",
"683 29 OFFCURVE",
"800 135 CURVE SMOOTH",
"811 145 OFFCURVE",
"833 166 OFFCURVE",
"845 180 CURVE",
"936 43 OFFCURVE",
"1090 -25 OFFCURVE",
"1257 -25 CURVE SMOOTH",
"1413 -25 OFFCURVE",
"1539 2 OFFCURVE",
"1683 75 CURVE",
"1662 306 LINE"
);
},
{
closed = 1;
nodes = (
"760 430 OFFCURVE",
"764 395 OFFCURVE",
"772 356 CURVE",
"765 346 OFFCURVE",
"758 338 OFFCURVE",
"751 329 CURVE SMOOTH",
"665 223 OFFCURVE",
"594 205 OFFCURVE",
"518 205 CURVE SMOOTH",
"436 205 OFFCURVE",
"380 256 OFFCURVE",
"380 320 CURVE SMOOTH",
"380 386 OFFCURVE",
"421 431 OFFCURVE",
"560 446 CURVE SMOOTH",
"606 451 OFFCURVE",
"713 458 OFFCURVE",
"759 460 CURVE"
);
},
{
closed = 1;
nodes = (
"1061 772 OFFCURVE",
"1128 830 OFFCURVE",
"1243 830 CURVE SMOOTH",
"1361 830 OFFCURVE",
"1423 770 OFFCURVE",
"1423 630 CURVE",
"1038 630 LINE"
);
}
);
width = 1778;
}
);
unicode = 00E6;
},
{
glyphname = LtnSmOStrk;
layers = (
{
anchors = (
{
name = H;
position = "{570, 0}";
},
{
name = L;
position = "{570, -100}";
},
{
name = O;
position = "{839, 0}";
},
{
name = R;
position = "{1140, 1000}";
},
{
name = U;
position = "{570, 1100}";
}
);
layerId = "227CFDA3-9046-4C35-BCA7-2E12199138C9";
paths = (
{
closed = 1;
nodes = (
"95 163 OFFCURVE",
"286 -25 OFFCURVE",
"560 -25 CURVE SMOOTH",
"823 -25 OFFCURVE",
"1045 163 OFFCURVE",
"1045 507 CURVE SMOOTH",
"1045 851 OFFCURVE",
"855 1040 OFFCURVE",
"580 1040 CURVE SMOOTH",
"317 1040 OFFCURVE",
"95 851 OFFCURVE",
"95 507 CURVE SMOOTH"
);
},
{
closed = 1;
nodes = (
"280 741 OFFCURVE",
"408 880 OFFCURVE",
"570 880 CURVE SMOOTH",
"742 880 OFFCURVE",
"860 741 OFFCURVE",
"860 507 CURVE SMOOTH",
"860 274 OFFCURVE",
"731 135 OFFCURVE",
"570 135 CURVE SMOOTH",
"398 135 OFFCURVE",
"280 274 OFFCURVE",
"280 507 CURVE SMOOTH"
);
},
{
closed = 1;
nodes = (
"165 -75 LINE",
"313 -75 LINE",
"948 1105 LINE",
"802 1105 LINE"
);
}
);
width = 1140;
},
{
anchors = (
{
name = H;
position = "{580, 0}";
},
{
name = L;
position = "{580, -100}";
},
{
name = O;
position = "{830, 0}";
},
{
name = R;
position = "{1180, 1000}";
},
{
name = U;
position = "{580, 1100}";
}
);
layerId = "B46047BD-989B-43B8-9078-123A6A2C0348";
paths = (
{
closed = 1;
nodes = (
"90 163 OFFCURVE",
"288 -25 OFFCURVE",
"570 -25 CURVE SMOOTH",
"840 -25 OFFCURVE",
"1070 163 OFFCURVE",
"1070 507 CURVE SMOOTH",
"1070 851 OFFCURVE",
"873 1040 OFFCURVE",
"590 1040 CURVE SMOOTH",
"320 1040 OFFCURVE",
"90 851 OFFCURVE",
"90 507 CURVE SMOOTH"
);
},
{
closed = 1;
nodes = (
"365 699 OFFCURVE",
"451 815 OFFCURVE",
"580 815 CURVE SMOOTH",
"717 815 OFFCURVE",
"795 699 OFFCURVE",
"795 507 CURVE SMOOTH",
"795 316 OFFCURVE",
"709 200 OFFCURVE",
"580 200 CURVE SMOOTH",
"443 200 OFFCURVE",
"365 316 OFFCURVE",
"365 507 CURVE SMOOTH"
);
},
{
closed = 1;
nodes = (
"159 -76 LINE",
"369 -76 LINE",
"1007 1107 LINE",
"797 1107 LINE"
);
}
);
width = 1160;
}
);
unicode = 00F8;
},
{
glyphname = InvQstnMrk;
layers = (
{
layerId = "227CFDA3-9046-4C35-BCA7-2E12199138C9";
paths = (
{
closed = 1;
nodes = (
"709 -200 OFFCURVE",
"618 -235 OFFCURVE",
"538 -235 CURVE SMOOTH",
"391 -235 OFFCURVE",
"345 -159 OFFCURVE",
"345 -100 CURVE SMOOTH",
"345 -41 OFFCURVE",
"358 15 OFFCURVE",
"485 150 CURVE SMOOTH",
"593 265 OFFCURVE",
"610 361 OFFCURVE",
"610 690 CURVE",
"435 690 LINE",
"435 381 OFFCURVE",
"418 332 OFFCURVE",
"296 190 CURVE SMOOTH",
"181 56 OFFCURVE",
"140 -7 OFFCURVE",
"140 -110 CURVE SMOOTH",
"140 -312 OFFCURVE",
"298 -410 OFFCURVE",
"510 -410 CURVE SMOOTH",
"635 -410 OFFCURVE",
"764 -363 OFFCURVE",
"830 -300 CURVE",
"785 -121 LINE"
);
},
{
closed = 1;
nodes = (
"662 1053 OFFCURVE",
"602 1113 OFFCURVE",
"528 1113 CURVE SMOOTH",
"454 1113 OFFCURVE",
"394 1053 OFFCURVE",
"394 979 CURVE SMOOTH",
"394 905 OFFCURVE",
"454 845 OFFCURVE",
"528 845 CURVE SMOOTH",
"602 845 OFFCURVE",
"662 905 OFFCURVE",
"662 979 CURVE SMOOTH"
);
}
);
width = 1050;
},
{
layerId = "B46047BD-989B-43B8-9078-123A6A2C0348";
paths = (
{
closed = 1;
nodes = (
"400 414 OFFCURVE",
"372 280 OFFCURVE",
"273 129 CURVE SMOOTH",
"203 22 OFFCURVE",
"140 -32 OFFCURVE",
"140 -135 CURVE SMOOTH",
"140 -317 OFFCURVE",
"283 -455 OFFCURVE",
"540 -455 CURVE SMOOTH",
"685 -455 OFFCURVE",
"834 -385 OFFCURVE",
"900 -322 CURVE",
"855 -83 LINE",
"779 -162 OFFCURVE",
"668 -210 OFFCURVE",
"568 -210 CURVE SMOOTH",
"471 -210 OFFCURVE",
"425 -164 OFFCURVE",
"425 -105 CURVE SMOOTH",
"425 -54 OFFCURVE",
"492 14 OFFCURVE",
"545 105 CURVE SMOOTH",
"604 207 OFFCURVE",
"665 375 OFFCURVE",
"665 585 CURVE",
"400 585 LINE"
);
},
{
closed = 1;
nodes = (
"705 1039 OFFCURVE",
"631 1110 OFFCURVE",
"530 1110 CURVE SMOOTH",
"428 1110 OFFCURVE",
"355 1039 OFFCURVE",
"355 935 CURVE SMOOTH",
"355 833 OFFCURVE",
"428 760 OFFCURVE",
"530 760 CURVE SMOOTH",
"631 760 OFFCURVE",
"705 833 OFFCURVE",
"705 935 CURVE SMOOTH"
);
}
);
width = 1090;
}
);
unicode = 00BF;
},
{
glyphname = InvExclamationMrk;
layers = (
{
layerId = "227CFDA3-9046-4C35-BCA7-2E12199138C9";
paths = (
{
closed = 1;
nodes = (
"271 370 OFFCURVE",
"271 24 OFFCURVE",
"233 -410 CURVE",
"488 -410 LINE",
"449 24 OFFCURVE",
"449 370 OFFCURVE",
"443 660 CURVE",
"278 660 LINE"
);
},
{
closed = 1;
nodes = (
"227 904 OFFCURVE",
"287 844 OFFCURVE",
"361 844 CURVE SMOOTH",
"435 844 OFFCURVE",
"495 904 OFFCURVE",
"495 978 CURVE SMOOTH",
"495 1052 OFFCURVE",
"435 1112 OFFCURVE",
"361 1112 CURVE SMOOTH",
"287 1112 OFFCURVE",
"227 1052 OFFCURVE",
"227 978 CURVE SMOOTH"
);
}
);
width = 764;
},
{
layerId = "B46047BD-989B-43B8-9078-123A6A2C0348";
paths = (
{
closed = 1;
nodes = (
"238 295 OFFCURVE",
"243 9 OFFCURVE",
"205 -425 CURVE",
"540 -425 LINE",
"501 9 OFFCURVE",
"506 295 OFFCURVE",
"500 585 CURVE",
"245 585 LINE"
);
},
{
closed = 1;
nodes = (
"200 833 OFFCURVE",
"274 760 OFFCURVE",
"375 760 CURVE SMOOTH",
"477 760 OFFCURVE",
"550 833 OFFCURVE",
"550 935 CURVE SMOOTH",
"550 1039 OFFCURVE",
"477 1110 OFFCURVE",
"375 1110 CURVE SMOOTH",
"274 1110 OFFCURVE",
"200 1039 OFFCURVE",
"200 935 CURVE SMOOTH"
);
}
);
width = 780;
}
);
unicode = 00A1;
},
{
glyphname = NotSgn;
layers = (
{
layerId = "227CFDA3-9046-4C35-BCA7-2E12199138C9";
paths = (
{
closed = 1;
nodes = (
"1065 800 LINE",
"110 800 LINE",
"110 650 LINE",
"915 650 LINE",
"915 340 LINE",
"1065 340 LINE"
);
}
);
width = 1200;
},
{
layerId = "B46047BD-989B-43B8-9078-123A6A2C0348";
paths = (
{
closed = 1;
nodes = (
"1080 830 LINE",
"95 830 LINE",
"95 620 LINE",
"870 620 LINE",
"870 340 LINE",
"1080 340 LINE"
);
}
);
width = 1200;
}
);
unicode = 00AC;
},
{
glyphname = SqrRoot;
layers = (
{
layerId = "227CFDA3-9046-4C35-BCA7-2E12199138C9";
paths = (
{
closed = 1;
nodes = (
"1325 1600 LINE",
"1085 1600 LINE",
"650 250 LINE",
"245 965 LINE",
"0 825 LINE",
"50 730 LINE",
"170 800 LINE",
"620 0 LINE",
"705 0 LINE",
"1180 1490 LINE",
"1325 1490 LINE"
);
}
);
width = 1200;
},
{
layerId = "B46047BD-989B-43B8-9078-123A6A2C0348";
paths = (
{
closed = 1;
nodes = (
"1325 1640 LINE",
"1075 1640 LINE",
"650 290 LINE",
"261 999 LINE",
"0 850 LINE",
"65 722 LINE",
"170 783 LINE",
"600 0 LINE",
"725 0 LINE",
"1200 1500 LINE",
"1325 1500 LINE"
);
}
);
width = 1200;
}
);
unicode = 221A;
},
{
glyphname = LtnSmFHook;
layers = (
{
anchors = (
{
name = L;
position = "{297, -500}";
},
{
name = U;
position = "{540, 1635}";
}
);
layerId = "227CFDA3-9046-4C35-BCA7-2E12199138C9";
paths = (
{
closed = 1;
nodes = (
"675 850 LINE",
"675 995 LINE",
"20 995 LINE",
"20 850 LINE"
);
},
{
closed = 1;
nodes = (
"723 1594 OFFCURVE",
"643 1620 OFFCURVE",
"565 1620 CURVE SMOOTH",
"349 1620 OFFCURVE",
"220 1470 OFFCURVE",
"220 1170 CURVE SMOOTH",
"220 1087 OFFCURVE",
"220 78 OFFCURVE",
"220 -25 CURVE SMOOTH",
"220 -222 OFFCURVE",
"145 -300 OFFCURVE",
"38 -300 CURVE SMOOTH",
"-18 -300 OFFCURVE",
"-111 -273 OFFCURVE",
"-155 -240 CURVE",
"-190 -405 LINE",
"-130 -446 OFFCURVE",
"-27 -470 OFFCURVE",
"29 -470 CURVE SMOOTH",
"257 -470 OFFCURVE",
"405 -348 OFFCURVE",
"405 25 CURVE SMOOTH",
"405 733 OFFCURVE",
"405 971 OFFCURVE",
"405 1210 CURVE SMOOTH",
"405 1391 OFFCURVE",
"461 1460 OFFCURVE",
"565 1460 CURVE SMOOTH",
"623 1460 OFFCURVE",
"689 1437 OFFCURVE",
"739 1400 CURVE",
"785 1550 LINE"
);
}
);
width = 730;
},
{
anchors = (
{
name = L;
position = "{307, -500}";
},
{
name = U;
position = "{600, 1635}";
}
);
layerId = "B46047BD-989B-43B8-9078-123A6A2C0348";
paths = (
{
closed = 1;
nodes = (
"765 805 LINE",
"765 1005 LINE",
"30 1005 LINE",
"30 805 LINE"
);
},
{
closed = 1;
nodes = (
"806 1588 OFFCURVE",
"699 1620 OFFCURVE",
"625 1620 CURVE SMOOTH",
"378 1620 OFFCURVE",
"230 1471 OFFCURVE",
"230 1170 CURVE SMOOTH",
"230 1119 OFFCURVE",
"230 75 OFFCURVE",
"230 -40 CURVE SMOOTH",
"230 -151 OFFCURVE",
"198 -226 OFFCURVE",
"78 -226 CURVE SMOOTH",
"6 -226 OFFCURVE",
"-55 -186 OFFCURVE",
"-98 -156 CURVE",
"-160 -389 LINE",
"-118 -421 OFFCURVE",
"-7 -470 OFFCURVE",
"86 -470 CURVE SMOOTH",
"376 -470 OFFCURVE",
"510 -297 OFFCURVE",
"510 15 CURVE SMOOTH",
"510 130 OFFCURVE",
"510 1052 OFFCURVE",
"510 1159 CURVE SMOOTH",
"510 1322 OFFCURVE",
"552 1387 OFFCURVE",
"648 1387 CURVE SMOOTH",
"697 1387 OFFCURVE",
"765 1362 OFFCURVE",
"808 1322 CURVE",
"865 1550 LINE"
);
}
);
width = 800;
}
);
unicode = 0192;
},
